<svg width="195" height="80" viewBox="0 0 195 80" fill="none" xmlns="http://www.w3.org/2000/svg">
<path fill-rule="evenodd" clip-rule="evenodd" d="M57.386 41.5565C59.0035 41.491 60.2456 42.9182 59.871 44.4931C59.7704 44.916 59.6546 45.333 59.5243 45.7435C59.1601 46.8903 58.0245 47.5604 56.8214 47.5779C46.87 47.7222 41.4058 52.0424 38.5156 56.6116C38.2108 57.0934 37.6282 57.3415 37.0872 57.1614C36.4354 56.9444 36.1355 56.2117 36.4232 55.5878C41.3056 44.9982 50.411 41.8389 57.386 41.5565ZM60.3502 40.3878C60.3502 40.3951 60.3441 40.4011 60.3368 40.4013C45.7145 40.7391 38.9968 48.6168 36.1452 55.497C35.8914 56.1095 35.1867 56.4166 34.5972 56.1132C34.1629 55.8896 33.9414 55.3962 34.0423 54.9182C37.1416 40.2286 49.152 34.7962 56.8867 33.658C58.1125 33.4776 59.2833 34.1996 59.6332 35.3882C60.0998 36.9735 60.3502 38.6514 60.3502 40.3878ZM31.2242 53.1921C31.2249 53.6134 31.4133 54.0177 31.7442 54.2785C32.5714 54.9302 33.7393 54.3925 33.9764 53.3665C35.7318 45.7702 41.0173 37.1502 54.3762 32.86C56.2376 32.2622 57.1873 30.1087 55.8882 28.6477C55.0685 27.7258 54.1538 26.8903 53.1594 26.1565C52.4412 25.6265 51.5012 25.5268 50.6763 25.8678C42.9951 29.0429 31.1996 37.8872 31.2242 53.1921ZM31.4342 46.4882C30.8649 49.0437 27.7636 50.2366 26.6548 47.8649C25.5931 45.594 25 43.0602 25 40.3878C25 30.6261 32.9134 22.7126 42.6751 22.7126C43.3537 22.7126 44.0233 22.7509 44.682 22.8253C47.0684 23.095 47.2725 26.0516 45.3057 27.4298C36.6838 33.4713 32.8129 40.3 31.4342 46.4882ZM42.2664 58.0582C40.2858 58.0133 39.3711 55.7931 40.7277 54.3492C44.7262 50.0935 49.9453 48.6496 54.1841 48.4859C56.1947 48.4082 57.2594 50.5755 55.9274 52.0837C52.6888 55.7505 47.952 58.0629 42.6751 58.0629C42.5385 58.0629 42.4023 58.0613 42.2664 58.0582Z" fill="#141414"/>
<path d="M75.5998 51.9688V27.1646H85.474C90.3601 27.1646 93.3461 29.7095 93.3461 33.8492C93.3461 36.5976 92.1246 38.5657 89.7833 39.5497C92.3961 40.398 93.7194 42.366 93.7194 45.2502C93.7194 49.4917 90.7673 51.9688 85.6436 51.9688H75.5998ZM85.1007 30.9989H79.9431V37.7513H85.2025C87.5777 37.7513 88.9011 36.4958 88.9011 34.2903C88.9011 32.1526 87.5438 30.9989 85.1007 30.9989ZM85.474 41.416H79.9431V48.1345H85.474C87.9171 48.1345 89.2743 46.9468 89.2743 44.7073C89.2743 42.6036 87.8831 41.416 85.474 41.416ZM99.9074 51.9688H95.8017V26.7235H99.9074V51.9688ZM101.909 43.5537C101.909 38.3282 105.675 34.7314 110.867 34.7314C116.058 34.7314 119.825 38.3282 119.825 43.5537C119.825 48.7792 116.058 52.3759 110.867 52.3759C105.675 52.3759 101.909 48.7792 101.909 43.5537ZM106.048 43.5537C106.048 46.6075 108.016 48.6774 110.867 48.6774C113.717 48.6774 115.685 46.6075 115.685 43.5537C115.685 40.4998 113.717 38.43 110.867 38.43C108.016 38.43 106.048 40.4998 106.048 43.5537ZM120.765 43.5537C120.765 38.3621 124.192 34.6974 129.146 34.6974C133.727 34.6974 136.848 37.2423 137.289 41.2802H133.15C132.675 39.38 131.284 38.396 129.315 38.396C126.669 38.396 124.904 40.398 124.904 43.5537C124.904 46.7093 126.533 48.6774 129.18 48.6774C131.25 48.6774 132.709 47.6594 133.15 45.8271H137.323C136.814 49.7292 133.557 52.4099 129.18 52.4099C124.09 52.4099 120.765 48.881 120.765 43.5537ZM143.221 51.9688H139.115V26.7235H143.221V42.2303L149.736 35.2064H154.927L148.548 41.8571L154.792 51.9688H150.041L145.664 44.9109L143.221 47.4558V51.9688ZM154.626 46.879H158.562C158.596 48.338 159.682 49.2542 161.582 49.2542C163.516 49.2542 164.568 48.4738 164.568 47.2522C164.568 46.4039 164.127 45.7932 162.634 45.4538L159.614 44.7413C156.594 44.0626 155.135 42.6375 155.135 39.9569C155.135 36.6655 157.917 34.6974 161.785 34.6974C165.552 34.6974 168.097 36.8691 168.131 40.1265H164.194C164.161 38.7014 163.21 37.7852 161.616 37.7852C159.987 37.7852 159.037 38.5317 159.037 39.7872C159.037 40.7373 159.783 41.3481 161.208 41.6874L164.228 42.4C167.045 43.0447 168.47 44.3341 168.47 46.9129C168.47 50.3061 165.586 52.4099 161.446 52.4099C157.272 52.4099 154.626 50.1704 154.626 46.879Z" fill="#141414"/>
</svg>
