<svg width="202" height="80" viewBox="0 0 202 80" fill="none" xmlns="http://www.w3.org/2000/svg">
<path d="M49.5269 52.2189L59.1356 28.8499H62.9045L72.4793 52.2189H67.556L60.1542 33.0383H61.8519L54.3482 52.2189H49.5269ZM54.6199 47.8642V44.0746H67.4542V47.8642H54.6199Z" fill="#141414"/>
<path d="M80.8068 52.5513C79.3581 52.5513 78.0679 52.2521 76.9361 51.6537C75.827 51.0554 74.9555 50.2243 74.3217 49.1606C73.688 48.0969 73.3711 46.8669 73.3711 45.4708V36.1631H77.8529V45.371C77.8529 46.0359 77.9661 46.6121 78.1924 47.0996C78.4188 47.565 78.7583 47.9196 79.211 48.1633C79.6637 48.4071 80.1957 48.529 80.8068 48.529C81.7349 48.529 82.4592 48.252 82.9798 47.698C83.5004 47.1439 83.7607 46.3683 83.7607 45.371V36.1631H88.2086V45.4708C88.2086 46.8891 87.8917 48.1301 87.2579 49.1938C86.6468 50.2576 85.7753 51.0886 84.6435 51.687C83.5344 52.2632 82.2555 52.5513 80.8068 52.5513Z" fill="#141414"/>
<path d="M93.4822 52.2189V29.4814H97.9301V52.2189H93.4822ZM89.6455 39.9859V36.1631H101.767V39.9859H89.6455Z" fill="#141414"/>
<path d="M110.899 52.5513C109.246 52.5513 107.752 52.1856 106.417 51.4543C105.104 50.7008 104.051 49.6925 103.259 48.4293C102.49 47.1439 102.105 45.7145 102.105 44.1411C102.105 42.5676 102.49 41.1604 103.259 39.9194C104.029 38.6562 105.081 37.6589 106.417 36.9276C107.752 36.1741 109.235 35.7974 110.865 35.7974C112.54 35.7974 114.034 36.1741 115.347 36.9276C116.682 37.6589 117.735 38.6562 118.504 39.9194C119.274 41.1604 119.659 42.5676 119.659 44.1411C119.659 45.7145 119.274 47.1439 118.504 48.4293C117.735 49.6925 116.682 50.7008 115.347 51.4543C114.034 52.1856 112.551 52.5513 110.899 52.5513ZM110.865 48.4958C111.702 48.4958 112.438 48.3185 113.072 47.9639C113.728 47.5872 114.226 47.0774 114.566 46.4348C114.928 45.7699 115.109 45.0165 115.109 44.1743C115.109 43.3322 114.928 42.5898 114.566 41.9471C114.203 41.3045 113.705 40.8058 113.072 40.4512C112.438 40.0745 111.702 39.8861 110.865 39.8861C110.05 39.8861 109.325 40.0745 108.692 40.4512C108.058 40.8058 107.56 41.3045 107.198 41.9471C106.836 42.5898 106.654 43.3322 106.654 44.1743C106.654 45.0165 106.836 45.7699 107.198 46.4348C107.56 47.0774 108.058 47.5872 108.692 47.9639C109.325 48.3185 110.05 48.4958 110.865 48.4958Z" fill="#141414"/>
<path d="M121.843 52.2189V36.1631H126.291V52.2189H121.843ZM132.538 52.2189V42.7449C132.538 41.8142 132.233 41.0939 131.622 40.5842C131.033 40.0523 130.297 39.7864 129.415 39.7864C128.826 39.7864 128.294 39.9083 127.819 40.1521C127.343 40.3737 126.97 40.7061 126.698 41.1493C126.427 41.5925 126.291 42.1244 126.291 42.7449L124.559 41.9139C124.559 40.6729 124.831 39.598 125.374 38.6894C125.94 37.7808 126.698 37.0827 127.649 36.5952C128.6 36.0855 129.675 35.8306 130.875 35.8306C132.006 35.8306 133.036 36.0855 133.964 36.5952C134.892 37.0827 135.628 37.7808 136.171 38.6894C136.714 39.5759 136.986 40.6507 136.986 41.9139V52.2189H132.538ZM143.234 52.2189V42.7449C143.234 41.8142 142.928 41.0939 142.317 40.5842C141.728 40.0523 140.993 39.7864 140.11 39.7864C139.544 39.7864 139.012 39.9083 138.514 40.1521C138.039 40.3737 137.665 40.7061 137.394 41.1493C137.122 41.5925 136.986 42.1244 136.986 42.7449L134.44 42.1466C134.53 40.8612 134.881 39.7532 135.492 38.8224C136.103 37.8695 136.907 37.1381 137.903 36.6284C138.899 36.0966 140.008 35.8306 141.23 35.8306C142.453 35.8306 143.55 36.0855 144.524 36.5952C145.497 37.0827 146.267 37.7919 146.833 38.7227C147.398 39.6534 147.681 40.7615 147.681 42.0469V52.2189H143.234Z" fill="#141414"/>
<path d="M157.466 52.5513C155.972 52.5513 154.626 52.1856 153.426 51.4543C152.226 50.723 151.287 49.7257 150.608 48.4625C149.929 47.1993 149.589 45.781 149.589 44.2076C149.589 42.612 149.929 41.1826 150.608 39.9194C151.287 38.6562 152.226 37.6589 153.426 36.9276C154.626 36.1963 155.972 35.8306 157.466 35.8306C158.643 35.8306 159.696 36.0633 160.624 36.5287C161.552 36.9941 162.288 37.6479 162.831 38.49C163.397 39.3099 163.702 40.2407 163.748 41.2823V47.0664C163.702 48.1301 163.397 49.072 162.831 49.8919C162.288 50.7119 161.552 51.3656 160.624 51.8532C159.696 52.3186 158.643 52.5513 157.466 52.5513ZM158.281 48.529C159.526 48.529 160.533 48.1301 161.303 47.3323C162.073 46.5123 162.457 45.4597 162.457 44.1743C162.457 43.3322 162.276 42.5898 161.914 41.9471C161.575 41.2823 161.088 40.7726 160.454 40.418C159.843 40.0413 159.119 39.8529 158.281 39.8529C157.466 39.8529 156.742 40.0413 156.108 40.418C155.497 40.7726 155.01 41.2823 154.648 41.9471C154.309 42.5898 154.139 43.3322 154.139 44.1743C154.139 45.0386 154.309 45.8032 154.648 46.468C155.01 47.1107 155.497 47.6204 156.108 47.9971C156.742 48.3517 157.466 48.529 158.281 48.529ZM162.22 52.2189V47.8974L162.933 43.9749L162.22 40.1188V36.1631H166.634V52.2189H162.22Z" fill="#141414"/>
<path d="M172.3 52.2189V29.4814H176.748V52.2189H172.3ZM168.463 39.9859V36.1631H180.585V39.9859H168.463Z" fill="#141414"/>
<path d="M189.852 52.5513C188.132 52.5513 186.604 52.1967 185.269 51.4875C183.933 50.7562 182.869 49.759 182.077 48.4958C181.307 47.2326 180.923 45.7921 180.923 44.1743C180.923 42.5787 181.296 41.1604 182.043 39.9194C182.813 38.6562 183.854 37.6589 185.167 36.9276C186.48 36.1741 187.94 35.7974 189.547 35.7974C191.131 35.7974 192.523 36.152 193.723 36.8611C194.945 37.5481 195.896 38.5011 196.575 39.7199C197.277 40.9166 197.628 42.2795 197.628 43.8087C197.628 44.0968 197.605 44.3959 197.56 44.7062C197.537 44.9943 197.48 45.3267 197.39 45.7035L183.605 45.7367V42.479L195.319 42.4458L193.519 43.8087C193.474 42.8557 193.293 42.0579 192.976 41.4153C192.682 40.7726 192.24 40.285 191.652 39.9526C191.086 39.598 190.384 39.4208 189.547 39.4208C188.664 39.4208 187.894 39.6202 187.238 40.0191C186.581 40.3958 186.072 40.9388 185.71 41.648C185.37 42.335 185.201 43.1549 185.201 44.1078C185.201 45.0829 185.382 45.9361 185.744 46.6675C186.129 47.3766 186.672 47.9307 187.374 48.3296C188.075 48.7063 188.89 48.8947 189.818 48.8947C190.656 48.8947 191.414 48.7617 192.093 48.4958C192.772 48.2077 193.361 47.7866 193.859 47.2326L196.473 49.7922C195.681 50.7008 194.708 51.3878 193.553 51.8532C192.421 52.3186 191.188 52.5513 189.852 52.5513Z" fill="#141414"/>
<path fill-rule="evenodd" clip-rule="evenodd" d="M4.15772 57.213L4.15772 32.3713L11.2572 32.3713L11.2572 23.9121L20.0937 23.9121L20.0937 32.3713L28.9994 32.3713L28.9994 41.5888L37.7704 41.5888L37.7704 23.9121L37.7723 23.9121L37.7723 50.4272L28.9994 50.4272L28.9994 57.213L4.15772 57.213ZM28.9994 50.4272L11.2572 50.4272L11.2572 32.3713L20.0937 32.3713L20.0937 41.5888L28.9994 41.5888L28.9994 50.4272Z" fill="#141414"/>
</svg>
