<svg width="223" height="80" viewBox="0 0 223 80" fill="none" xmlns="http://www.w3.org/2000/svg">
<path fill-rule="evenodd" clip-rule="evenodd" d="M59.2721 53.0913L66.5859 53.0913C66.5859 50.8502 67.0273 48.6311 67.8849 46.5607C68.7425 44.4902 69.9996 42.6089 71.5842 41.0242C73.1689 39.4396 75.0502 38.1825 77.1207 37.3249C79.1911 36.4673 81.4102 36.0259 83.6513 36.0259L83.6513 28.7121C80.4498 28.7121 77.2796 29.3427 74.3218 30.5679C71.364 31.7931 68.6764 33.5888 66.4126 35.8526C65.0041 37.2612 63.7768 38.8337 62.7553 40.5333C61.7339 38.8337 60.5066 37.2612 59.0981 35.8526C56.8342 33.5888 54.1467 31.7931 51.1889 30.5679C48.2311 29.3427 45.0609 28.7121 41.8594 28.7121L41.8594 36.0259C44.1004 36.0259 46.3196 36.4673 48.39 37.3249C50.4605 38.1825 52.3418 39.4396 53.9265 41.0242C55.5111 42.6089 56.7681 44.4902 57.6258 46.5607C58.4834 48.6311 58.9248 50.8502 58.9248 53.0913L59.2721 53.0913Z" fill="#141414"/>
<path d="M112.977 40.9163V28.5621H118.944V50.0769H113.215V46.1689H112.991C112.505 47.4296 111.697 48.4427 110.567 49.2085C109.447 49.9742 108.079 50.357 106.463 50.357C105.025 50.357 103.76 50.0302 102.667 49.3765C101.575 48.7229 100.72 47.7937 100.104 46.5891C99.4971 45.3845 99.189 43.9418 99.1796 42.261V28.5621H105.147V41.1964C105.156 42.4664 105.497 43.4702 106.169 44.2079C106.841 44.9456 107.743 45.3145 108.873 45.3145C109.592 45.3145 110.264 45.1511 110.89 44.8242C111.515 44.4881 112.019 43.9932 112.402 43.3395C112.794 42.6858 112.986 41.8781 112.977 40.9163Z" fill="#141414"/>
<path d="M122.139 58.145V28.5621H128.022V32.1759H128.288C128.549 31.5969 128.927 31.0086 129.422 30.411C129.927 29.804 130.58 29.2998 131.383 28.8982C132.196 28.4874 133.204 28.2819 134.409 28.2819C135.978 28.2819 137.425 28.6928 138.751 29.5145C140.077 30.327 141.137 31.5549 141.931 33.1984C142.724 34.8326 143.121 36.8822 143.121 39.3475C143.121 41.7474 142.734 43.7737 141.959 45.4266C141.193 47.07 140.147 48.3167 138.821 49.1664C137.504 50.0069 136.029 50.4271 134.395 50.4271C133.237 50.4271 132.252 50.2356 131.439 49.8528C130.636 49.4699 129.978 48.989 129.464 48.4101C128.951 47.8218 128.559 47.2288 128.288 46.6312H128.106V58.145H122.139ZM127.98 39.3195C127.98 40.5988 128.157 41.7147 128.512 42.6672C128.867 43.6196 129.38 44.362 130.053 44.8943C130.725 45.4172 131.542 45.6787 132.504 45.6787C133.475 45.6787 134.297 45.4125 134.969 44.8803C135.642 44.3387 136.15 43.5916 136.496 42.6391C136.851 41.6773 137.028 40.5708 137.028 39.3195C137.028 38.0775 136.855 36.985 136.51 36.0418C136.164 35.0987 135.656 34.361 134.983 33.8287C134.311 33.2964 133.484 33.0303 132.504 33.0303C131.533 33.0303 130.711 33.2871 130.039 33.8007C129.376 34.3143 128.867 35.0427 128.512 35.9858C128.157 36.9289 127.98 38.0402 127.98 39.3195Z" fill="#141414"/>
<path d="M145.522 58.145V28.5621H151.404V32.1759H151.671C151.932 31.5969 152.31 31.0086 152.805 30.411C153.309 29.804 153.963 29.2998 154.766 28.8982C155.579 28.4874 156.587 28.2819 157.792 28.2819C159.361 28.2819 160.808 28.6928 162.134 29.5145C163.46 30.327 164.52 31.5549 165.313 33.1984C166.107 34.8326 166.504 36.8822 166.504 39.3475C166.504 41.7474 166.117 43.7737 165.342 45.4266C164.576 47.07 163.53 48.3167 162.204 49.1664C160.887 50.0069 159.412 50.4271 157.778 50.4271C156.62 50.4271 155.635 50.2356 154.822 49.8528C154.019 49.4699 153.361 48.989 152.847 48.4101C152.334 47.8218 151.941 47.2288 151.671 46.6312H151.489V58.145H145.522ZM151.362 39.3195C151.362 40.5988 151.54 41.7147 151.895 42.6672C152.25 43.6196 152.763 44.362 153.436 44.8943C154.108 45.4172 154.925 45.6787 155.887 45.6787C156.858 45.6787 157.68 45.4125 158.352 44.8803C159.024 44.3387 159.533 43.5916 159.879 42.6391C160.234 41.6773 160.411 40.5708 160.411 39.3195C160.411 38.0775 160.238 36.985 159.893 36.0418C159.547 35.0987 159.038 34.361 158.366 33.8287C157.694 33.2964 156.867 33.0303 155.887 33.0303C154.916 33.0303 154.094 33.2871 153.422 33.8007C152.759 34.3143 152.25 35.0427 151.895 35.9858C151.54 36.9289 151.362 38.0402 151.362 39.3195Z" fill="#141414"/>
<path d="M178.709 50.4971C176.496 50.4971 174.591 50.0489 172.994 49.1524C171.407 48.2466 170.184 46.9673 169.325 45.3145C168.465 43.6523 168.036 41.6867 168.036 39.4175C168.036 37.2044 168.465 35.2621 169.325 33.5906C170.184 31.9191 171.393 30.6164 172.952 29.6826C174.521 28.7488 176.361 28.2819 178.471 28.2819C179.891 28.2819 181.212 28.5107 182.435 28.9683C183.668 29.4165 184.742 30.0935 185.657 30.9993C186.581 31.9051 187.3 33.0443 187.814 34.417C188.327 35.7804 188.584 37.3772 188.584 39.2074V40.8462H170.417V37.1484H182.967C182.967 36.2893 182.781 35.5282 182.407 34.8652C182.034 34.2022 181.515 33.684 180.852 33.3105C180.199 32.9276 179.438 32.7362 178.569 32.7362C177.663 32.7362 176.86 32.9463 176.16 33.3665C175.469 33.7774 174.927 34.333 174.535 35.0333C174.143 35.7243 173.942 36.4947 173.933 37.3445V40.8603C173.933 41.9248 174.129 42.8446 174.521 43.6196C174.923 44.3947 175.488 44.9923 176.216 45.4125C176.944 45.8328 177.808 46.0429 178.807 46.0429C179.47 46.0429 180.077 45.9495 180.628 45.7627C181.179 45.576 181.651 45.2958 182.043 44.9223C182.435 44.5488 182.734 44.0912 182.939 43.5496L188.458 43.9138C188.178 45.2398 187.604 46.3977 186.735 47.3875C185.876 48.368 184.765 49.1338 183.402 49.6847C182.048 50.2263 180.484 50.4971 178.709 50.4971Z" fill="#141414"/>
<path d="M190.9 50.0769V28.5621H196.685V32.316H196.909C197.302 30.9806 197.96 29.9721 198.884 29.2904C199.809 28.5994 200.873 28.2539 202.078 28.2539C202.377 28.2539 202.699 28.2726 203.045 28.3099C203.39 28.3473 203.694 28.3986 203.955 28.464V33.7587C203.675 33.6746 203.287 33.5999 202.792 33.5346C202.298 33.4692 201.845 33.4365 201.434 33.4365C200.556 33.4365 199.772 33.6279 199.081 34.0108C198.399 34.3843 197.857 34.9073 197.456 35.5796C197.064 36.2519 196.867 37.027 196.867 37.9048V50.0769H190.9Z" fill="#141414"/>
</svg>
