<svg width="223" height="80" viewBox="0 0 223 80" fill="none" xmlns="http://www.w3.org/2000/svg">
<path d="M93.0427 52.6613C91.2482 52.6613 89.614 52.3836 88.14 51.8282C86.6874 51.2728 85.4377 50.493 84.3909 49.489C83.3442 48.4636 82.5324 47.2353 81.9556 45.804C81.4002 44.3514 81.1225 42.7385 81.1225 40.9654C81.1225 39.1924 81.4002 37.5902 81.9556 36.1589C82.511 34.7063 83.3014 33.4779 84.3268 32.4739C85.3522 31.4485 86.5912 30.6581 88.0439 30.1027C89.4965 29.5473 91.1201 29.2696 92.9145 29.2696C94.2817 29.2696 95.5421 29.4405 96.6956 29.7823C97.8705 30.1241 98.9066 30.6368 99.8038 31.3204C100.722 31.9826 101.491 32.8264 102.111 33.8518C102.73 34.8772 103.179 36.0628 103.457 37.4086H98.6503C98.2017 36.2123 97.4753 35.3151 96.4713 34.717C95.4673 34.1188 94.2924 33.8197 92.9465 33.8197C92.028 33.8197 91.1948 34.0227 90.4471 34.4286C89.7208 34.8345 89.1013 35.3685 88.5886 36.0307C88.0973 36.693 87.7128 37.4513 87.4351 38.3058C87.1787 39.1603 87.0505 40.0469 87.0505 40.9654C87.0505 41.884 87.1787 42.7706 87.4351 43.6251C87.7128 44.4795 88.108 45.2486 88.6207 45.9322C89.1334 46.5944 89.7529 47.1285 90.4792 47.5344C91.2269 47.9402 92.06 48.1432 92.9786 48.1432C94.4526 48.1432 95.6382 47.8548 96.5354 47.278C97.454 46.6799 98.1589 45.7613 98.6503 44.5223H103.457C102.859 47.3635 101.684 49.4356 99.932 50.7387C98.2017 52.0204 95.9052 52.6613 93.0427 52.6613ZM104.628 28.4364H109.884V52.1807H104.628V28.4364ZM110.941 44.298C110.941 42.9949 111.187 41.8306 111.678 40.8052C112.17 39.7585 112.821 38.8826 113.633 38.1777C114.445 37.4513 115.385 36.9066 116.453 36.5434C117.521 36.1589 118.632 35.9667 119.785 35.9667C120.939 35.9667 122.05 36.1589 123.118 36.5434C124.186 36.9066 125.126 37.4513 125.938 38.1777C126.771 38.8826 127.433 39.7585 127.924 40.8052C128.416 41.8306 128.661 42.9949 128.661 44.298C128.661 45.6011 128.416 46.776 127.924 47.8227C127.433 48.8481 126.771 49.724 125.938 50.4503C125.126 51.1766 124.186 51.7321 123.118 52.1166C122.05 52.4797 120.939 52.6613 119.785 52.6613C118.632 52.6613 117.521 52.4797 116.453 52.1166C115.385 51.7321 114.445 51.1766 113.633 50.4503C112.821 49.724 112.17 48.8481 111.678 47.8227C111.187 46.776 110.941 45.6011 110.941 44.298ZM119.785 39.4274C119.23 39.4274 118.717 39.5448 118.247 39.7798C117.799 40.0148 117.403 40.3566 117.062 40.8052C116.72 41.2325 116.453 41.7452 116.26 42.3433C116.09 42.9415 116.004 43.593 116.004 44.298C116.004 45.0243 116.09 45.6865 116.26 46.2847C116.453 46.8828 116.72 47.3955 117.062 47.8227C117.403 48.25 117.799 48.5918 118.247 48.8481C118.717 49.0831 119.23 49.2006 119.785 49.2006C120.917 49.2006 121.825 48.752 122.509 47.8548C123.214 46.9362 123.566 45.7506 123.566 44.298C123.566 42.8667 123.214 41.7024 122.509 40.8052C121.825 39.8866 120.917 39.4274 119.785 39.4274ZM136.455 52.6613C135.237 52.6613 134.201 52.4904 133.347 52.1486C132.492 51.8068 131.787 51.3475 131.232 50.7708C130.698 50.1726 130.303 49.489 130.046 48.72C129.811 47.9296 129.694 47.0964 129.694 46.2206V36.4473H134.949V44.0096C134.949 44.565 134.981 45.1418 135.045 45.7399C135.13 46.3167 135.259 46.8508 135.429 47.3421C135.6 47.8121 135.835 48.1966 136.134 48.4957C136.455 48.7947 136.85 48.9443 137.32 48.9443C137.811 48.9443 138.228 48.7734 138.57 48.4316C138.912 48.0898 139.179 47.6412 139.371 47.0857C139.584 46.5303 139.734 45.9108 139.819 45.2272C139.926 44.5223 139.98 43.8173 139.98 43.1124V36.4473H145.267V52.1807H142.543L141.87 47.4703H141.55C141.55 47.983 141.464 48.5491 141.293 49.1686C141.123 49.7667 140.834 50.3221 140.428 50.8348C140.022 51.3475 139.499 51.7855 138.858 52.1486C138.217 52.4904 137.416 52.6613 136.455 52.6613ZM154.088 52.6613C153.233 52.6613 152.347 52.5225 151.428 52.2448C150.509 51.967 149.666 51.5078 148.897 50.8669C148.149 50.2046 147.529 49.3395 147.038 48.2714C146.568 47.2032 146.333 45.8788 146.333 44.298C146.333 42.7172 146.568 41.3927 147.038 40.3246C147.529 39.2565 148.149 38.402 148.897 37.7611C149.666 37.1202 150.509 36.6609 151.428 36.3832C152.347 36.1055 153.233 35.9667 154.088 35.9667C155.54 35.9667 156.779 36.3298 157.805 37.0561C158.851 37.7825 159.524 38.7224 159.823 39.876H160.144V28.4364H165.143V52.1807H161.265L160.4 47.4062H160.08C159.952 48.0898 159.706 48.752 159.343 49.3929C158.98 50.0124 158.531 50.5678 157.997 51.0591C157.484 51.5505 156.897 51.935 156.234 52.2127C155.572 52.5118 154.857 52.6613 154.088 52.6613ZM155.53 39.0428C154.889 39.0428 154.323 39.1817 153.831 39.4594C153.361 39.7371 152.966 40.1216 152.646 40.613C152.347 41.0829 152.112 41.6384 151.941 42.2792C151.791 42.9201 151.716 43.593 151.716 44.298C151.716 45.0243 151.791 45.7079 151.941 46.3487C152.112 46.9896 152.347 47.5557 152.646 48.0471C152.966 48.517 153.361 48.8909 153.831 49.1686C154.323 49.4463 154.889 49.5851 155.53 49.5851C156.363 49.5851 157.046 49.4249 157.58 49.1045C158.136 48.7627 158.574 48.3248 158.894 47.7907C159.236 47.2353 159.471 46.6265 159.599 45.9642C159.749 45.2806 159.823 44.5864 159.823 43.8814C159.823 43.2619 159.717 42.6637 159.503 42.087C159.311 41.4888 159.022 40.9654 158.638 40.5168C158.275 40.0682 157.826 39.7157 157.292 39.4594C156.758 39.1817 156.17 39.0428 155.53 39.0428ZM170.081 58.4932C169.312 58.4932 168.575 58.3437 167.87 58.0446C167.186 57.7669 166.567 57.3717 166.012 56.859C165.477 56.3677 165.04 55.7909 164.698 55.1287C164.356 54.4664 164.142 53.7508 164.057 52.9818H166.3C166.364 53.3235 166.481 53.6547 166.652 53.9751C166.823 54.2955 167.048 54.5839 167.325 54.8403C167.603 55.0966 167.934 55.2996 168.319 55.4491C168.725 55.62 169.184 55.7054 169.697 55.7054C170.188 55.7054 170.658 55.6093 171.106 55.4171C171.555 55.2462 171.961 55.0005 172.324 54.6801C172.687 54.3596 172.986 53.9858 173.221 53.5585C173.456 53.1313 173.606 52.672 173.67 52.1807H171.074L165.371 36.4473H170.626L174.311 48.1752H174.92L178.669 36.4473H183.924L178.028 52.0525C177.579 53.2701 177.034 54.2849 176.394 55.0966C175.774 55.9298 175.112 56.592 174.407 57.0833C173.702 57.596 172.976 57.9592 172.228 58.1728C171.48 58.3864 170.765 58.4932 170.081 58.4932Z" fill="#141414"/>
<path d="M64.76 43.4271C63.1348 44.3653 61.2315 44.7021 59.383 44.3788C57.5345 44.0554 55.8586 43.0924 54.6484 41.6582C55.3995 40.7687 56.3357 40.0538 57.3916 39.5634C58.4475 39.0731 59.5977 38.819 60.7619 38.819C61.9262 38.819 63.0764 39.0731 64.1323 39.5634C65.1882 40.0538 66.1243 40.7687 66.8755 41.6582C67.9358 40.4004 68.5826 38.8463 68.7279 37.2075C68.8732 35.5688 68.5098 33.9251 67.6872 32.5004C66.8647 31.0756 65.6229 29.9391 64.1312 29.2455C62.6394 28.5518 60.9701 28.3349 59.3505 28.6242C59.745 29.7196 59.8957 30.8878 59.7923 32.0474C59.6888 33.207 59.3336 34.3301 58.7514 35.3383C58.1692 36.3465 57.3741 37.2155 56.4215 37.8848C55.4689 38.5541 54.3818 39.0075 53.2359 39.2135C52.8413 38.1181 52.6904 36.9499 52.7938 35.7902C52.8972 34.6305 53.2524 33.5074 53.8346 32.4991C54.4168 31.4909 55.212 30.6218 56.1647 29.9525C57.1173 29.2833 58.2046 28.83 59.3505 28.6242C58.7926 27.075 57.7702 25.7356 56.4229 24.7888C55.0756 23.842 53.4691 23.334 51.8224 23.334C50.1757 23.334 48.5691 23.842 47.2218 24.7888C45.8746 25.7356 44.8522 27.075 44.2942 28.6242C45.4401 28.8301 46.5272 29.2835 47.4798 29.9528C48.4323 30.6222 49.2274 31.4912 49.8095 32.4995C50.3916 33.5077 50.7467 34.6308 50.85 35.7904C50.9533 36.95 50.8024 38.1182 50.4077 39.2135C49.2622 39.0073 48.1754 38.5536 47.2233 37.884C46.2712 37.2145 45.4766 36.3453 44.895 35.3371C44.3134 34.3288 43.9588 33.2058 43.856 32.0464C43.7532 30.887 43.9046 29.7191 44.2996 28.6242C42.68 28.3346 41.0105 28.5513 39.5186 29.2448C38.0266 29.9383 36.7846 31.0749 35.9619 32.4997C35.1392 33.9246 34.7757 35.5683 34.921 37.2072C35.0662 38.8461 35.7132 40.4003 36.7736 41.6582C37.5249 40.7687 38.4611 40.0538 39.5171 39.5634C40.5731 39.073 41.7234 38.8189 42.8877 38.8189C44.052 38.8189 45.2023 39.073 46.2583 39.5634C47.3143 40.0538 48.2505 40.7687 49.0018 41.6582C48.2505 42.5478 47.3143 43.2627 46.2583 43.7531C45.2023 44.2434 44.052 44.4975 42.8877 44.4975C41.7234 44.4975 40.5731 44.2434 39.5171 43.7531C38.4611 43.2627 37.5249 42.5478 36.7736 41.6582C35.7128 42.9161 35.0655 44.4705 34.92 46.1095C34.7745 47.7486 35.1379 49.3927 35.9607 50.8177C36.7835 52.2428 38.0256 53.3795 39.5179 54.0731C41.0101 54.7666 42.6799 54.9832 44.2996 54.6933C43.9046 53.5981 43.7534 52.4298 43.8565 51.2701C43.9597 50.1103 44.3147 48.9871 44.8969 47.9787C45.479 46.9704 46.2742 46.1013 47.227 45.432C48.1798 44.7628 49.2671 44.3096 50.4132 44.1041C50.8072 45.1994 50.9577 46.3674 50.8541 47.5268C50.7505 48.6862 50.3953 49.8091 49.8134 50.8172C49.2314 51.8253 48.4365 52.6943 47.4843 53.3637C46.532 54.0332 45.4452 54.4869 44.2996 54.6933C44.8576 56.2426 45.88 57.582 47.2273 58.5287C48.5745 59.4755 50.1811 59.9836 51.8278 59.9836C53.4745 59.9836 55.0811 59.4755 56.4283 58.5287C57.7756 57.582 58.798 56.2426 59.356 54.6933C58.2102 54.4872 57.1232 54.0337 56.1707 53.3644C55.2182 52.695 54.4232 51.826 53.841 50.8178C53.2589 49.8097 52.9036 48.6867 52.8001 47.5271C52.6965 46.3676 52.8471 45.1994 53.2414 44.1041C54.3872 44.31 55.4744 44.7634 56.4269 45.4327C57.3795 46.102 58.1746 46.9711 58.7568 47.9793C59.339 48.9875 59.6942 50.1105 59.7977 51.2701C59.9012 52.4297 59.7504 53.598 59.356 54.6933C60.9752 54.9815 62.6439 54.7636 64.135 54.0694C65.626 53.3752 66.8669 52.2384 67.6887 50.8138C68.5106 49.3891 68.8734 47.7458 68.7279 46.1076C68.5824 44.4693 67.9355 42.9157 66.8755 41.6582C66.2783 42.3662 65.5625 42.9647 64.76 43.4271Z" fill="#141414"/>
</svg>
