<svg width="184" height="80" viewBox="0 0 184 80" fill="none" xmlns="http://www.w3.org/2000/svg">
<path d="M72.0852 53.3245C70.3101 53.3245 68.668 53.0249 67.1592 52.4258C65.6725 51.8267 64.3744 50.9835 63.265 49.8963C62.1777 48.7868 61.3234 47.4776 60.7021 45.9688C60.103 44.4377 59.8034 42.7513 59.8034 40.9096C59.8034 38.4688 60.3249 36.3386 61.3678 34.5191C62.4107 32.6774 63.853 31.2462 65.6947 30.2255C67.5586 29.2048 69.6777 28.6944 72.0519 28.6944C74.4705 28.6944 76.6007 29.2048 78.4424 30.2255C80.2841 31.2462 81.7264 32.6774 82.7693 34.5191C83.8344 36.3608 84.3669 38.5021 84.3669 40.9429C84.3669 42.7624 84.0563 44.4377 83.435 45.9688C82.8359 47.4776 81.9816 48.7868 80.8721 49.8963C79.7849 50.9835 78.4868 51.8267 76.9779 52.4258C75.4912 53.0249 73.8603 53.3245 72.0852 53.3245ZM72.0519 49.2639C73.4498 49.2639 74.6813 48.9088 75.7464 48.1988C76.8115 47.4887 77.6436 46.5124 78.2427 45.2698C78.864 44.005 79.1747 42.5405 79.1747 40.8763C79.1747 39.2343 78.8751 37.8031 78.276 36.5827C77.6769 35.3623 76.8448 34.4192 75.7797 33.7536C74.7146 33.0879 73.472 32.755 72.0519 32.755C70.654 32.755 69.4225 33.0879 68.3574 33.7536C67.2923 34.4192 66.4602 35.3623 65.8611 36.5827C65.2842 37.7809 64.9957 39.2121 64.9957 40.8763C64.9957 42.5627 65.2953 44.0383 65.8944 45.3031C66.4935 46.5457 67.3256 47.522 68.3907 48.2321C69.4558 48.9199 70.6762 49.2639 72.0519 49.2639Z" fill="#141414"/>
<path d="M86.359 52.9917V36.0169H91.2518V40.0109H91.3516V52.9917H86.359ZM91.3516 44.1381L90.9189 40.1108C91.3183 38.6685 91.9729 37.5701 92.8827 36.8157C93.7924 36.0612 94.9241 35.684 96.2776 35.684C96.6992 35.684 97.0099 35.7284 97.2096 35.8172V40.4769C97.0986 40.4325 96.9433 40.4103 96.7436 40.4103C96.5439 40.3882 96.2998 40.3771 96.0114 40.3771C94.4137 40.3771 93.2377 40.6655 92.4833 41.2424C91.7288 41.7972 91.3516 42.7624 91.3516 44.1381Z" fill="#141414"/>
<path d="M108.973 53.3245C107.354 53.3245 106.033 52.9473 105.013 52.1928C104.014 51.4384 103.426 50.4066 103.249 49.0974L103.515 49.0642V52.9917H98.6221V29.0272H103.615V39.7779L103.315 39.7114C103.559 38.4688 104.203 37.4925 105.246 36.7824C106.311 36.0502 107.642 35.684 109.24 35.684C110.771 35.684 112.091 36.0502 113.2 36.7824C114.332 37.4925 115.197 38.5021 115.797 39.8112C116.418 41.1204 116.729 42.6626 116.729 44.4377C116.729 46.235 116.407 47.7994 115.763 49.1307C115.12 50.4621 114.221 51.4939 113.067 52.2261C111.913 52.9584 110.549 53.3245 108.973 53.3245ZM107.575 49.3304C108.751 49.3304 109.706 48.9088 110.438 48.0656C111.17 47.2224 111.536 46.0242 111.536 44.471C111.536 42.9177 111.159 41.7306 110.405 40.9096C109.672 40.0886 108.707 39.6781 107.509 39.6781C106.355 39.6781 105.401 40.0997 104.646 40.9429C103.914 41.7639 103.548 42.951 103.548 44.5043C103.548 46.0575 103.914 47.2557 104.646 48.0989C105.401 48.9199 106.377 49.3304 107.575 49.3304Z" fill="#141414"/>
<path d="M118.393 52.9917V36.0169H123.386V52.9917H118.393ZM118.227 33.7536V28.3616H123.552V33.7536H118.227Z" fill="#141414"/>
<path d="M134.161 53.3578C131.986 53.3578 130.366 52.8363 129.301 51.7934C128.258 50.7283 127.737 49.1196 127.737 46.9673V32.2225L132.729 30.3586V47.1337C132.729 47.8881 132.94 48.454 133.362 48.8312C133.783 49.2084 134.438 49.397 135.326 49.397C135.658 49.397 135.969 49.3637 136.258 49.2971C136.546 49.2306 136.834 49.1529 137.123 49.0642V52.8585C136.834 53.0138 136.424 53.1359 135.891 53.2246C135.381 53.3134 134.804 53.3578 134.161 53.3578ZM124.575 39.8112V36.0169H137.123V39.8112H124.575Z" fill="#141414"/>
<path d="M149.476 52.9917C149.343 52.5035 149.243 51.982 149.176 51.4273C149.132 50.8726 149.11 50.2291 149.11 49.4968H148.976V41.4754C148.976 40.7876 148.743 40.255 148.277 39.8778C147.834 39.4784 147.168 39.2787 146.28 39.2787C145.437 39.2787 144.76 39.4229 144.25 39.7114C143.762 39.9998 143.44 40.4214 143.285 40.9762H138.525C138.747 39.4451 139.535 38.1803 140.888 37.1818C142.242 36.1833 144.095 35.684 146.447 35.684C148.888 35.684 150.752 36.2277 152.039 37.3149C153.326 38.4022 153.969 39.9666 153.969 42.008V49.4968C153.969 50.0516 154.002 50.6174 154.069 51.1943C154.158 51.7491 154.291 52.3482 154.468 52.9917H149.476ZM143.551 53.3245C141.865 53.3245 140.522 52.9029 139.524 52.0597C138.525 51.1943 138.026 50.0516 138.026 48.6315C138.026 47.056 138.614 45.7912 139.79 44.8371C140.988 43.8608 142.653 43.2284 144.783 42.9399L149.742 42.241V45.1367L145.615 45.7691C144.727 45.9022 144.073 46.1463 143.651 46.5013C143.229 46.8563 143.019 47.3445 143.019 47.9658C143.019 48.5205 143.218 48.9421 143.618 49.2306C144.017 49.519 144.55 49.6633 145.215 49.6633C146.258 49.6633 147.146 49.3859 147.878 48.8312C148.61 48.2542 148.976 47.5886 148.976 46.8341L149.442 49.4968C148.954 50.7616 148.211 51.7158 147.212 52.3593C146.214 53.0028 144.993 53.3245 143.551 53.3245Z" fill="#141414"/>
<path d="M156.808 52.9917V29.0272H161.8V52.9917H156.808Z" fill="#141414"/>
<rect x="8.88095" y="21.0959" width="38.8312" height="38.8312" rx="19.4156" fill="#141414"/>
<path d="M32.9125 51.6075C31.8804 51.6075 30.8585 51.4042 29.9051 51.0093C28.9516 50.6143 28.0853 50.0355 27.3555 49.3057C26.6258 48.576 26.0469 47.7096 25.652 46.7562C25.257 45.8027 25.0538 44.7808 25.0538 43.7488L32.9125 43.7488L32.9125 51.6075Z" fill="white"/>
<path d="M25.0583 43.7488C24.0263 43.7488 23.0044 43.5456 22.0509 43.1506C21.0975 42.7557 20.2311 42.1768 19.5014 41.4471C18.7716 40.7173 18.1928 39.851 17.7978 38.8975C17.4029 37.9441 17.1996 36.9222 17.1996 35.8901L25.0583 35.8901L25.0583 43.7488Z" fill="white"/>
<path d="M40.7778 43.7498C40.7778 42.7178 40.5745 41.6959 40.1796 40.7424C39.7846 39.789 39.2057 38.9226 38.476 38.1929C37.7463 37.4631 36.8799 36.8843 35.9265 36.4893C34.973 36.0944 33.9511 35.8911 32.9191 35.8911V43.7498H40.7778Z" fill="white"/>
<path d="M32.9171 35.8892C32.9171 34.8572 32.7138 33.8353 32.3189 32.8818C31.924 31.9284 31.3451 31.062 30.6153 30.3323C29.8856 29.6025 29.0193 29.0237 28.0658 28.6287C27.1123 28.2338 26.0904 28.0305 25.0584 28.0305V35.8892H32.9171Z" fill="white"/>
</svg>
