<svg width="636" height="636" viewBox="0 0 636 636" fill="none" xmlns="http://www.w3.org/2000/svg">
<path d="M636 0H0.000244141V636H636V0Z" fill="white"/>
<path d="M333.185 225.613C331.869 225.139 328.056 226.23 326.385 226.421L326.088 227.01L326.803 228.097C327.226 228.431 327.579 228.706 328.124 228.822C329.249 229.063 330.737 228.61 331.664 227.964C332.731 227.222 332.891 226.799 333.185 225.613Z" fill="#141414"/>
<path d="M481.127 64.384C476.747 65.059 472.74 66.5262 468.539 67.8694C465.722 68.7701 462.507 69.4745 460.223 71.4258C459.93 72.3148 460.016 72.319 460.387 73.1947C461.123 73.6547 461.246 73.8132 462.132 73.7015C464.797 73.3655 467.76 72.0873 470.279 71.1558C472.88 70.1937 475.913 69.3018 478.191 67.6723C479.348 66.8448 480.265 65.5065 481.127 64.384Z" fill="#141414"/>
<path d="M287.904 31.2099L287.093 31.0469L286.48 31.4597C286.177 32.1789 286.039 32.3792 286.14 33.1411C286.801 38.091 289.415 42.7223 291.262 47.3072C292.39 50.109 293.732 55.7906 296.106 57.5867L297.193 57.8082C297.511 57.6012 297.786 57.5635 297.838 57.148C298.054 55.3846 289.327 33.5476 287.904 31.2099Z" fill="#141414"/>
<path d="M253.455 80.8975L253.116 80.8667C252.202 80.8901 251.705 81.3957 251.078 81.9686C250.869 82.5917 250.872 83.0303 251.096 83.6581C251.855 85.7897 254.286 87.7084 255.857 89.2686L262.244 95.4017C264.031 97.0662 265.561 98.6744 267.798 99.7253C268.673 99.7386 269.19 99.8843 269.935 99.4024C270.087 98.744 269.993 98.1776 269.736 97.559C267.725 92.7086 263.257 88.6169 259.413 85.2125C257.538 83.5512 255.809 81.8641 253.455 80.8975Z" fill="#141414"/>
<path d="M380.882 21.6125C378.949 23.5397 377.472 25.7801 375.936 28.0252C372.413 33.1787 369.672 38.3157 366.72 43.7871C365.599 45.8665 363.921 48.1532 363.473 50.5042C363.315 51.3344 363.553 51.3511 363.996 52.0166L364.893 52.4982C365.377 52.4328 365.753 52.3462 366.151 52.0412C368.1 50.5458 369.553 47.5281 370.779 45.4364C373.73 40.4024 376.709 35.3464 378.789 29.8743C379.81 27.189 380.444 24.4449 380.882 21.6125Z" fill="#141414"/>
<path d="M407.205 251.698L406.423 251.768C404.542 254.035 406.692 256.459 406.349 258.945C406.272 259.507 405.708 260.051 405.349 260.457C402.698 263.455 398.581 265.44 395.316 267.73C393.061 269.312 389.157 272.065 388.81 274.973C388.691 275.966 389.26 277.164 389.891 277.893L390.824 277.56L398.694 273.309C402.765 271.264 408.07 269.456 409.804 264.844C411.071 261.479 408.765 254.862 407.205 251.698Z" fill="#141414"/>
<path d="M154.574 314.299C153.667 314.259 152.142 314.047 151.308 314.414C150.207 314.898 149.209 315.799 148.731 316.913C147.582 319.592 148.168 323.474 149.222 326.107C150.468 329.228 152.074 331.097 155.177 332.424C156.089 332.524 157.018 332.501 157.914 332.279C159.16 331.971 160.491 331.063 161.057 329.887C162.235 327.441 161.387 322.223 160.396 319.857C159.185 316.969 157.332 315.504 154.574 314.299Z" fill="#141414"/>
<path d="M154.209 318.777L153.406 318.657C152.784 319.101 152.51 319.644 152.315 320.369C151.779 322.352 153.565 326.409 154.497 328.216L155.118 328.229C155.967 326.506 156.951 323.344 156.413 321.465C156.047 320.189 155.305 319.452 154.209 318.777Z" fill="white"/>
<path d="M349.614 294.73C341.015 298.718 334.753 307.807 328.344 314.543C323.36 319.783 318.157 324.689 312.335 328.991C306.305 333.448 299.218 337.734 292.106 340.204L285.584 342.132C283.89 342.554 281.994 342.803 280.516 343.765L281.2 344.238C283.224 344.773 285.292 345.177 287.392 344.912C291.488 344.394 295.514 342.712 299.242 341.004C311.116 335.564 320.233 327.779 329.264 318.514C336.609 310.98 343.224 303.08 349.614 294.73Z" fill="#141414"/>
<path d="M406.064 247.351C404.633 247.375 403.069 248.407 401.846 249.086L395.326 252.787C387.808 257.028 380.677 260.413 372.171 262.268C369.608 262.827 366.903 263.14 364.286 263.323C361.896 263.489 356.751 262.689 354.835 263.885C354.287 264.227 354.173 264.908 354.086 265.517C353.32 270.893 355.206 278.362 358.601 282.583C362.052 286.872 365.955 288.429 371.29 289.054L373.588 288.812C374.363 288.598 374.782 288.275 375.106 287.566C374.138 286.454 371.087 286.178 369.706 285.724C368.322 285.27 366.978 284.607 365.751 283.823C359.3 279.697 360.168 273.901 358.701 267.338C366.479 267.445 373.23 266.415 380.692 264.171C387.606 262.092 394.253 258.699 400.442 255.009C402.792 253.609 405.435 252.317 406.77 249.835C406.769 248.557 406.952 248.329 406.064 247.351Z" fill="#141414"/>
<path d="M501.134 589.256L437.753 589.416L412.096 589.195C410.873 589.227 410.016 589.283 409.068 590.062L409.069 590.934C410.671 592.367 414.896 592.327 416.987 592.493L483.613 593.41C487.159 593.399 505.778 593.853 507.983 592.058C508.779 591.409 509.26 590.887 509.292 589.883C507.539 588.861 503.244 589.303 501.134 589.256Z" fill="#141414"/>
<path d="M614.277 215.892C610.777 218.566 609.262 222.343 607.704 226.332L603.237 239.653L590.669 287.445L578.769 346.011C576.316 355.872 573.939 366.255 568.411 374.932C565.84 378.967 562.309 383.437 557.959 385.66C556.413 386.451 554.591 386.829 553.239 387.932L553.416 388.649L554.441 389.017C557.208 389.698 561.04 388.375 563.288 386.878C565.316 385.528 567.048 383.528 568.541 381.621C573.052 375.855 576.298 368.771 578.679 361.881C583.572 347.72 585.74 332.701 588.259 317.991L596.13 278.797L606.706 239.793C609.159 231.939 612.817 223.961 614.277 215.892Z" fill="#141414"/>
<path d="M372.013 589.214L346.173 589.137L297.407 589.102L224.541 589.323L191.888 589.629C189.192 589.766 185.084 589.667 182.805 591.211L182.887 591.746C183.977 592.464 185.108 592.6 186.365 592.817L193.344 593.554L223.748 594.053L278.639 594.003L336.419 594.069C347.171 594.064 358.159 594.529 368.874 593.805C370.962 593.664 373.409 593.572 375.041 592.132C375.171 591.199 375.154 591.061 374.786 590.195C373.962 589.463 373.056 589.396 372.013 589.214Z" fill="#141414"/>
<path d="M571.971 574.977L294.693 575.667C293.356 575.768 292.865 575.959 291.989 576.996C292.007 578.166 292.222 578.615 293.091 579.407C294.966 581.118 317.218 580.331 321.261 580.328L597.673 579.973C599.257 579.875 600.29 579.81 601.408 578.549L601.111 578.046C597.326 576.603 593.42 576.281 589.413 575.904L571.971 574.977Z" fill="#141414"/>
<path d="M94.4602 513.859C85.7582 516.47 77.3809 517.335 68.3353 517.428C63.3856 517.479 58.4069 517.395 53.5102 516.602L47.5138 515.486C46.0074 515.128 43.1512 513.924 41.7144 514.106C41.0064 514.195 40.3447 514.883 39.9886 515.473C39.2243 516.741 39.4147 518.869 39.6317 520.269L39.7153 520.787C40.5012 525.974 42.6668 530.285 45.4998 534.651C54.0203 547.777 69.8922 553.561 84.5285 556.572C87.1569 557.113 93.0474 558.608 95.2957 557.121C95.3388 556.318 95.2552 556.189 94.8717 555.471C94.2879 555.123 93.844 554.837 93.3927 554.326C95.0779 550.586 94.1505 545.606 93.9683 541.538C93.6006 536.665 92.7898 531.11 91.2064 526.482C90.4504 524.273 89.3299 522.115 88.3461 519.996L92.5695 518.47C92.3261 519.645 92.1083 520.83 92.2922 522.029C92.7211 524.819 93.9741 527.782 94.7252 530.524C95.8589 534.666 96.4882 538.856 98.1163 542.852C98.5983 541.399 99.1598 539.862 99.3262 538.332C99.9539 532.582 97.5607 526.289 96.2092 520.717C98.3151 522.605 100.169 525.018 102.02 527.161C103.97 529.42 106.143 531.662 107.726 534.197C107.994 534.627 108.46 535.249 108.628 535.715C108.817 536.238 108.681 537.539 108.711 538.135C108.888 541.582 109.153 544.706 108.38 548.115L108.847 548.505L109.586 548.1C111.257 545.391 111.546 542.018 111.556 538.907C111.561 537.359 111.735 535.527 111.159 534.074C109.951 531.024 106.605 527.973 104.479 525.459C101.195 521.58 98.0385 517.468 94.4602 513.859Z" fill="#141414"/>
<path d="M84.7058 520.717L81.0587 521.211C82.2794 525.095 83.0644 529.095 83.7601 533.101L86.0995 546.219C86.608 548.653 86.8738 551.423 88.6609 553.278L91.6562 554.54C90.9523 548.261 90.39 541.883 89.0907 535.693C88.0083 530.538 86.4473 525.675 84.7058 520.717Z" fill="white"/>
<path d="M77.4241 521.65L71.7382 521.99C72.2972 524.943 72.2691 527.968 72.5084 530.954L73.6752 545.476L73.2893 545.844C72.5134 545.702 71.624 545.572 71.0617 544.963C69.764 543.558 69.4245 540.776 69.1354 538.92C68.2626 533.317 67.9951 527.954 68.0125 522.289L62.1353 522.314C62.4202 524.047 62.3829 525.935 62.4624 527.697C62.6976 532.528 63.1373 537.14 65.5356 541.438C68.328 546.443 74.4893 549.386 79.7818 550.887C79.9773 541.283 78.3856 531.211 77.4241 521.65Z" fill="white"/>
<path d="M137.951 522.495L137.625 522.529C137.458 522.594 137.267 522.659 137.164 522.805C136.531 523.715 136.218 533.494 136.012 535.227C135.781 537.165 135.417 539.115 134.933 541.005C134.536 541.239 133.376 541.742 133.132 542.059C132.345 543.082 131.786 545.481 131.256 546.741C130.329 548.942 129.054 551.071 127.573 552.945C124.544 556.775 120.221 560.025 116.251 562.805C113.911 564.444 111.317 565.977 108.621 566.944C101.464 569.509 93.5791 570.003 86.6882 573.369C83.6498 574.853 79.3668 577.46 78.2737 580.878C77.8091 582.332 77.9449 584.008 78.6794 585.357C80.7108 589.085 85.8212 590.347 89.5734 591.503L79.4189 591.844C77.9084 591.896 75.9706 591.756 74.7889 592.834L74.9322 593.299C76.663 594.16 79.3784 594.006 81.2872 594.041L94.7128 594.066C104.608 593.774 114.346 593.384 124.063 591.284C127.495 590.543 131.113 589.705 134.29 588.193L134.698 587.996L137.335 588.89C138.698 589.246 140.904 589.421 142.135 588.722L142.139 587.399C141.118 586.186 139.942 586.355 138.417 586.123C143.644 584.02 148.053 581.705 152.168 577.781L150.93 582.727C152.34 582.849 153.567 582.752 154.963 582.534C155.512 582.105 155.632 582.109 155.901 581.411C156.547 579.734 156.243 577.306 156.247 575.5C156.262 568.832 156.579 560.519 153.854 554.3C151.586 549.123 142.897 544.298 137.904 542.243C139.2 537.662 139.456 532.435 139.336 527.695C139.286 525.708 139.482 523.942 137.951 522.495Z" fill="#141414"/>
<path d="M134.969 546.764C133.697 548.667 132.853 550.873 131.65 552.835C129.014 557.137 125.4 560.533 121.796 564.002L121.837 564.418L122.649 564.334C124.335 564.249 125.868 565.369 127.212 566.269C130.474 568.452 133.842 570.787 136.769 573.404C135.394 574.43 134.112 575.089 132.546 575.754C129.795 574.554 127.561 572.428 125.224 570.585L119.414 566.258L113.562 569.424C115.769 570.026 117.73 570.937 119.64 572.183C121.874 573.639 128.276 577.593 128.838 580.257L127.806 581.188C124.259 581.871 119.241 576.718 116.231 574.897C114.741 573.996 111.953 572.277 110.218 572.121C108.773 571.991 105.86 573.087 104.384 573.448C109.145 574.256 112.151 575.418 116.337 577.793C117.937 578.643 119.255 579.506 120.455 580.878C120.486 581.838 120.602 581.982 120.027 582.729C117.783 583.368 115.156 583.199 112.837 583.214L95.164 582.563C93.0192 582.51 89.5469 582.045 87.9751 583.548L88.0397 584.216C89.1427 585.139 90.5563 585.479 91.9227 585.847C96.5685 587.095 101.668 587.309 106.462 587.41C116.603 587.627 127.925 586.219 137.151 581.853C142.677 579.238 147.868 575.3 152.281 571.091C152.909 566.739 152.311 560.82 151.52 556.49C151.281 555.184 140.87 550.325 139.046 549.339C137.628 548.572 136.297 547.675 134.969 546.764Z" fill="white"/>
<path d="M131.173 558.419C130.306 558.294 129.588 558.317 128.722 558.383C128.004 559.011 127.762 559.262 127.516 560.226C128.479 561.943 141.042 566.92 143.343 567.694C144.116 567.904 144.555 567.865 145.336 567.703C145.999 567.192 146.287 566.907 146.603 566.127C145.373 563.872 133.674 559.275 131.173 558.419Z" fill="#141414"/>
<path d="M465.996 493.614C456.4 492.764 446.413 493.494 436.785 493.66L389.967 494.207L338.2 493.754C328.935 493.595 319.598 493.039 310.334 493.406C307.767 493.508 303.899 493.767 301.889 495.511C300.787 496.467 300.225 498.117 300.184 499.541C300.129 501.429 300.846 502.879 302.208 504.172C304.714 506.555 309.331 507.235 312.669 507.686C316.385 508.187 320.166 508.194 323.909 508.321L342.469 508.688L384.091 508.667L384.142 521.519C384.151 522.134 384.424 524.786 384.202 525.223C383.981 525.66 381.954 526.777 381.484 527.124C379.793 528.367 378.23 529.789 376.7 531.225L353.803 554.564L343.965 564.176C341.499 566.513 338.178 569.013 336.385 571.883C337.37 572.275 339.826 572.787 340.835 572.463L341.333 572.219C344.412 570.798 346.996 568.343 349.541 566.128C356.299 560.245 362.517 553.692 368.837 547.345C373.643 542.437 378.522 536.507 384.003 532.414L384.025 558.087C384.002 560.966 383.443 564.918 384.046 567.654C384.221 568.449 384.42 568.465 385.078 568.848C386.315 568.907 387.487 569.1 388.601 568.456C389.158 566.817 388.854 564.335 388.855 562.586L388.899 550.617L389.433 530.509L407.282 546.565C411.497 550.399 431.96 570.429 435.084 571.114C435.982 571.311 437.503 571.211 438.307 570.723C438.787 570.431 438.674 570.358 438.774 569.853C437.354 566.819 433.986 564.173 431.58 561.825L416.431 547.432C410.145 541.4 404.112 534.853 397.344 529.368C394.952 527.428 392.386 525.969 389.559 524.764L389.692 508.613L438.343 509.004C448.295 509.019 458.8 509.577 468.683 508.365C472.243 507.929 476.136 507.259 479.091 505.076C480.738 503.859 481.929 502.296 482.188 500.239C482.355 498.915 482.241 497.534 481.305 496.504C478.686 493.624 469.882 493.846 465.996 493.614Z" fill="#141414"/>
<path d="M391.556 112.21L388.649 112.093L388.532 112.574C390.357 114.248 392.905 115.15 394.976 116.53C399.959 119.849 403.761 124.543 404.913 130.515L405.012 131.051C405.977 135.993 405.145 141.964 403.081 146.533C402.694 145.115 402.745 143.528 402.635 142.063C402.368 138.54 401.468 135.384 399.878 132.228C397.111 126.734 392.119 123.266 386.362 121.435C377.995 118.775 368.191 120.523 360.532 124.499C359.896 123.757 359.243 122.998 358.495 122.368C356.773 120.92 354.616 119.862 352.626 118.842C343.222 114.015 331.61 111.919 321.081 112.783C313.204 113.43 305.93 117.256 300.868 123.31C296.557 128.467 294.319 135.749 294.904 142.434C296.08 155.884 304.815 166.657 316.409 173.038C320.12 175.082 324.625 176.478 327.865 179.202C326.132 184.009 324.807 190.332 321.429 194.202L312.818 192.459C311.646 192.341 310.018 187.019 307.875 186.148C307.694 186.391 307.615 186.459 307.531 186.794C306.687 190.163 309.919 202.217 312.075 205.026C312.545 205.637 313.079 205.529 313.808 205.639L314.062 206.047C313.719 206.496 313.417 206.922 313.166 207.432C312.741 208.296 312.655 209.407 312.57 210.352C312.542 210.668 312.376 211.579 312.458 211.872C312.833 213.217 315.277 214.864 316.459 215.514C317.015 215.819 317.756 216.012 317.987 216.606L317.223 217.1C315.434 223.443 317.986 233.212 321.14 238.853C324.435 244.748 330.3 248.924 336.747 250.737C347.749 253.831 359.418 251.573 369.255 246.034C376.231 242.106 382.721 236.287 386.928 229.438C387.828 227.972 388.955 226.197 389.319 224.502C389.587 223.258 389.36 222.877 388.73 221.886L388.028 221.834L382.076 229.879C373.822 239.814 362.664 246.813 349.617 247.988C341.396 248.728 334.29 247.156 327.865 241.788C320.943 234.709 320.649 226.131 319.909 216.773C322.751 217.312 325.781 217.678 328.67 217.283C332.471 216.762 335.3 214.997 337.537 211.901C340.024 208.462 339.497 204.086 338.902 200.15C342.039 201.097 345.138 201.824 348.445 201.757C355.653 201.612 360.39 196.802 363.675 190.847C364.69 189.006 365.407 186.96 366.901 185.448C367.261 185.083 367.657 184.746 367.934 184.309C368.139 183.985 368.316 183.769 368.178 183.378C367.735 182.118 366.109 180.866 365.134 179.988C361.237 176.483 356.655 172.722 351.734 170.764C350.292 170.19 346.983 169.976 345.98 169.253C345.132 168.642 344.76 167.267 344.643 166.297C345.438 165.557 346.627 165.464 347.657 165.226C349.857 164.717 352.06 164.162 354.193 163.416C357.174 162.374 359.959 160.62 362.95 159.715C367.259 160.962 371.134 162.92 374.179 166.293C385.885 179.266 367.423 189.837 367.097 202.897C367.05 204.822 367.576 206.891 369.024 208.244C370.647 209.76 372.857 210.134 374.985 209.939C383.569 209.15 386.579 199.883 391.095 194.24C392.532 194.577 393.844 195.028 395.114 195.8C396.434 196.602 398.308 198.129 398.581 199.753C399.104 202.869 397.089 207.048 395.178 209.479C393.331 211.829 391.148 213.727 388.24 214.621C385.121 215.58 381.083 215.274 377.795 215.637C380.083 217.025 382.151 217.997 384.783 218.54C389.356 219.481 392.339 217.94 396.082 215.487L396.726 216.224C399.121 218.548 402.91 219.866 406.196 219.858C412.185 219.842 417.685 216.669 421.768 212.468C426.688 207.404 431.455 199.302 431.278 192.046C431.159 187.174 429.249 184.797 425.84 181.602C432.029 181.786 438.388 180.069 443.274 176.165C448.182 172.244 451.308 166.659 451.925 160.395C452.546 154.088 450.373 147.469 446.297 142.639C441.94 137.476 435.765 134.273 429.02 133.723C421.179 133.083 414.632 134.661 408.571 139.787C409.486 134.017 409.301 129.279 406.566 123.998C403.384 117.854 398.008 114.228 391.556 112.21Z" fill="#141414"/>
<path d="M312.674 195.489L312.324 195.838L312.992 202.97L316.041 200.458L318.891 197.404C316.75 197.152 314.812 196.904 312.976 195.696L312.674 195.489Z" fill="white"/>
<path d="M339.472 170.335C337.304 169.877 334.841 170.247 332.631 170.333L322.865 170.527C324.588 171.716 326.016 173.038 327.49 174.519L329.514 177.202C331.638 174.868 333.753 173.299 336.789 172.362C338.023 171.981 339.302 171.833 340.515 171.375L340.552 170.956L339.472 170.335Z" fill="white"/>
<path d="M319.803 117.415C316.605 118.144 313.884 119.005 311.139 120.851C306.083 124.249 302.348 129.857 301.241 135.876C299.659 144.494 302.272 152.013 307.054 159.079C307.537 159.696 307.827 160.136 308.557 160.472C304.563 152.203 302.034 145.103 304.532 135.913C306.918 127.134 312.118 121.87 319.803 117.415Z" fill="white"/>
<path d="M427.838 138.312C422.509 137.334 415.905 139.523 411.491 142.358C416.515 140.863 420.421 139.801 425.76 140.339C427.529 140.517 429.235 140.982 430.883 141.651C435.614 143.571 439.176 147.862 441.05 152.508C443.223 157.896 441.998 163.511 439.796 168.652C437.991 171.97 435.912 174.229 433.228 176.851C435.59 176.001 437.805 175.094 439.827 173.561C443.966 170.421 447.115 165.493 447.727 160.294C448.316 155.279 446.474 150.061 443.404 146.132C439.283 140.858 434.293 139.09 427.838 138.312Z" fill="white"/>
<path d="M348.618 174.314L346.662 174.185C345.251 174.175 343.811 174.859 342.495 175.326C340.079 176.184 337.357 176.796 335.487 178.654C331.106 183.005 329.064 189.612 325.709 194.751C323.325 198.403 320.061 201.657 318.032 205.511C317.208 207.075 316.49 208.925 316.488 210.706C316.765 211.043 317.028 211.38 317.386 211.637C320.132 213.61 324.337 213.648 327.559 213.223C329.388 212.981 332.048 212.22 333.146 210.596C335.391 207.277 332.814 199.118 332.035 195.346C331.378 190.748 332.348 186.263 334.376 182.1C335.037 180.741 335.981 178.936 337.541 178.5C338.172 178.323 338.156 178.449 338.695 178.719C339.131 181.176 337.206 184.964 336.625 187.482C336.173 189.443 335.991 191.327 335.912 193.333C336.868 194.862 338.798 195.824 340.432 196.469C344.02 197.884 348.878 198.669 352.481 197.002C357.657 194.606 360.615 187.803 362.509 182.813L362.328 182.452C359.438 178.603 353.075 175.73 348.618 174.314Z" fill="white"/>
<path d="M612.423 208.17C607.428 208.339 603.111 209.771 599.057 212.703C595.171 215.514 591.733 219.19 589.183 223.253C585.688 228.821 583.411 235.117 581.254 241.295C576.724 254.265 573.12 268.214 570.858 281.773L549.981 280.037L562.735 243.469C564.714 238.119 567.062 232.872 568.662 227.391C569.036 226.11 569.633 224.13 569.157 222.835C568.694 221.577 567.025 220.361 565.806 219.943C560.774 218.222 552.864 220.956 548.443 223.427C532.507 232.335 523.02 250.562 516.262 266.799C512.661 275.451 509.512 284.217 506.976 293.244C500.351 316.822 495.733 341.447 493.814 365.868C492.95 376.87 492.451 387.754 493.018 398.791C493.394 406.14 493.957 415.775 497.773 422.263C499.479 425.162 501.715 425.931 504.801 426.692C505.817 426.805 506.838 426.878 507.824 427.157L507.779 427.519C507.045 432.921 505.184 439.315 501.738 443.659C492.787 454.939 473.494 455.941 460.202 456.355C458.299 456.414 453.925 456.043 452.529 457.125L452.681 457.811C454.012 459.276 455.978 459.729 457.902 459.917C470.333 461.132 491.428 458.639 501.271 450.36C508.085 444.629 510.627 435.201 511.234 426.606L511.26 426.184C516.052 425.904 521.149 424.238 525.519 422.32C534.034 418.582 540.915 410.68 545.005 402.469C547.993 396.466 549.512 389.813 551.176 383.35L556.071 364.765L563.932 335.348L575.732 286.324C579.611 270.974 583.763 255.534 589.477 240.744C592.574 232.726 595.706 225.664 601.941 219.574C603.941 217.621 606.117 215.725 608.664 214.514C611.305 213.26 614.239 212.963 616.901 211.787C617.652 210.884 617.674 210.94 617.626 209.774C616.082 208.571 614.299 208.39 612.423 208.17Z" fill="#141414"/>
<path d="M565.505 226.398L564.176 227.3C559.204 230.803 556.128 237.365 553.562 242.688C549.079 251.983 546.001 261.647 543.159 271.532L538.367 289.09L531.222 327.849L528.182 349.239L528.071 349.831L528.323 349.817C534.032 319.599 542.172 290.298 552.305 261.27L560.477 239.328C562.173 235.018 564.132 230.827 565.505 226.398Z" fill="white"/>
<path d="M551.671 284.279L549.049 284.136C546.85 293.051 543.415 301.738 540.968 310.612L533.396 343.936L527.737 369.98C524.222 386.243 520.871 401.555 523.177 418.277C526.875 416.452 529.935 414.082 533.038 411.392C537.301 407.516 540.466 402.609 542.653 397.301C545.547 390.276 547.213 382.851 548.952 375.478L554.182 353.028L559.653 329.917L569.32 285.763L551.671 284.279Z" fill="white"/>
<path d="M247.709 347.526C247.51 346.42 247.297 345.35 246.801 344.333C246.474 343.661 246.009 343.066 245.551 342.48C243.967 342.105 242.412 341.766 240.784 341.652L227.679 341.254C226.88 341.247 224.021 341.492 223.402 341.076C223.003 340.808 222.119 339.139 221.832 338.652L221.121 337.285L185.3 337.081C183.749 329.575 181.164 322.194 178.975 314.852C176.979 308.157 175.356 300.735 172.386 294.416L194.559 294.571L206.463 294.621C208.973 294.61 211.918 294.828 214.214 293.689C215.056 292.689 215.185 292.192 215.057 290.888C214.712 287.35 213.352 283.839 212.412 280.424L207.467 261.552L197.549 219.572L192.901 201.855C192.084 198.639 189.539 185.166 187.44 183.466C185.513 181.904 180.986 181.965 178.61 181.922L140.485 182.784L94.7533 183.067L69.927 182.895L63.7193 182.832C62.7322 182.823 61.3269 182.67 60.4019 182.979C59.5903 183.249 58.8392 184.048 58.4864 184.828C57.9954 185.914 58.0426 187.194 58.1568 188.35C58.9005 195.869 61.1331 203.518 62.7231 210.917L73.9823 258.54L78.9776 277.609C80.0781 281.557 81.1017 285.75 82.8267 289.469C83.6126 291.162 84.6286 292.374 86.4257 293.036C89.2554 294.079 93.2834 293.857 96.3036 293.973L115.684 294.467L120.652 310.803L125.73 329.09C126.69 332.108 127.759 335.757 129.964 338.093C130.888 338.296 130.974 338.365 131.828 337.99C132.252 335.951 130.088 331.505 129.505 329.395L119.791 295.87C118.28 291.187 117.133 286.503 114.806 282.131L165.919 286.052L177.452 322.452C179.223 328.043 180.517 333.877 182.624 339.352C183.087 340.555 183.7 341.562 184.493 342.569L97.8224 341.817L97.3139 341.291C97.5267 339.61 97.6128 338.666 99.0041 337.616C102.648 334.87 107.553 332.537 108.37 327.474C108.762 325.047 108.287 322.637 106.808 320.655C103.963 316.839 98.7648 315.941 94.3136 315.401C89.2538 314.788 81.7385 315.089 77.6153 318.415C73.6477 321.614 71.31 326.809 70.828 331.82C70.6574 333.59 70.5679 335.921 71.888 337.302L72.2027 337.602C73.0962 336.73 73.2569 334.888 73.5889 333.652C74.9612 328.546 77.3462 322.55 82.6072 320.388C85.1015 319.365 87.5644 319.249 90.2102 319.282L92.6971 319.33C90.4876 320.109 87.9561 320.891 86.0067 322.222C83.408 323.996 81.4636 326.987 80.127 329.791C78.3209 333.579 78.0128 337.173 78.272 341.302C69.5891 341.321 16.0251 340.586 12.8369 343.309C12.5918 343.519 12.5379 343.67 12.4021 343.93C12.6174 344.769 12.7657 344.78 13.521 345.215C15.1449 346.154 17.2044 346.433 19.0536 346.506L40.6263 346.675L78.9684 346.955L246.978 349.551C247.04 348.49 247.08 348.383 247.709 347.526Z" fill="#141414"/>
<path d="M184.724 187.001L62.5599 187.579C60.8233 191.418 79.4478 264.048 81.9869 273.475L86.6326 289.218L113.496 289.849L110.519 282.414L110.526 281.181C110.558 280.281 110.696 279.67 111.386 279.048C111.985 278.508 112.6 278.323 113.385 278.256C117.585 277.897 122.412 278.786 126.633 279.191L138.643 280L135.554 273.88C134.315 271.038 132.796 267.189 134.001 264.16L134.622 263.912C139.18 264.501 144.907 264.291 148.075 268.098C151.079 271.708 151.179 276.442 150.74 280.858C156.303 281.086 163.44 280.81 168.586 282.934C169.955 284.292 170.677 287.556 171.262 289.367C174.122 289.992 177.914 289.594 180.885 289.667L210.562 290.066L184.724 187.001Z" fill="white"/>
<path d="M85.1638 237.741C82.8558 237.611 80.3955 237.312 78.1024 237.591C77.7082 237.862 77.473 237.862 77.4059 238.376C77.179 240.111 77.7687 242.125 78.7235 243.564C80.5719 244.442 85.2002 243.86 87.3757 243.853L110.807 243.759C112.681 243.749 117.187 244.283 118.603 243.313C118.679 241.309 118.424 239.816 117.823 237.904L85.1638 237.741Z" fill="#141414"/>
<path d="M166.502 237.113L159.257 236.979C157.519 236.957 155.708 236.762 154.032 237.278C153.533 237.882 153.495 237.932 153.449 238.723C153.377 239.973 153.569 241.253 154.476 242.19C155.145 242.881 156.072 243.409 157.014 243.606C159.261 244.077 161.997 243.85 164.325 243.886L180.816 244.018L192.553 244.046C193.067 241.866 193.327 240.125 192.784 237.924C191.397 236.989 170.129 237.175 166.502 237.113Z" fill="#141414"/>
<path d="M135.959 221.773C133.479 221.657 131.409 221.678 129.455 223.484C128.133 224.707 127.498 226.778 127.536 228.542C127.613 232.234 129.436 234.357 131.964 236.738C130.673 238.256 129.271 238.909 128.795 241.003C127.701 245.812 130.201 250.968 132.84 254.851C135.073 258.139 137.605 259.998 141.53 260.806C142.79 260.886 144.257 260.736 145.435 260.276C147.345 259.532 148.721 257.768 149.45 255.905C150.849 252.331 150.335 248.295 148.734 244.885C146.601 240.341 143.584 238.282 139.058 236.604C140.029 235.665 141.025 234.761 141.552 233.488C142.349 231.559 142.096 228.459 141.295 226.573C140.27 224.166 138.275 222.77 135.959 221.773Z" fill="#141414"/>
<path d="M246.978 349.551C247.053 350.073 246.047 351.743 245.775 352.299L169.724 349.598C174.531 351.502 179.536 351.642 184.592 352.375L204.832 355.145C204.971 356.523 205.353 359.645 206.194 360.7C207.293 362.078 211.796 361.564 213.567 361.541L239.915 361.61C241.37 361.635 244.48 361.302 245.79 361.755C246.565 362.023 248.234 364.084 249.05 364.738C250.457 365.864 252.177 366.784 253.859 367.436C258.046 369.058 262.539 369.951 266.927 370.844C275.796 372.648 284.617 373.816 293.632 374.565L297.92 393.023C298.332 395.892 298.274 398.721 296.287 401.071C295.593 401.891 295.15 402.396 294.088 402.467L293.953 402.099L295.641 399.032C293.794 398.015 291.771 397.429 289.802 396.695L280.185 393.185C258.161 385.27 236.349 379.403 212.924 377.78C206.023 377.302 198.888 377.061 192.013 378.03C186.44 378.815 181.016 380.285 176.075 383.042C157.397 393.463 148.893 416.202 138.935 433.93L118.365 466.776C116.225 469.95 114.382 473.376 112.079 476.428L112.043 459.943L111.477 395.085L111.587 361.973C111.554 361.136 111.445 360.536 111.124 359.769C110.252 359.32 110.181 359.325 109.207 359.457C108.502 360.218 108.421 360.528 108.285 361.563C107.519 367.393 107.645 373.694 107.593 379.573L107.534 405.804L108.032 448.119L108.33 479.083C107.613 479.756 106.215 481.137 105.965 482.066C105.555 483.592 105.915 488.39 106.449 489.887C106.798 490.867 107.738 492.257 107.641 493.241C103.527 497.182 99.525 501.018 94.5662 503.886C92.8909 496.955 93.1783 489.08 93.1137 481.981L92.9422 458.478L92.3741 395.451L92.3037 379.135C92.288 375.708 92.6102 371.775 91.7771 368.443L91.6214 367.843C91.3274 366.68 91.1063 365.778 90.3842 364.808L90.101 364.892L89.686 366.445C88.2906 372.866 88.7652 379.99 88.7718 386.532L89.3159 423.822L89.7614 466.393L90.1606 491.752C90.4032 495.527 90.3519 501.394 92.6118 504.619C93.8374 506.368 96.5496 507.739 98.2961 508.958C102.976 512.226 107.608 515.587 112.555 518.447C116.22 520.566 120.024 522.268 123.878 524.002C125.884 524.904 128.208 526.193 130.377 526.51C131.172 526.627 131.375 526.532 132.002 526.017C133.393 524.878 133.719 522.62 133.846 520.942C133.292 519.704 132.817 519.497 131.736 518.719C133.182 515.942 134.121 513.128 135.058 510.146C139.586 516.264 152.572 522.172 159.882 524.501C161.484 525.011 163.145 525.499 164.679 524.574C165.93 523.819 167.173 522.162 168.081 521.015C172.236 515.761 175.392 509.601 178.876 503.889C186.362 491.616 194.27 479.431 200.491 466.455C204.685 457.705 208.293 448.752 211.094 439.455L228.671 452.563C239.317 459.411 250.734 465.044 262.29 470.171C278.853 477.519 296.621 483.659 314.419 487.133C343.075 492.726 373.457 492.319 402.554 491.832L432.203 491.053C436.08 490.877 440.427 491.037 444.183 490.127C445.515 489.805 446.647 489.155 447.9 488.645C451.532 487.168 454.979 486.483 457.2 482.863C459.551 479.03 459.214 475.309 458.226 471.128L482.314 469.305C484.272 469.006 486.169 468.684 487.403 467.023C487.554 466.144 487.732 465.852 487.313 465.044C486.271 464.543 485.383 464.575 484.245 464.559L465.587 465.139L439.589 464.924C440.313 460.943 441.602 456.788 441.852 452.777C441.909 451.861 441.941 450.882 441.436 450.077L441.132 449.637C441.521 448.773 444.407 448.8 445.376 448.73C454.336 448.075 463.622 447.181 471.481 442.368C476.111 439.531 478.854 435.124 480.093 429.928C481.78 422.851 481.853 415.296 481.488 408.058C480.903 396.422 479.023 384.466 476.062 373.193L470.161 354.29C464.635 337.358 458.181 320.327 448.677 305.178C441.218 293.289 429.182 278.952 414.888 275.809C408.256 274.35 401.957 275.105 396.014 278.373C381.751 286.216 376.569 301.908 371.056 316.137C367.881 324.332 364.263 332.839 359.038 339.952C356.81 342.985 354.113 345.924 351.079 348.165C349.419 349.391 347.491 350.373 345.739 351.477C329.056 351.382 312.501 351.502 295.849 350.177C291.211 349.808 286.335 349.854 281.887 348.34C277.024 346.685 273.11 343.284 268.675 340.805C264.587 338.519 260.297 337.318 255.667 338.754C253.121 339.544 250.573 341.151 249.388 343.62C248.851 344.741 248.621 345.975 247.991 347.058L247.709 347.526C247.08 348.383 247.04 348.49 246.978 349.551Z" fill="#141414"/>
<path d="M451.079 472.808L450.512 473.118C451.535 477.076 451.703 479.355 450.647 483.366L450.914 483.803L451.866 483.055C452.933 481.964 453.714 480.716 454.133 479.239C454.502 477.938 454.593 475.35 453.851 474.199C453.151 473.111 452.237 473.034 451.079 472.808Z" fill="white"/>
<path d="M345.699 411.088C345.419 410.888 345.173 410.627 344.859 410.488C344.072 410.143 341.025 410.492 340.051 410.495L327.611 410.661C325.194 410.696 322.6 410.543 320.218 410.959L319.956 411.008C320.343 411.555 321.27 411.495 321.918 411.706C329.826 411.937 337.835 412.076 345.699 411.088Z" fill="#141414"/>
<path d="M260.225 354.072L259.462 354.075C256.093 354.274 252.847 358.953 250.686 361.311C251.71 362.119 252.717 362.757 253.872 363.363L254.553 363.519C255.419 362.819 255.959 361.79 256.548 360.855C257.906 358.705 261.213 356.887 263.188 355.16C262.681 354.386 261.149 354.287 260.225 354.072Z" fill="white"/>
<path d="M261.593 342.275C259.849 342.153 258.039 342.007 256.454 342.895C253.229 344.702 251.642 348.538 250.096 351.711C248.741 354.494 247.496 356.977 246.68 359.984C250.461 357.046 252.177 351.434 257.572 350.761C260.508 350.395 264.663 351.149 266.915 353.184C267.592 353.797 267.788 354.224 267.85 355.11C266.709 356.724 265.018 357.956 263.524 359.241C261.512 360.97 259.669 362.698 257.918 364.694C259.795 364.915 261.618 365.441 263.447 365.903L292.365 370.938C290.891 365.147 289.678 360.248 289.535 354.2C278.702 353.467 271.546 345.037 261.593 342.275Z" fill="white"/>
<path d="M321.918 411.705L317.621 411.729C320.906 415.781 326.51 417.52 331.196 419.533C342.474 424.376 353.985 427.852 365.724 431.339C382.104 436.203 399.091 440.986 416.1 442.981C425.684 444.105 435.476 444.425 445.105 443.765C454.581 443.118 464.659 441.817 472.365 435.74C473.726 433.395 474.128 430.187 474.536 427.522C476.281 416.092 475.74 403.798 474.107 392.364C471.364 373.135 466.198 354.269 459.091 336.199C453.462 321.887 446.952 308.35 436.755 296.657C433.567 293.003 430.126 289.424 426.222 286.527C421.568 283.073 415.877 280.176 410.026 279.582C406.813 279.257 403.656 279.634 400.485 280.117C403.073 281.216 407.475 282.138 409.268 284.305L408.954 284.926C406.904 285.748 403.8 284.048 401.567 283.954C398.22 283.813 395.435 285.61 392.997 287.695C384.003 295.389 380.203 306.746 375.659 317.289L368.706 332.318C365.409 338.82 361.625 345.131 356.08 349.958C357.434 350.885 359.489 351.063 360.996 351.829C363.06 352.879 365.008 354.598 366.862 355.995C368.263 357.05 369.846 357.995 371.022 359.302L370.637 359.907C367.149 360.014 363.313 358.444 360.177 357.043C358.553 356.318 356.717 355.297 354.955 354.961C353.949 354.769 353.418 354.793 352.626 355.388C351.879 359.502 355.134 360.724 355.838 364.116L355.266 364.558C354.706 364.54 354.135 364.55 353.618 364.303C350.996 363.047 349.998 358.401 349.278 355.889L348.899 355.734C348.496 356.714 348.214 357.612 348.177 358.681C348.126 360.102 348.662 362.02 347.86 363.184C346.879 363.302 346.585 363.448 345.691 362.978C344.462 361.311 344.397 358.217 344.112 356.174C337.586 357.678 329.971 357.078 323.303 356.811L292.973 354.861L298.267 377.402C299.795 383.051 301.965 388.822 302.429 394.677C302.65 397.473 302.19 399.898 301.408 402.565L319.57 406.091C334.518 407.701 350.669 407.159 364.842 401.709C378.857 396.32 391.057 385.422 399.223 372.924L406.503 360.678C408.414 357.473 410.146 354.34 413.099 351.974C412.09 357.857 409.764 362.458 406.923 367.686C402.952 374.994 398.504 381.713 392.853 387.849C382.649 398.927 370.184 406.366 355.407 409.626C352.514 410.264 349.279 411.006 346.327 411.079L345.699 411.088C337.835 412.076 329.826 411.937 321.918 411.705Z" fill="white"/>
<path d="M440.712 420.946L440.173 420.788C438.719 420.499 432.965 420.577 431.926 421.407L432.39 422.188C434.476 422.668 437.683 422.851 439.724 422.102C440.501 421.816 440.384 421.647 440.712 420.946Z" fill="#141414"/>
<path d="M385.799 308.528L385.297 308.561C384.446 309.018 383.94 309.869 383.495 310.702C381.288 314.83 380.401 320.333 379.097 324.84L376.137 334.188C374.669 338.4 372.683 342.432 371.032 346.579L373.012 344.752C375.045 342.529 376.288 339.348 377.4 336.59C380.102 329.893 381.866 323.065 383.813 316.137C384.435 313.922 385.855 310.799 385.799 308.528Z" fill="#141414"/>
</svg>
