<svg width="162" height="30" viewBox="0 0 162 30" fill="none" xmlns="http://www.w3.org/2000/svg">
<path d="M0 6C0 4.34315 1.34315 3 3 3H16.7574C19.4301 3 20.7686 6.23143 18.8787 8.12132L12 15L5.12132 21.8787C3.23143 23.7686 0 22.4301 0 19.7574V6Z" fill="#141414"/>
<path d="M23 24C23 25.1046 22.1046 26 21 26L14.2426 26C12.4608 26 11.5685 23.8457 12.8284 22.5858L16.2071 19.2071L19.5858 15.8284C20.8457 14.5685 23 15.4608 23 17.2426L23 24Z" stroke="#141414" stroke-width="2"/>
<path d="M41.8 23.36C37.96 23.36 35.2 20.696 35.2 17.024V5.48H39.52V11.312C40.264 10.904 41.152 10.64 42.04 10.64C45.856 10.64 48.4 13.184 48.4 17.024C48.4 20.504 45.544 23.36 41.8 23.36ZM41.8 19.304C43.168 19.304 44.08 18.272 44.08 17C44.08 15.752 43.168 14.696 41.8 14.696C40.432 14.696 39.52 15.752 39.52 17C39.52 18.272 40.432 19.304 41.8 19.304ZM53.9172 23H49.5972V16.352C49.5972 13.16 51.4212 10.616 55.3332 10.616C56.1492 10.616 57.0372 10.76 57.6372 11.024V15.176C57.0612 14.864 56.3412 14.696 55.7412 14.696C54.6132 14.696 53.9172 15.344 53.9172 16.496V23ZM63.8866 23.36C60.3826 23.36 58.0066 20.48 58.0066 16.976C58.0066 13.496 60.8626 10.616 64.6066 10.616C68.4466 10.616 71.2066 13.304 71.2066 16.976V23H67.1266V22.112C66.3586 22.904 65.2786 23.36 63.8866 23.36ZM64.6066 19.304C65.9746 19.304 66.8866 18.248 66.8866 17C66.8866 15.728 65.9746 14.672 64.6066 14.672C63.2386 14.672 62.3266 15.728 62.3266 17C62.3266 18.248 63.2386 19.304 64.6066 19.304ZM75.5238 9.728C74.1078 9.728 72.9318 8.552 72.9318 7.136C72.9318 5.72 74.1078 4.544 75.5238 4.544C76.9398 4.544 78.1158 5.72 78.1158 7.136C78.1158 8.552 76.9398 9.728 75.5238 9.728ZM73.3638 11H77.6838V23H73.3638V11ZM86.3552 14.84C84.7712 14.84 84.1712 16.112 84.1712 17.624V23H79.8512V17.096C79.8512 13.568 81.9152 10.64 86.3552 10.64C90.7952 10.64 92.8592 13.568 92.8592 17.096V23H88.5392V17.624C88.5392 16.112 87.9392 14.84 86.3552 14.84ZM99.5457 23.384C96.8337 23.384 95.0817 22.448 94.0497 20.624L97.1697 18.872C97.6017 19.64 98.2497 20.024 99.3297 20.024C100.218 20.024 100.626 19.712 100.626 19.328C100.626 17.864 94.2897 19.352 94.2897 14.696C94.2897 12.44 96.2097 10.616 99.4737 10.616C102.33 10.616 103.89 12.008 104.586 13.352L101.466 15.128C101.202 14.408 100.386 13.976 99.5697 13.976C98.9457 13.976 98.6097 14.24 98.6097 14.6C98.6097 16.088 104.946 14.72 104.946 19.232C104.946 21.752 102.474 23.384 99.5457 23.384ZM112.954 23.384C109.042 23.384 107.218 21.08 107.218 17.888V14.6H105.178V11H107.218V8H111.538V11H115.474V14.6H111.538V17.744C111.538 18.896 112.234 19.544 113.362 19.544C113.962 19.544 114.898 19.376 115.474 19.064V22.88C114.874 23.216 113.77 23.384 112.954 23.384ZM122.788 23.36C119.044 23.36 116.188 20.48 116.188 16.976C116.188 13.496 119.044 10.616 122.788 10.616C126.532 10.616 129.388 13.496 129.388 16.976C129.388 20.48 126.532 23.36 122.788 23.36ZM122.788 19.304C124.156 19.304 125.068 18.248 125.068 17C125.068 15.728 124.156 14.672 122.788 14.672C121.42 14.672 120.508 15.728 120.508 17C120.508 18.248 121.42 19.304 122.788 19.304ZM134.916 23H130.596V16.352C130.596 13.16 132.42 10.616 136.332 10.616C137.148 10.616 138.036 10.76 138.636 11.024V15.176C138.06 14.864 137.34 14.696 136.74 14.696C135.612 14.696 134.916 15.344 134.916 16.496V23ZM154.564 10.52C158.692 10.52 160.684 13.4 160.684 16.736V23H156.364V17.48C156.364 15.968 155.812 14.72 154.228 14.72C152.644 14.72 152.116 15.968 152.116 17.48V23H147.796V17.48C147.796 15.968 147.268 14.72 145.684 14.72C144.1 14.72 143.548 15.968 143.548 17.48V23H139.228V16.736C139.228 13.4 141.22 10.52 145.348 10.52C147.604 10.52 149.236 11.408 149.98 12.872C150.772 11.408 152.5 10.52 154.564 10.52Z" fill="#141414"/>
</svg>
