<svg width="90" height="90" viewBox="0 0 90 90" fill="none" xmlns="http://www.w3.org/2000/svg">
<path d="M7.42883 25.8175L7.32675 16.0763C7.32988 14.0657 7.6572 9.21347 9.20364 7.69884C11.3577 5.58904 16.322 5.00676 19.228 4.68014L27.9195 3.85965L42.097 3.84033C42.5322 3.85385 42.9639 3.95788 43.4037 3.97029L50.3661 3.98562C51.1279 3.9872 51.8685 4.0936 52.6245 4.10397L58.9314 4.12826C59.3239 4.1387 59.7111 4.20856 60.1035 4.227L65.0549 4.43811C68.0294 4.5633 70.9761 4.74592 73.9304 5.12691C76.4919 5.45724 77.5958 5.39506 79.4067 7.37192C82.9179 11.2048 83.3792 19.4936 83.6436 24.4995L83.6981 26.6129C83.7111 26.9439 83.7737 27.2677 83.7833 27.6003L84.0036 36.3489C84.0164 36.7045 84.079 37.0541 84.0895 37.4125L84.1755 42.6195C84.1841 43.0124 84.2563 43.3972 84.2621 43.7934L84.2741 47.0654C84.2857 47.4586 84.3507 47.8466 84.3588 48.2426L84.3755 54.1838C84.381 54.6133 84.4898 55.0425 84.4958 55.4809L84.5126 71.2573C84.5235 71.9711 84.6042 72.6743 84.5698 73.3918L84.4951 76.6648C84.388 78.6248 83.9461 79.9342 83.6263 81.7516C82.4017 82.0158 81.3222 82.6094 80.1269 82.9622C76.4622 83.7933 73.7626 83.5894 70.0341 83.6279C69.5417 83.633 69.0611 83.7356 68.5659 83.745C67.5675 83.7636 66.5241 83.6878 65.5328 83.7748C65.2289 83.7884 64.9114 83.7713 64.6051 83.7835L54.1164 84.3526L36.4198 85.6453L25.6263 85.5251L18.1371 84.825L15.106 84.2644C10.9839 83.3417 6.77719 80.9483 7.56251 76.1004L7.61247 75.4824C7.79596 75.1888 7.72129 73.8297 7.72247 73.3909L7.71036 68.9282C7.69647 68.5489 7.62113 68.1802 7.59891 67.8076L7.418 60.7904C7.41056 60.3645 7.3415 59.9459 7.33072 59.5239L7.42883 25.8175Z" fill="#141414"/>
<path d="M31.7076 6.36209C31.9918 6.32266 32.3372 6.36176 32.6305 6.36179L64.7822 6.43068C70.8711 6.43796 78.8469 7.18329 80.8156 14.1157C80.8755 14.3268 80.9007 14.5373 80.983 14.7432L57.9748 15.7158L9.9111 16.896C9.88174 16.8393 9.88345 16.8589 9.88153 16.8016L9.88364 14.9096C9.89048 11.5263 9.72579 9.75711 13.1938 8.48694C16.9108 7.12554 21.1286 6.75343 25.0476 6.5499L31.7076 6.36209Z" fill="#ECB935"/>
<path d="M22.4387 10.6854C23.809 10.621 24.0231 12.2992 22.7385 12.7654C21.2251 12.7249 21.1613 11.1081 22.4387 10.6854Z" fill="#141414"/>
<path d="M16.0528 11.0412C17.5198 10.7892 17.8393 12.5217 16.5061 13.1708C15.0475 13.3182 14.7027 11.6865 16.0528 11.0412Z" fill="#141414"/>
<path d="M29.2569 10.7791C30.6629 10.9178 30.6457 12.7378 29.2896 13.0509C27.9369 13.1101 27.7133 11.045 29.2569 10.7791Z" fill="#141414"/>
<path d="M77.0164 16.3631L79.5354 16.3624C80.1427 16.3657 80.8073 16.3248 81.3987 16.4731L81.9348 20.5127L82.3829 29.6061L82.414 32.4312C82.4268 32.8149 82.5068 33.1936 82.5175 33.5741L82.5404 36.9491C82.5546 37.2807 82.6448 37.5978 82.6583 37.9247L82.6729 41.1978C82.6761 41.6801 82.7462 42.1488 82.7622 42.6269L82.7766 45.001C82.7887 45.3926 82.8694 45.7774 82.8803 46.1645L82.9861 56.5795C82.9992 56.8365 83.0389 57.0909 83.0436 57.3486L83.0575 71.1709C83.0626 74.3607 82.6527 79.2092 79.7242 81.0085C79.3164 81.2592 77.9083 80.96 77.3952 80.9504L66.3813 80.9825C66.0533 80.9971 65.7359 81.0629 65.4126 81.0825L59.3381 81.3613L46.1645 82.4297L37.9181 82.9253C37.2141 82.9557 36.5161 83.0655 35.8133 83.0752L24.3652 83.0618L22.9307 82.9319C20.7988 82.7757 18.7042 82.534 16.6209 82.0376C11.4708 80.6146 10.1231 77.3456 9.94951 72.1177L9.88804 71.1956C9.87431 70.4552 9.93307 69.7311 9.95861 68.9941L9.97885 67.6339C9.99127 67.3386 10.0478 67.0471 10.0582 66.7543L9.97921 31.9547L10.0605 30.3389L9.98078 18.3745L77.0164 16.3631Z" fill="#ECB935"/>
<path d="M40.8915 53.7325C41.6995 53.5752 43.0049 54.4499 43.5975 55.0204C42.7917 54.733 41.8783 54.2417 41.0147 54.1901L40.8915 53.7325Z" fill="#DFDEDF"/>
<path d="M67.9718 27.6441C68.6081 27.619 69.3944 28.0502 69.1103 28.8145C68.8966 29.3893 68.2311 30.024 67.8277 30.4937C66.596 31.927 65.2588 33.8131 63.4783 34.6086C62.7409 34.8184 62.4686 34.3626 62.2368 33.6956L62.3413 33.4802C62.6217 32.9358 63.218 32.415 63.6217 31.9474L65.6469 29.6078C66.3078 28.8651 66.9908 27.9654 67.9718 27.6441Z" fill="#141414"/>
<path d="M66.4557 44.614C68.5956 44.4968 71.9383 47.0266 73.3686 48.3946C74.27 49.2568 75.5701 50.6516 74.0215 51.5813C73.0141 51.8982 72.5152 51.1712 71.9636 50.444L71.2626 49.5867C70.322 48.5373 69.2098 47.6602 67.9908 46.9556L66.462 46.143C65.5506 45.6469 65.5337 45.0373 66.4557 44.614Z" fill="#141414"/>
<path d="M72.2776 36.7122C72.5911 36.6839 73.0183 36.6314 73.3117 36.7544L73.4766 36.8291C74.3595 37.2874 74.1396 38.4627 73.2804 38.768C72.9014 38.9027 72.4816 38.9557 72.0868 39.0268L65.7111 40.5731C65.2656 40.6606 64.8464 40.7292 64.4458 40.4601C61.5445 38.5108 70.4078 36.9128 72.2776 36.7122Z" fill="#141414"/>
<path d="M41.0147 54.1901C41.554 55.8353 42.4501 57.3556 43.2562 58.88L44.5934 61.4933C45.2584 62.7232 46.2449 63.3149 45.2304 64.7669C44.4823 65.8376 42.8783 66.5915 41.5503 66.4677C39.7297 66.2983 37.1747 64.2796 36.0794 62.8206C35.039 61.4344 33.0307 57.1562 32.7401 55.3174C27.4328 55.4826 24.0321 50.8132 24.0256 45.7691C24.0187 40.4769 26.1842 39.122 30.8714 37.6994C32.9475 37.0692 35.0647 36.5633 37.1035 35.8155C41.1298 34.3388 45.849 30.258 48.238 26.8739C49.0442 25.7322 50.8876 22.1141 52.3461 21.9402C54.5498 21.6774 55.3797 25.1275 55.701 26.7405L56.4859 30.9958C56.7684 32.3808 57.1451 33.7399 57.645 35.0627L58.0027 35.9716C58.1182 36.2443 58.1207 36.1942 58.4012 36.2961L59.3509 36.663C61.487 37.5986 63.1271 39.4862 62.8685 41.971C62.73 43.3022 61.8187 44.2708 60.827 45.0752C61.3663 46.8099 62.2288 48.4415 62.9761 50.0925C63.6361 51.5511 65.6342 55.9154 64.3611 57.1963C63.1605 58.4041 61.0068 57.4162 59.7257 56.8367L56.6182 55.3721C53.3345 53.8874 47.9786 52.4393 44.2556 52.3775C43.3946 52.363 41.3474 52.2776 40.6696 52.932L40.8914 53.7326L41.0147 54.1901Z" fill="#141414"/>
<path d="M40.403 62.5122L40.4666 62.5205C40.2887 62.9142 40.3061 63.0534 39.8364 63.1278C39.5137 63.0708 40.2966 62.602 40.403 62.5122Z" fill="#ECB935"/>
<path d="M38.7271 56.2719L38.8197 56.271C38.9196 56.4406 38.9832 56.6254 39.0535 56.8087L37.7863 57.1211L37.5757 57.1288C37.8992 56.789 38.3861 56.6245 38.7271 56.2719Z" fill="#ECB935"/>
<path d="M39.0306 61.018C39.1375 60.9954 39.1976 60.9908 39.304 61.018L39.3244 61.1059C39.0841 61.3854 38.5304 61.8013 38.1665 61.8996C38.0262 61.8467 37.9383 61.7887 37.8385 61.6772C38.2159 61.4585 38.6313 61.1813 39.0306 61.018Z" fill="#ECB935"/>
<path d="M40.1652 59.5238C41.011 59.4073 40.0022 60.2394 39.542 60.4379C39.6781 60.2843 39.7869 60.1189 39.9001 59.9483C39.1175 60.4119 38.4506 60.4901 37.9176 60.8113L37.4414 61.234L37.3613 61.0619C37.7355 60.2094 39.3915 59.838 40.1652 59.5238Z" fill="#ECB935"/>
<path d="M39.1549 57.2388L39.8232 58.1882L37.7893 58.525L37.1306 58.5352C37.4579 57.8605 38.6662 57.7702 39.1417 57.5169L39.1549 57.2388Z" fill="#ECB935"/>
<path d="M37.0478 37.5513C37.1052 37.5441 37.1496 37.5434 37.2015 37.5442L37.2584 38.3375C37.5522 41.6818 38.661 48.533 41.4053 50.7971L41.4529 50.8358C39.5687 51.1689 37.797 52.4725 36.1202 52.6808C36.2278 52.1126 36.1944 52.1397 35.8687 51.6451C35.4013 51.6243 32.746 51.647 33.4644 52.6799C33.7736 52.8471 34.8574 52.6737 35.3533 52.7282L33.7569 52.969C29.189 53.8316 26.8033 48.8074 26.5013 44.9696C26.4614 44.464 26.4169 43.9124 26.4846 43.4099L26.4962 43.3301C26.7894 41.1045 28.835 40.0966 30.7268 39.497L37.0478 37.5513Z" fill="#ECB935"/>
<path d="M30.0574 41.3684C30.2657 41.3294 31.2377 41.4046 30.9454 41.77C30.5575 42.2554 29.8072 42.373 29.2361 42.4408C28.9721 42.4704 27.8886 42.5953 28.337 42.003C28.6708 41.5621 29.5363 41.4442 30.0574 41.3684Z" fill="#141414"/>
<path d="M31.9781 46.0293C32.2943 46.0223 32.6201 46.0659 32.9356 46.0917C32.3344 46.6911 31.5397 47.0682 30.7262 47.2814C28.6875 47.7411 29.8997 46.2267 31.9781 46.0293Z" fill="#141414"/>
<path d="M29.6035 43.9162L30.6172 43.9026C31.0067 43.9016 32.2114 43.8223 32.512 44.1211L32.4937 44.1572C32.3156 44.4199 31.6338 44.6103 31.3388 44.7035C30.7754 44.8483 30.2173 44.9269 29.6411 44.9993C29.0716 45.0709 28.2755 44.8091 28.6827 44.2069C28.8191 44.0051 29.3658 43.9525 29.6035 43.9162Z" fill="#141414"/>
<path d="M34.2272 48.0939C34.4053 48.0749 34.6479 48.0619 34.8033 48.164C34.7609 48.7271 32.525 49.2507 32.0896 49.7014C32.0344 49.7585 31.985 49.8148 31.9201 49.8616L31.8739 49.8939C32.3763 49.8844 32.8939 49.8955 33.393 49.8438L34.6108 49.6823C34.9603 49.6341 35.3556 49.5114 35.6177 49.8116L35.5769 49.9438C35.2007 50.3019 34.5878 50.4114 34.1023 50.5355L32.4316 50.8148C31.9054 50.8458 31.5907 50.4977 31.2288 50.1785L32.2028 49.3671C31.5192 49.6513 31.581 49.6397 30.8916 49.4486C29.9892 48.385 31.941 48.4026 32.5876 48.325L34.2272 48.0939Z" fill="#141414"/>
<path d="M51.5631 26.2573C51.7424 26.3405 51.8781 26.7975 51.9592 26.9664L52.5524 28.2461C53.522 30.3827 54.2341 32.5795 54.9793 34.7985L57.4515 42.2768L59.0553 46.5286C60.3942 49.8561 61.2626 51.172 60.6726 54.7859L51.3578 51.8194C49.5373 51.4194 47.6858 51.0949 45.8281 50.923L44.3877 50.834C44.0154 50.824 43.4412 50.9363 43.1687 50.6313C40.1913 47.3003 38.7925 41.4042 39.1185 36.9251C39.1609 36.344 39.9433 36.2006 40.5185 35.8815L42.7345 34.5173C44.81 33.1044 46.7284 31.4497 48.4358 29.6075C49.4684 28.4936 50.4137 27.2524 51.5631 26.2573Z" fill="#ECB935"/>
<path d="M49.9669 29.8608C50.4156 30.073 50.5158 31.0521 50.6102 31.4705L52.1183 37.0679L53.8464 42.2687L56.4451 48.5074C57.0306 49.8628 57.514 51.2213 58.2154 52.5284C58.3096 52.7038 58.6972 53.2679 58.6626 53.4155L58.5119 53.4234C56.6522 53.0568 55.7569 49.7399 55.0758 48.1449L51.7653 39.6684L50.1523 34.1304C49.8271 32.9001 49.2755 31.0484 49.9669 29.8608Z" fill="#141414"/>
</svg>
