<svg width="90" height="90" viewBox="0 0 90 90" fill="none" xmlns="http://www.w3.org/2000/svg">
<path d="M86.4924 60.2136L86.4708 53.3105C86.465 52.9672 86.4279 52.6149 86.4668 52.2732L86.6156 60.6272C86.5659 60.482 86.5699 60.351 86.4924 60.2136Z" fill="#141414"/>
<path d="M13.9191 49.6316L21.6601 49.6525C22.8767 49.6532 24.1536 49.5755 25.3645 49.6817C25.8759 49.7265 26.2405 50.3785 25.0511 50.4817L14.6941 50.4732C14.2111 50.4725 13.7045 50.5024 13.2275 50.4279C12.6038 49.9482 13.4091 49.6676 13.9191 49.6316Z" fill="#141414"/>
<path d="M31.9818 39.2742L36.8416 39.2787C37.3449 39.2826 37.8121 39.2638 38.0582 39.7924L38.0248 39.8713C37.2665 40.2614 36.1118 40.1093 35.2661 40.1364L26.2904 40.2048C25.8899 40.2144 25.5106 40.3144 25.1168 40.328L18.534 40.522C18.0643 40.4776 17.5463 40.5224 17.0724 40.5236L14.0282 40.5317C13.6096 40.5329 12.0681 40.7379 12.6562 39.7969C13.1215 39.4835 14.3429 39.6528 14.8989 39.6519L19.2289 39.6394C19.617 39.6305 19.9851 39.5547 20.3686 39.5305L22.1423 39.5022C22.4385 39.4946 22.731 39.4438 23.0273 39.4345L26.2002 39.4109C26.678 39.4006 27.1469 39.2953 27.6196 39.2838L31.9818 39.2742Z" fill="#141414"/>
<path d="M13.8381 30.1162L39.6974 30.1538C40.3667 30.1679 42.8634 30.3656 43.4288 30.6086L42.4534 30.6312C41.4662 30.7554 40.4864 30.9181 39.4905 30.9517L13.9087 30.9547C13.0289 30.9306 12.9592 30.273 13.8381 30.1162Z" fill="#141414"/>
<path d="M23.522 19.0414L46.5865 19.0576C47.9162 19.114 50.6537 19.3084 51.8857 19.7737C51.6256 19.7558 51.3684 19.7075 51.1084 19.6959L47.3949 19.7215L42.9126 19.9105L39.9683 19.9214L12.1474 19.9291C11.6876 19.91 11.4396 19.505 11.7993 19.1226C12.1711 18.9641 12.831 19.0467 13.2422 19.0464L23.522 19.0414Z" fill="#141414"/>
<path d="M76.8911 4.42113C77.923 4.365 78.997 4.39439 80.0225 4.50396L80.7276 4.61358C83.6531 5.04689 87.2984 6.71688 87.7444 9.99056C87.9147 11.2417 87.9356 12.4739 87.9367 13.7335L87.7692 21.0793L87.3941 27.7781L86.6053 37.2292C86.5549 37.6716 86.5116 38.1176 86.4747 38.5619C86.4573 38.7724 86.4053 39.2549 86.4519 38.7377C86.5088 38.1046 86.5215 37.4577 86.5807 36.8196L86.8495 33.4091L87.2287 25.4125C87.2628 24.9424 87.242 24.4583 87.2427 23.9869L87.1738 18.5484C87.1065 16.381 86.9244 14.1381 86.1657 12.0897C84.8333 8.49231 81.9294 5.58554 77.9695 5.26026C77.0949 5.1884 76.1975 5.22382 75.32 5.22206L71.6968 5.13419C71.0909 5.11425 70.4864 5.14992 69.8808 5.10766C70.6454 4.66388 71.9541 4.66928 72.8065 4.60619L76.8911 4.42113Z" fill="#141414"/>
<path d="M86.6101 60.6272L86.6945 68.1541C86.704 68.5628 86.617 70.1418 86.804 70.4291C87.6558 70.6319 87.4487 71.9568 87.4995 72.6357C87.9135 78.1687 87.4146 82.469 81.7603 84.5707C78.4625 85.7966 75.8103 85.2891 72.3792 84.972L67.7857 84.6271L58.564 84.6135L46.9783 85.1492L42.0768 85.1803L34.8298 85.4976L28.8591 85.667L17.688 85.6638L15.3589 85.5181C5.26939 84.8955 3.64778 80.7755 3.19504 71.8151L3.08295 68.7523C3.06665 68.3777 2.98799 68.0075 2.97512 67.6319L2.86044 62.5855L2.85552 31.8382C2.85793 31.3411 2.91954 30.862 2.94267 30.3689L2.68665 17.3821C2.57967 15.1402 2.2532 12.9084 2.33739 10.6586C2.44052 7.90226 3.0595 6.8557 5.48132 5.6355C9.37035 3.67608 12.6927 3.57307 16.9629 3.91954L25.5549 4.69102L32.4097 5.10297L59.1768 5.1363C59.4232 5.14718 60.0988 5.17439 60.2872 5.31726L60.271 5.36557C59.6653 5.52266 59.23 5.55502 58.5946 5.55778L53.0587 5.72659L42.7824 5.82443C42.4197 5.83685 42.0611 5.91393 41.7041 5.92487L26.5486 5.93424L23.4181 5.76633C18.5861 5.49431 9.05746 4.79862 5.44673 8.99371C4.06342 10.6009 3.58681 13.3969 3.57882 15.4741L3.60306 21.555C3.61523 22.0381 3.69011 22.5143 3.71444 22.9954L3.82951 34.8714C3.83492 35.3644 3.92794 35.8447 3.93622 36.3326L3.94679 41.6078C3.95159 42.0527 4.01394 42.4887 4.02765 42.9316L4.1398 68.2698L4.33136 71.0738C4.57002 74.2442 5.07012 77.4136 7.42756 79.781C11.5476 83.9185 18.6882 83.6264 24.0479 83.6269L72.2213 83.729C75.4424 83.7394 78.8409 84.0324 81.7974 82.5089C85.3042 80.7015 86.0471 76.8727 86.4331 73.2656C86.5259 72.3971 86.6222 71.5284 86.6282 70.6542L86.5869 68.6964C86.5575 68.2663 86.487 67.8551 86.4844 67.4225L86.4816 60.2135C86.57 60.351 86.566 60.482 86.6101 60.6272Z" fill="#141414"/>
<path d="M71.4837 14.2548C73.0756 14.0237 74.8016 14.8929 75.484 16.3694C76.6573 18.9079 74.4082 21.8974 73.0278 23.8835C71.5834 25.9618 70.0947 27.934 68.372 29.7943L57.1176 40.855L47.116 50.4091C46.3808 51.09 41.3318 55.7316 41.1488 56.312C41.1142 56.422 41.3408 56.9854 41.368 57.1605C42.1743 62.3678 40.8944 65.3927 36.2222 68.0208L24.0987 73.8658L22.8876 74.4123C21.9517 74.8286 20.4831 75.1872 20.6281 73.5496C20.6826 72.934 20.8927 72.306 21.0364 71.7048L23.6651 59.9264C25.0801 53.9887 29.5671 50.3082 35.7463 51.8201C36.2241 50.7077 37.048 49.7012 37.7559 48.724L40.7744 44.6781C44.9063 39.3345 49.4009 34.2358 54.0341 29.3229L60.1283 22.9746L65.5557 17.9223C67.2571 16.4338 69.1376 14.5548 71.4837 14.2548Z" fill="#141414"/>
<path d="M52.7815 33.6008C53.286 32.8783 53.9295 32.0243 54.5703 31.4177L54.5553 31.4613C54.444 31.7772 54.3758 31.6969 54.6903 31.5986C54.4233 31.9173 54.0985 32.2107 53.9206 32.59L53.9322 32.6906C53.6311 33.0398 53.2612 33.5498 52.7815 33.6008Z" fill="#141414"/>
<path d="M32.8822 53.5012C33.9142 53.5271 34.7841 53.6659 35.7418 54.065C36.9817 54.5817 38.7636 56.2135 39.2767 57.4758C39.4671 57.9441 39.4834 58.5043 39.5091 59.0049C39.7601 63.8813 37.3711 65.1413 33.58 67.1229L27.8411 69.9341C26.5314 70.542 25.2445 71.207 23.8959 71.7269C23.9985 71.391 24.1849 71.0607 24.3357 70.7429L25.1158 69.1143L27.9692 61.2084C27.8107 61.2453 27.7056 61.1641 27.5781 61.0834L27.5317 61.0537C26.2679 60.9667 25.7498 62.938 25.3846 63.843L24.442 66.1578C24.277 66.5416 24.0973 67.0694 23.7661 67.3396L24.8442 63.3306C25.4802 60.8361 25.8115 58.1169 27.6092 56.1332C29.0679 54.5237 30.7271 53.5983 32.8822 53.5012Z" fill="#79C8DB"/>
<path d="M33.0847 56.5346C32.8189 56.2847 32.425 55.9243 32.7393 55.5527L32.8481 55.5481C33.241 55.5446 33.273 55.7536 33.2701 56.0785C33.2649 56.1977 33.2682 56.3188 33.2292 56.4327L33.2237 56.4553L33.0847 56.5346Z" fill="#141414"/>
<path d="M33.2291 56.4325C32.9964 56.3171 32.8092 56.0492 32.8252 55.7885L32.937 55.7656C33.0994 55.818 33.1708 55.9467 33.2701 56.0783C33.2648 56.1975 33.2682 56.3186 33.2291 56.4325Z" fill="#141414"/>
<path d="M33.0847 56.5346L33.2237 56.4553L33.2527 56.4815C34.3575 57.4527 36.3672 57.0414 37.3454 58.0101C35.768 57.3711 34.6945 57.5677 33.0847 56.5346Z" fill="#141414"/>
<path d="M54.5702 31.4178C55.1853 30.6613 55.8759 29.9481 56.5397 29.2334L58.7478 26.8445C60.7825 24.6909 62.7665 22.4809 65.0283 20.5563C66.1155 19.6312 70.2118 16.4427 71.5429 16.2729C72.5815 16.1405 73.7789 17.0459 73.8735 18.1056C74.0985 20.6252 68.9136 26.812 67.2397 28.7335L40.1069 54.8372C39.7455 54.5728 39.4235 54.0831 39.1194 53.7465L37.8636 52.4824C38.4356 51.286 39.2076 50.1957 39.9879 49.1283L42.6526 45.6412L52.7815 33.6009C53.2612 33.5499 53.631 33.0399 53.9321 32.6907L53.9205 32.5901C54.0984 32.2108 54.4233 31.9174 54.6903 31.5987C54.3758 31.697 54.444 31.7773 54.5553 31.4614L54.5702 31.4178Z" fill="#79C8DB"/>
<path d="M54.6903 31.5985L55.5671 30.63L60.1212 26.4332C60.6097 25.9946 61.098 25.5807 61.5148 25.0686C61.3844 26.0683 61.0543 26.2878 60.3123 26.9431L57.1885 29.5927C56.0823 30.5866 54.9439 31.6033 53.9322 32.6905L53.9205 32.5899C54.0984 32.2106 54.4233 31.9172 54.6903 31.5985Z" fill="#141414"/>
<path d="M69.4799 20.3857C69.7001 20.8049 70.1303 21.0804 70.2129 21.5834C70.5708 23.7631 67.4891 26.9857 65.8867 28.139C64.1908 29.3595 62.9498 29.4509 62.6021 27.1255C64.2839 27.8555 64.5849 27.2063 65.758 25.7756C66.7948 24.5113 68.1531 22.7766 68.3229 21.0976C67.1276 21.7054 65.9366 22.6613 64.9247 23.5337L63.0522 25.2045C62.6124 25.5807 62.1642 25.9876 61.6114 26.1872L61.5643 26.1255C61.5426 25.399 61.9527 24.8604 62.318 24.2546C63.4198 22.4275 64.6395 21.3889 66.4721 20.264L69.0012 18.8167C68.8047 19.1751 68.5277 19.502 68.2605 19.8103C68.66 19.8501 69.2 20.0128 69.4568 20.3498L69.4799 20.3857Z" fill="#141414"/>
<path d="M68.2604 19.8103C68.66 19.85 69.2 20.0128 69.4568 20.3498L69.4798 20.3856L69.0778 20.3512C68.5571 20.2213 68.5065 19.8961 67.9516 20.1508L68.2604 19.8103Z" fill="#141414"/>
</svg>
