<svg width="558" height="493" viewBox="0 0 558 493" fill="none" xmlns="http://www.w3.org/2000/svg">
<g clip-path="url(#clip0_53_1938)">
<path d="M-6 0.435791H551.753V493.307H-6V0.435791Z" fill="#141414"/>
<path d="M88.5545 164.591C90.2691 166.45 90.9997 168.244 92.3186 170.336C90.2735 170.278 87.4259 170.695 85.5209 170.077L85.1731 169.966L84.9668 169.889C85.8971 169.432 87.054 169.631 87.8304 169.053C88.4964 167.782 88.4303 166.009 88.5545 164.591Z" fill="#DADADA"/>
<path d="M107.64 137.38L110.765 137.87C111.84 138.025 113.217 138.727 113.879 139.61C114.139 139.958 114.205 140.307 114.32 140.71L114.428 141.026C113.372 140.647 111.587 140.178 110.511 140.528L111.966 141.132C110.746 141.189 109.679 140.909 108.432 140.932L107.64 137.38Z" fill="#DADADA"/>
<path d="M83.7521 167.817C84.2946 166.924 84.0259 165.82 84.4174 164.902C84.7529 164.117 85.4791 163.772 86.1959 163.412C87.1037 163.591 87.7893 164.1 88.554 164.591C88.4299 166.009 88.4959 167.782 87.83 169.053C87.0536 169.631 85.8967 169.432 84.9664 169.889L83.8422 169.015L83.9468 168.903L84.3462 168.579L83.7521 167.817Z" fill="#DADADA"/>
<path d="M112.258 145.199C113.029 145.669 113.586 145.988 114.062 146.791C114.196 148.941 114.54 158.957 113.852 160.417C113.416 160.625 113.41 160.555 112.96 160.474L112.718 159.547C112.267 158.315 112.524 156.188 112.53 154.84L112.261 149.208C112.155 147.895 111.88 146.474 112.258 145.199Z" fill="#DADADA"/>
<path d="M112.718 159.547L112.886 153.679C113.02 153.809 113.672 154.354 113.706 154.479C114.122 156.033 113.811 158.736 113.853 160.417C113.417 160.625 113.41 160.555 112.961 160.474L112.718 159.547Z" fill="#DADADA"/>
<path d="M233.18 344.102L233.766 344.099C234.775 344.748 235.184 346.368 235.815 347.378C237.434 349.969 240.15 351.863 241.354 354.7L240.885 355.159C240.496 355.082 240.49 355.098 240.068 354.922C237.87 354.005 233.513 349.038 232.807 346.827C232.446 345.699 232.689 345.092 233.18 344.102Z" fill="#DADADA"/>
<path d="M310.946 338.383L311.663 338.335L311.916 338.791C311.522 340.454 305.882 349.294 304.613 350.207L303.779 350.12C303.482 348.954 303.76 348.124 304.262 347.052C305.58 344.235 307.913 339.489 310.946 338.383Z" fill="#DADADA"/>
<path d="M506.817 234.135C507.635 232.783 508.344 231.094 508.815 229.582C509.517 227.327 510.166 221.787 511.864 220.34C512.498 219.8 513.006 220.002 513.764 220.085C512.864 225.63 510.459 230.648 507.821 235.542L506.817 234.135Z" fill="#DADADA"/>
<path d="M449.309 223.791L449.798 223.319L449.748 223.032C449.217 219.648 449.36 213.706 450.859 210.599L451.268 210.36C452.209 211.52 450.891 219.108 451.675 221.437C452.466 223.79 453.889 226.12 455.722 227.801C457.361 229.303 460.262 230.77 461.041 232.773C458.488 231.699 455.875 229.46 453.77 227.684C452.258 226.408 450.684 225.22 449.309 223.791Z" fill="#DADADA"/>
<path d="M441.569 201.034L441.873 201.746L442.15 201.669C442.53 200.362 442.78 197.816 444.028 197.058C444.598 196.711 445.025 196.601 445.685 196.832C445.899 196.907 446.104 197.103 446.275 197.249C446.172 199.082 445.505 200.99 445.126 202.791C444.366 206.407 443.315 210.999 443.655 214.676C443.765 215.863 444.144 217.005 444.284 218.196C443.001 216.855 441.971 214.882 441.496 213.09L441.397 212.698C440.43 208.987 440.931 204.771 441.569 201.034Z" fill="#DADADA"/>
<path d="M478.565 158.458C480.875 158.596 481.983 159.782 483.459 161.436C484.347 162.43 484.728 163.284 484.881 164.603C483.822 164.888 482.965 165.032 482.405 166.083C481.76 167.298 482.016 169.722 482.012 171.127C481.682 170.109 481.994 168.852 481.505 167.922C480.927 168.237 480.398 168.219 479.757 168.242L479.463 168.252L479.056 168.831C478.084 167.902 476.903 167.261 475.73 166.623L475.704 160.236C476.322 160.154 476.967 160.093 477.531 159.81C478.339 159.405 478.306 159.274 478.565 158.458Z" fill="#DADADA"/>
<path d="M275.824 249.056C276.672 249.048 277.21 248.924 277.924 249.505C278.548 250.014 278.541 250.646 278.537 251.37L276.756 253.14L276.962 253.685C280.415 255.322 285.459 254.684 289.225 254.592C290.016 255.055 289.945 255.113 290.228 256C289.934 257.14 289.462 257.531 288.572 258.27L288.186 258.426C284.8 259.725 279.115 259.769 275.778 258.238C274.627 257.709 273.566 256.848 273.197 255.592C272.695 253.883 272.958 251.975 273.803 250.417C274.273 249.55 274.921 249.326 275.824 249.056Z" fill="#DADADA"/>
<path d="M281.035 224.239C283.285 224.115 285.259 224.219 287.403 224.969C290.416 226.023 295.909 228.452 297.203 231.626C297.458 232.252 297.409 232.575 297.174 233.185L296.17 233.602C294.912 233.528 293.96 233.191 292.802 232.706C290.409 231.509 287.785 229.952 285.102 229.594C283.559 229.389 281.789 229.655 280.23 229.731C278.715 229.803 277.307 229.974 276.137 228.789C275.548 228.19 275.115 227.583 275.085 226.724C276.693 224.806 278.683 224.535 281.035 224.239Z" fill="#DADADA"/>
<path d="M83.8424 169.015C81.7777 168.612 80.2279 168.215 78.5597 166.835C71.9601 161.376 70.0735 148.789 69.2612 140.737C69.1356 139.492 68.7793 137.921 69.583 136.937L70.6724 137.075C72.3729 138.877 73.4201 146.993 74.2379 149.865C75.2089 153.277 76.2568 157.062 77.8204 160.251C79.2707 163.21 81.7806 165.227 83.7524 167.817L84.3464 168.579L83.947 168.903L83.8424 169.015Z" fill="#DADADA"/>
<path d="M387.126 163.961C388.094 163.772 389.484 163.762 390.327 164.357C390.976 164.816 391.14 165.255 391.329 165.991C391.211 166.684 391.1 167.097 390.565 167.612C389.411 168.725 387.68 169.399 386.221 170.025C382.051 171.815 377.756 173.222 373.177 173.261C371.791 172.834 370.623 172.353 369.531 171.349C368.908 170.776 368.829 170.492 368.832 169.67C369.211 169.052 369.495 168.686 370.191 168.421C371.649 167.867 373.588 167.861 375.148 167.47L387.126 163.961Z" fill="#DADADA"/>
<path d="M317.796 101.447C318.863 101.188 319.755 101.715 320.681 102.174C321.273 103.007 321.336 103.243 321.434 104.257C321.686 106.87 321.241 109.708 321.228 112.35C321.207 116.61 321.613 120.889 321.364 125.14C320.852 125.782 320.642 125.727 319.864 125.908L319.32 125.863C318.644 125.771 318.042 125.423 317.643 124.869C314.99 121.178 315.65 114.891 315.762 110.584C315.817 108.477 315.702 106.101 316.141 104.042C316.406 102.795 316.726 102.14 317.796 101.447Z" fill="#DADADA"/>
<path d="M484.881 164.603C488.947 164.326 492.003 164.07 494.829 160.796C497.307 157.925 498.937 154.523 501.611 151.771C501.413 156.42 499.365 161.539 495.878 164.708C493.557 166.817 490.469 167.314 487.511 167.933C487.186 168.001 485.575 168.206 485.391 168.374C485.345 168.416 485.272 168.924 485.268 168.967C485.114 170.765 485.278 172.995 485.591 174.769L486.898 180.791C487.176 181.926 487.703 183.402 487.25 184.51C486.516 184.569 486.127 184.744 485.524 184.202C483.649 182.518 482.402 173.801 482.012 171.127C482.016 169.722 481.76 167.298 482.405 166.083C482.965 165.032 483.822 164.888 484.881 164.603Z" fill="#DADADA"/>
<path d="M274.155 289.362C275.327 289.231 275.497 289.309 276.561 289.837C276.873 290.33 277.038 290.46 277.07 291.064C277.134 292.301 276.588 293.131 275.745 293.972C271.249 298.456 263.479 301.552 257.203 302.233C255.386 302.43 253.482 302.346 251.653 302.342C250.876 302.27 249.651 302.013 249.093 301.456C248.754 301.118 248.958 300.56 248.991 300.121C249.194 299.837 249.339 299.501 249.6 299.27C250.072 298.851 251.449 298.804 252.051 298.729L257.877 297.797C261.416 297.096 265.387 295.677 268.422 293.683C270.428 292.366 272.18 290.726 274.155 289.362Z" fill="#DADADA"/>
<path d="M217.3 102.808C218.121 102.736 218.286 102.796 219.046 103.133C220.068 104.337 220.587 105.941 221.192 107.39C223.054 111.855 224.074 115.969 225.051 120.69C225.434 122.542 226.102 124.533 226.121 126.419C226.137 127.809 225.792 128.66 224.816 129.616L224.357 129.735C223.496 129.803 222.726 129.266 222.19 128.638C221.254 127.541 220.444 125.776 220.036 124.391C219.553 122.751 219.37 120.959 219.051 119.277L217.332 110.298C217.025 108.567 216.096 105.898 216.332 104.176C216.449 103.328 216.65 103.279 217.3 102.808Z" fill="#DADADA"/>
<path d="M367.793 128.408C368.144 128.375 368.16 128.347 368.537 128.438C369.353 128.635 370.133 129.416 370.457 130.175C370.813 131.011 370.669 131.933 370.379 132.766C369.471 135.376 367.081 137.677 365.242 139.68C362.207 142.984 358.862 147.052 354.78 149.026C354.514 149.077 354.055 149.203 353.771 149.175C352.926 149.091 352.704 148.713 352.156 148.153C352.054 147.331 352.227 146.782 352.591 146.038C354.915 141.282 359.249 137.446 362.621 133.445C363.707 132.156 364.579 130.608 365.852 129.499C366.43 128.997 367.081 128.676 367.793 128.408Z" fill="#DADADA"/>
<path d="M106.828 149.745L107.71 150.006C108.041 149.927 108.815 149.848 109.073 149.681C110.468 148.777 110.126 146.201 111.387 144.95L112.258 145.199C111.88 146.474 112.155 147.895 112.261 149.209L112.53 154.84C112.223 155.1 111.639 155.467 111.421 155.779C110.718 156.785 110.519 159.125 109.904 160.382C108.327 163.606 106.727 166.319 103.194 167.728C102.753 167.903 101.554 168.259 101.26 168.581C99.7427 170.245 99.6316 173.366 98.4623 175.178C97.9765 173.194 98.3831 171.211 97.975 169.259L97.6366 158.813C99.686 158.633 101.802 158.584 103.258 156.91C104.12 155.919 104.591 154.522 104.493 153.217C104.452 152.675 104.433 152.595 104.586 152.031C105.337 152.011 105.728 151.908 106.393 151.558C106.817 150.868 106.869 150.551 106.828 149.745Z" fill="#141414"/>
<path d="M175.701 121.768C176.942 121.656 178.192 121.505 179.257 122.264C182.146 124.323 184.539 126.718 187.201 129.041C190.845 132.221 195.786 135.427 198.049 139.804C198.659 140.981 198.788 141.554 198.4 142.809C197.66 143.477 197.51 143.612 196.493 143.84C194.158 143.245 191.778 140.761 189.856 139.302C184.651 135.347 179.235 131.43 174.565 126.838C173.407 125.699 173.234 125.122 173.235 123.506C173.944 122.483 174.623 122.29 175.701 121.768Z" fill="#DADADA"/>
<path d="M159.43 147.961C163.48 147.604 168.194 148.566 172.196 149.24C173.515 149.461 174.802 149.988 176.1 150.32C179.729 151.247 185.606 152.323 187.838 155.507C187.955 156.474 187.963 156.976 187.55 157.868C186.626 158.539 186.324 158.536 185.223 158.669C179.618 157.512 173.898 157.003 168.306 155.734C164.804 154.938 161.354 153.635 157.957 152.47C157.177 152.202 156.554 151.804 156.225 151.013C156.072 150.647 155.902 150.002 156.114 149.663C156.811 148.548 158.249 148.257 159.43 147.961Z" fill="#DADADA"/>
<path d="M459.685 47.7103C467.437 47.2239 471.876 50.2538 477.848 54.7498C479.848 56.2553 481.936 57.7325 484.462 58.178C487.956 58.7942 492.883 58.0222 496.154 56.6658C498.599 55.6522 500.208 53.9138 503.013 54.1846C503.773 54.6327 503.916 54.6044 504.202 55.4214C503.583 56.5953 502.708 57.2394 501.698 58.0562L499.061 59.776C496.868 61.0632 494.536 61.3449 492.076 61.7678C486.153 62.786 480.243 61.5574 475.234 58.2613C472.364 56.3727 469.67 54.1905 466.555 52.698C463.67 51.3153 460.975 51.0082 457.943 50.247C457.427 49.6941 457.41 49.73 457.396 48.9795C458.114 48.1996 458.679 48.0072 459.685 47.7103Z" fill="#DADADA"/>
<path d="M466.277 235.758C466.67 234.35 466.196 232.19 466.171 230.68L466.23 221.549L466.791 221.18C466.974 221.303 467.234 221.355 467.341 221.549C467.521 221.875 467.511 223.395 467.551 223.864C467.758 226.26 467.833 228.738 468.505 231.06C469.114 233.161 470.528 234.768 472.443 235.809L472.772 235.983C474.215 236.762 475.574 236.844 477.189 236.989C477.083 233.776 476.556 230.642 476.557 227.399C476.558 226.273 476.475 225.031 476.948 223.983C477.136 223.565 477.556 223.534 477.957 223.369C478.136 223.488 478.421 223.525 478.496 223.727C478.642 224.125 478.502 225.433 478.505 225.914C478.522 228.769 478.183 232.797 479.325 235.453C480.131 237.329 482.938 238.458 484.731 239.112C486.656 239.814 490.109 240.55 492.011 239.53C492.681 239.171 493.124 230.547 493.336 229.237C493.486 228.31 493.807 227.436 494.135 226.56C494.54 228.637 493.802 238.341 494.433 239.16L495.523 239.096C499.352 238.359 498.802 230.625 500.617 228.004L501.104 227.995C503.048 229.979 503.206 234.023 503.493 236.699C504.797 235.927 505.804 235.292 506.816 234.135L507.82 235.543L506.528 237.768L506.472 237.778L505.736 237.528C503.991 238.857 500.526 241.459 498.34 241.688C496.884 240.737 492.478 241.501 490.585 241.522C488.867 241.543 487.111 241.394 485.408 241.169C478.757 240.287 472.295 238.82 466.277 235.758Z" fill="#DADADA"/>
<path d="M219.206 433.43C219.659 433.522 219.823 433.671 220.187 433.94C220.909 435.568 220.565 437.941 220.546 439.707L220.489 450.016L221.279 468.647L222.499 478.621C222.954 481.693 223.682 484.922 222.917 487.996C222.857 488.237 222.785 488.487 222.687 488.715C222.236 489.763 222.037 490.087 221.004 490.535C220.536 490.37 220.024 490.151 219.71 489.737C218.156 487.691 218.097 483.368 217.813 480.804C216.784 471.526 216.574 462.146 216.538 452.817C216.521 448.415 216.307 443.892 216.957 439.531C217.248 437.584 217.581 434.627 219.206 433.43Z" fill="#DADADA"/>
<path d="M301.97 317.957L302.844 317.874C303.153 318.067 303.51 318.264 303.765 318.532C304.251 319.043 304.513 319.86 304.435 320.545C304.302 321.728 303.521 322.988 302.866 323.948C300.346 327.645 296.359 331.002 292.706 333.54C285.214 338.743 275.668 340.237 266.752 338.669C266.125 338.433 265.631 338.227 265.126 337.776C264.031 336.799 263.886 336.164 263.813 334.706C264.23 334.17 264.177 334.246 264.87 334.22C267.603 334.12 270.433 334.094 273.143 333.735C281.699 332.601 288.796 329.617 295.484 324.128C297.619 322.375 299.305 319.844 301.513 318.273L301.97 317.957Z" fill="#DADADA"/>
<path d="M250.218 242.52C250.417 242.463 250.622 242.388 250.836 242.419C251.644 242.538 251.915 242.904 252.415 243.472C252.695 246.242 250.938 249.656 249.882 252.173C247.716 257.333 245.43 262.227 242.658 267.101C240.028 271.724 236.881 275.835 234.954 280.848C237.955 284.146 241.9 285.289 246.209 285.83C247.29 285.965 248.622 285.946 249.601 286.44L249.721 287.047C249.35 287.59 249.086 287.983 248.47 288.258C245.503 289.588 240.756 288.844 237.801 287.798C234.845 286.751 232.945 285.44 231.566 282.53C230.243 275.777 236.845 268.569 240.303 263.299C239.508 262.997 238.707 262.689 237.969 262.265C235.078 260.609 232.988 257.021 232.246 253.807L232.171 253.457C231.628 253.327 230.732 253.194 230.312 252.815C229.851 252.397 229.466 251.348 229.381 250.749C229.274 250.001 229.329 249.611 229.847 249.056C230.862 247.968 232.372 247.505 233.805 247.377C234.687 247.652 235.224 247.901 235.8 248.647C236.839 249.992 236.296 251.755 236.133 253.277C235.982 254.691 236.114 256.222 237.075 257.349C238.381 258.882 240.25 259.016 242.111 259.09C243.052 258.564 243.518 257.169 243.986 256.22L247.149 249.388C248.052 247.173 248.68 244.377 250.218 242.52Z" fill="#DADADA"/>
<path d="M198.956 405.651L199.716 405.633C200.096 405.928 200.566 406.132 200.701 406.617C200.975 407.603 200.8 408.876 200.747 409.892C200.6 412.726 200.144 415.568 199.775 418.383L197.366 436.834C196.235 445.751 194.928 454.736 194.53 463.718L194.203 476.828C194.211 478.493 194.593 480.578 194.409 482.179C194.378 482.448 194.27 482.582 194.139 482.79C193.301 482.932 192.917 482.829 192.136 482.57C191.059 481.629 190.289 480.534 190.026 479.1C189.596 476.743 189.741 474.129 189.737 471.731C189.714 458.824 191.71 446.21 193.415 433.453C194.383 426.202 195.235 418.907 196.924 411.781C197.407 409.741 197.802 407.431 198.956 405.651Z" fill="#DADADA"/>
<path d="M498.34 241.688L497.538 242.277C496.241 243.117 494.565 243.565 493.079 243.959C487.288 245.495 481.524 245.123 475.736 243.803C462.814 240.855 451.232 232.326 442.493 222.668C440.995 221.013 439.204 219.347 438.06 217.42C434.778 211.898 436.401 203.756 438.059 197.933C438.65 195.858 439.533 194.132 441.464 193.059L442.088 193.572C442.897 195.578 441.966 198.937 441.569 201.034C440.931 204.771 440.43 208.987 441.397 212.698L441.496 213.09C441.971 214.882 443.001 216.855 444.284 218.196C445.801 220.177 447.446 222.125 449.309 223.791C450.683 225.221 452.258 226.408 453.77 227.684C455.875 229.46 458.488 231.699 461.041 232.773C462.6 233.999 464.485 234.919 466.277 235.758C472.296 238.82 478.758 240.287 485.408 241.169C487.112 241.394 488.867 241.543 490.585 241.522C492.478 241.501 496.885 240.737 498.34 241.688Z" fill="#DADADA"/>
<path d="M455.418 71.1243C457.921 70.7739 460.518 71.3944 462.832 72.3364C469.364 74.994 475.342 80.4023 478.065 86.9486L479.637 83.4728C482.384 78.3492 486.522 74.0034 492.289 72.459C494.279 71.9264 497.055 72.0315 498.847 73.1602C499.429 73.527 499.503 73.5182 499.65 74.2133C498.287 75.177 496.554 75.4551 494.974 75.9337C492.395 76.7144 489.918 77.9774 487.944 79.8307C484.614 82.9557 481.209 89.1913 481.06 93.8218L482.179 94.0825L485.363 94.3185C487.445 94.6163 491.783 95.3817 493.072 97.0702L492.905 97.6345C490.99 98.3049 487.995 97.7166 485.947 97.5626C481.084 97.1973 475.889 96.4566 471.027 97.0804C470.778 97.1124 469.383 97.262 469.237 97.3941C468.764 97.8241 469.036 100.608 468.289 101.558L467.472 101.253C466.698 100.363 466.324 99.5395 466.279 98.3419C466.248 97.5307 466.457 96.8836 467.042 96.3077C469.372 94.0091 473.416 94.1791 476.426 94.1624C475.224 91.9764 474.208 89.7214 472.837 87.6255C469.229 82.1104 463.871 77.5104 457.421 75.7362C455.675 75.2554 453.12 75.6461 451.677 74.681L451.539 73.9402C452.306 72.3093 453.849 71.7418 455.418 71.1243Z" fill="#DADADA"/>
<path d="M376.41 393.396L377.066 393.271C377.349 393.453 377.741 393.674 377.965 393.941C379.052 395.234 378.72 398.647 378.738 400.303C378.798 405.81 378.533 411.448 378.927 416.935C380.101 433.276 383.46 449.177 386.86 465.18L390.605 483.916C391.001 486.227 391.616 488.695 391.681 491.036C391.704 491.888 391.797 491.997 391.217 492.604L390.128 492.484C389.062 491.865 388.225 491.047 387.844 489.843C386.386 485.235 385.819 480.255 384.78 475.528L379.489 449.933C376.377 434.257 373.67 417.814 374.886 401.791C375.083 399.195 375.182 395.694 376.41 393.396Z" fill="#DADADA"/>
<path d="M97.6366 158.813L93.9981 158.772C94.5827 162.081 95.1586 165.431 95.4484 168.779L95.9052 176.504C96.0214 177.645 96.7767 179.692 96.4027 180.698C95.4716 180.764 95.4302 180.749 94.6379 180.254C92.5391 176.274 92.701 171.061 92.1963 166.684L91.144 159.012C88.3167 158.021 84.6775 157.799 81.7094 157.19C80.5648 156.955 79.121 156.728 78.182 155.993C77.4449 155.416 77.4492 154.849 77.357 154.008C77.4892 153.845 77.5662 153.614 77.7528 153.518C78.4587 153.152 83.1807 154.202 84.1583 154.339C87.7604 154.841 91.1941 154.99 94.8325 154.953C96.3388 154.937 97.9496 155.042 99.4304 154.747C99.7884 154.162 99.9467 153.196 99.8894 152.511C99.8886 152.498 99.7979 151.902 99.7027 151.83C98.7245 151.085 93.6662 151.158 92.2159 150.978C89.1207 150.594 76.8261 148.604 75.0294 146.238C74.5632 145.623 74.6133 145.442 74.7578 144.753C75.5748 144.397 76.8305 144.768 77.6918 144.949L86.1416 146.75C90.8673 147.517 95.5791 147.927 100.35 148.286L100.512 145.385C100.674 143.607 101.629 144.539 102.647 143.66C102.298 142.768 101.618 142.41 100.742 142.041C96.5559 140.274 91.5986 139.513 87.1939 138.256C83.3884 137.17 79.6941 135.742 75.8377 134.827C74.2218 134.444 70.135 134.52 69.1118 133.584L69.1621 132.767C69.3855 132.407 69.6015 132.116 69.9674 131.886C71.4485 130.96 74.2066 130.249 75.9307 130.458C79.4435 130.886 83.3797 132.807 86.772 133.945L102.66 138.704C102.537 137.569 102.03 135.711 102.537 134.717L104.306 134.783C105.971 134.951 106.728 136.158 107.64 137.38L108.432 140.932C108.484 141.59 108.589 142.378 108.424 143.022C108.06 144.445 106.322 146.221 105.54 147.554C105.5 147.622 105.194 148.143 105.195 148.148C105.218 148.3 106.598 149.512 106.828 149.745C106.869 150.552 106.817 150.868 106.393 151.558C105.728 151.908 105.337 152.011 104.586 152.031C104.433 152.595 104.452 152.675 104.493 153.217C104.591 154.523 104.12 155.919 103.258 156.91C101.802 158.584 99.686 158.633 97.6366 158.813Z" fill="#DADADA"/>
<path d="M371.977 379.376C373.769 380.796 375.542 382.057 377.55 383.155L379.152 378.224C373.421 375.346 368.595 371.561 365.047 366.143C362.448 362.172 360.544 357.109 359.06 352.617C356.966 346.286 355.781 339.831 356.543 333.154C356.74 331.435 356.969 329.489 357.719 327.918C358.097 327.128 358.332 326.805 359.081 326.349C359.665 326.653 359.824 326.703 360.076 327.353C360.432 328.271 360.276 329.68 360.291 330.677C360.317 332.567 360.398 334.418 360.624 336.296C361.177 340.88 362.164 345.438 364.088 349.656C367.451 357.025 374.49 364.292 381.419 368.41C384.681 370.348 388.985 372.643 392.765 373.251C393.807 373.419 395.568 373.353 396.067 374.332C394.831 376.356 390.029 378.477 387.699 379.103C386.186 379.508 383.62 379.032 382.041 378.805C381.694 380.805 381.499 382.839 380.093 384.408L380.414 385.828C380.544 386.358 380.502 386.618 380.375 387.132C379.36 387.481 378.281 387.382 377.304 386.939C375.664 386.196 374.191 384.83 372.878 383.632C372.529 383.314 371.863 382.843 371.64 382.438C370.33 381.045 369.075 379.84 368.756 377.872L369.157 377.493C370.207 377.969 371.067 378.681 371.977 379.376Z" fill="#DADADA"/>
<path d="M236.147 378.851L236.935 372.828C236.996 372.431 236.998 371.511 237.17 371.19C237.611 370.365 239.082 369.162 239.8 368.545C242.022 373.922 241.113 380.154 241.012 385.846C240.589 409.479 237.054 433.203 239.577 456.851C240.122 461.957 240.906 467.697 242.697 472.548C243.3 474.874 244.011 477.214 244.925 479.438C245.578 481.031 247.864 484.433 247.787 485.992L247.285 486.09C245.909 486.12 244.551 484.844 243.605 483.968C238.561 479.299 236.794 472.115 235.7 465.564C234.189 456.519 234.243 447.087 234.383 437.942L235.483 403.085C235.837 394.957 236.439 387.003 236.147 378.851Z" fill="#DADADA"/>
<path d="M293.339 409.493L293.434 383.266C293.518 378.852 293.366 374.125 294.284 369.803C294.559 368.511 294.913 367.357 295.912 366.434C296.64 365.761 297.255 365.696 298.213 365.68C298.752 366.574 298.575 368.208 298.598 369.277L298.508 380.197L298.205 416.544C298.396 429.526 299.223 442.558 298.69 455.539C298.397 462.668 297.651 470.1 295.947 477.031C295.215 480.007 294.325 482.941 292.861 485.647C292.436 486.433 291.88 487.503 291.132 488.033C290.408 488.546 289.97 488.533 289.13 488.414C288.577 488.003 288.159 487.704 288.136 486.945C288.065 484.581 289.673 481.111 290.251 478.74C291.07 475.381 291.276 471.842 292.231 468.55C292.31 466.904 291.965 465.324 291.952 463.684L292.098 457.82C292.058 452.771 291.846 447.865 292.383 442.826L293.339 409.493Z" fill="#DADADA"/>
<path d="M293.339 409.493L294.198 443.338L292.383 442.826L293.339 409.493Z" fill="#DADADA"/>
<path d="M292.384 442.826L294.199 443.337C294.26 448.794 294.209 454.097 293.774 459.544C293.565 462.154 293.45 465.019 292.522 467.474L292.232 468.55C292.311 466.904 291.966 465.324 291.952 463.684L292.099 457.82C292.058 452.77 291.846 447.865 292.384 442.826Z" fill="#DADADA"/>
<path d="M264.026 341.107L264.499 341.115C265.231 342.298 265.292 344.502 265.518 345.903C266.911 347.474 268.285 349.032 270.298 349.811C276.959 352.387 286.461 349.979 292.151 345.976C293.926 344.727 295.447 342.691 297.396 341.779L297.882 342.06C297.954 342.626 298.009 343.074 297.886 343.641C296.873 348.309 290.449 352.595 287.032 355.539C283.409 358.658 280.054 361.752 276.034 364.384C273.531 365.985 270.455 367.43 267.58 368.195L267.178 368.296C265.626 368.699 263.031 368.328 261.8 369.055L261.78 370.111C261.312 370.809 260.861 370.827 260.085 371.109L259.63 370.865L259.577 369.021C258.748 368.046 256.054 367.683 254.746 367.081C253.306 366.42 252.035 365.527 250.899 364.426C249.706 363.269 248.597 362 247.754 360.561C246.848 359.014 246.303 356.162 244.97 355.11C244.19 355.016 243.483 355.027 242.889 354.451C242.888 352.451 243.459 350.644 244.833 349.139C245.488 348.421 245.787 348.324 246.74 348.269C247.714 348.649 248.019 349.447 248.583 350.254C249.025 350.886 249.048 350.992 249.847 351.096C253.146 351.53 256.636 350.018 259.297 348.182C259.888 347.774 260.84 347.13 261.207 346.497C261.667 345.706 261.7 344.442 262.018 343.557C262.414 342.452 263.125 341.816 264.026 341.107Z" fill="#DADADA"/>
<path d="M471.762 181.515C472.544 181.607 472.529 181.623 473.075 182.196C473.325 184.421 472.081 186.99 471.456 189.114C470.098 193.723 468.807 198.295 467.071 202.782C473.359 206.362 480.788 208.349 487.887 209.489C488.617 207.148 488.422 203.91 490.27 202.145C490.569 202.042 490.85 201.855 491.166 201.837C492.096 201.787 499.344 206.992 501.229 207.724C498.527 203.938 491.951 202.407 490.284 198.131C489.915 197.184 489.957 196.444 490.349 195.529C491.773 195.484 493.465 196.851 494.689 197.593C499.054 200.236 503.273 202.989 507.183 206.286C508.61 207.488 510.012 209.861 511.728 210.456L512.196 210.178C512.258 209.041 511.711 208.148 511.064 207.229C509.886 205.551 508.123 204.101 506.655 202.677L499.756 195.73C497.272 193.159 495.022 190.865 493.52 187.575C500.106 191.709 505.458 196.794 511.102 202.071C512.994 203.878 514.868 205.752 516.267 207.976C516.427 209.186 516.649 211.488 515.872 212.494C514.104 214.783 509.462 215.332 506.773 215.741C485.92 218.914 464.961 209.113 448.521 196.96C446.823 195.705 443.354 193.309 443.029 191.183C443.303 190.432 443.907 189.829 444.552 189.369C445.749 188.517 447.348 188.313 448.767 188.16C453.274 187.676 458.806 188.186 463.249 189.159C464.312 189.393 465.626 189.679 466.249 190.638C466.115 191.35 466.028 191.793 465.616 192.409C462.854 192.791 459.585 191.592 456.757 191.346C453.903 191.098 451.02 191.217 448.159 191.295L464.477 198.136L466.701 192.017L468.836 187.207C469.62 185.302 470.285 182.989 471.762 181.515Z" fill="#DADADA"/>
<path d="M443.1 232.715L443.591 232.893C443.824 233.369 443.93 233.705 443.957 234.244C444.125 237.662 443.291 241.388 442.506 244.696C438.397 262.005 427.278 278.618 413.041 289.286C410.005 291.561 406.759 293.661 403.288 295.211C402.268 295.666 400.486 295.898 399.628 296.458C399.405 296.601 398.907 297.544 398.745 297.803C397.592 299.652 396.746 301.672 395.582 303.524C394.442 305.336 393.06 307.131 391.632 308.724C391.2 309.205 390.781 309.881 390.128 309.914C389.918 309.571 389.655 309.174 389.539 308.788C388.703 306.02 392.555 301.963 394.102 299.827L396.515 296.131C390.065 297.327 383.573 298.959 377.601 301.732C366.091 307.078 356.392 316.704 348.388 326.401C342.135 333.975 336.568 340.353 327.776 345.159L313.131 351.696C313.226 350.796 313.173 348.58 313.535 347.862C313.795 347.348 315.872 346.541 316.419 346.278C321.44 343.871 326.732 341.48 331.179 338.102C344.625 327.892 352.227 311.562 366.526 302.257C373.718 297.577 381.504 294.942 389.796 292.97C396.581 291.357 403.498 290.42 409.49 286.579C413.379 284.087 416.677 280.49 419.729 277.047C424.951 271.157 429.472 264.486 432.965 257.422C435.391 252.518 437.327 247.339 439.12 242.171C439.992 239.656 440.672 236.918 441.802 234.519C442.155 233.769 442.501 233.283 443.1 232.715Z" fill="#DADADA"/>
<path d="M513.764 220.085C514.024 218.896 514.204 217.772 514.859 216.725C515.443 216.571 516.246 216.737 516.766 217.051C517.427 217.449 517.649 217.947 517.748 218.69C518.57 224.823 515.223 231.914 512.149 237C510.895 239.077 509.37 240.978 508.464 243.242L500.282 266.838C497.227 275.121 493.502 283.31 489.602 291.229C484.052 302.497 477.957 313.254 469.802 322.859C463.58 330.189 456.361 336.625 449.248 343.061L425.657 362.984C418.861 368.333 411.912 373.672 404.265 377.761C398.964 380.596 393.144 382.626 387.244 383.754C392.264 379.349 398.465 376.499 404.083 372.954C409.453 369.565 414.4 365.678 419.429 361.821L450.366 335.757C455.726 330.887 461.359 325.908 465.965 320.305C478.475 305.092 487.328 286.637 494.599 268.456L502.29 246.426C503.428 243.425 505.346 240.777 506.473 237.778L506.529 237.769L507.821 235.543C510.459 230.649 512.864 225.63 513.764 220.085Z" fill="#DADADA"/>
<path d="M117.898 207.681L118.052 207.455C118.513 206.792 118.799 206.45 119.557 206.098C120.531 206.225 121.088 206.561 121.679 207.365C123.969 210.48 122.841 233.188 121.65 237.25C120.48 241.245 116.323 243.683 112.84 245.438C106.223 248.773 99.3628 250.516 92.0822 251.596C81.575 253.153 70.7538 253.198 60.5886 249.773C56.8856 248.526 51.6311 246.948 49.0755 243.975L48.7204 243.575C44.2049 238.366 42.03 228.394 42.6212 221.707C42.7542 220.203 43.0326 218.759 42.9042 217.244C42.8713 216.856 42.9157 216.502 42.9756 216.119C45.0577 214.401 46.9288 212.404 49.0538 210.76C55.2569 205.961 62.8923 204.324 70.5567 203.88L73.94 203.713C74.0453 203.709 75.1703 203.713 75.2189 203.685C75.2204 203.685 75.4796 202.56 75.4956 202.493C76.4049 198.616 77.4325 195.102 79.755 191.806C80.4805 190.776 80.9061 190.399 82.1872 190.442C82.6055 191.169 82.3136 191.674 82.1022 192.469C81.3462 195.313 80.259 198.085 79.381 200.895C78.3287 204.258 77.4398 207.651 76.1529 210.937L72.9654 218.121C79.5568 217.96 86.4481 216.334 92.7693 214.557C93.1309 212.6 93.0598 210.451 93.2079 208.452L94.0206 199.613C94.1615 197.523 93.9472 194.085 95.0591 192.294L95.7272 192.031C96.5907 192.479 97.1354 192.88 97.4274 193.851C98.0904 196.048 98.0926 198.628 98.0919 200.907C100.43 201.205 107.054 201.569 108.504 203.439L107.439 204.773C104.312 204.68 100.925 204.476 97.8631 203.837L97.5617 208.808L97.951 208.729C100.678 208.201 103.619 208.584 106.386 208.672C107.423 208.705 108.919 208.912 109.889 208.466C110.132 208.354 110.715 207.759 110.875 207.54C111.109 207.221 111.174 207.044 111.329 206.707C110.728 205.644 109.003 204.813 108.03 204.012C110.243 203.404 114.202 202.144 116.327 203.404C116.738 203.648 116.979 203.994 117.252 204.375C116.634 206.577 115.025 208.151 113.372 209.654C112.521 210.311 111.596 210.943 110.826 211.692C106.855 214.342 102.473 216.667 97.9604 218.251C94.7592 219.374 91.3923 219.937 88.0516 220.461C80.2336 221.686 71.9065 222.04 64.1083 220.504C61.0312 219.898 56.2306 219.084 53.9833 216.757C53.9051 216.133 53.7649 216.103 54.1675 215.563C54.856 214.64 55.9737 214.208 56.9957 213.754C60.5033 212.195 64.2416 211.211 67.9489 210.256C69.9147 209.75 72.4211 209.517 73.7069 207.796L73.3953 207.436C66.5751 207.894 60.9067 208.486 54.7017 211.617C52.7874 212.583 50.7506 213.74 49.2379 215.286C48.9641 215.565 48.9236 215.646 48.7309 215.931C47.4382 218.155 48.759 228.404 49.4178 230.933C50.2873 234.27 51.698 237.538 53.4633 240.497C53.8694 241.222 54.231 241.975 54.7686 242.611C54.7795 243.606 54.3441 244.643 54.0513 245.587C57.1469 246.048 60.1631 246.899 63.2404 247.447C68.5077 248.386 73.8877 248.765 79.2343 248.738C89.438 248.687 99.5204 246.688 108.864 242.583C111.312 241.507 114.162 240.245 116.021 238.258C116.927 237.29 117.578 236.063 117.878 234.771C118.383 232.596 118.35 230.053 118.413 227.819C118.604 221.094 118.032 214.4 117.898 207.681Z" fill="#DADADA"/>
<path d="M117.195 101.3C117.172 103.247 117.419 104.924 118.053 106.781C116.545 108.147 113.536 110.287 112.973 112.205C113.081 113.176 113.033 113.343 113.702 114.107L114.983 114.362L114.903 114.51C116.796 115.403 118.017 116.777 118.709 118.776C119.439 120.886 119.752 123.154 120.277 125.321C121.634 130.916 124.053 136.637 121.201 142.212C120.893 142.815 120.566 143.292 120.118 143.796C120.163 144.358 120.325 144.67 120.571 145.161C122.258 148.533 121.486 152.638 120.313 156.059L118.778 160.434C118.219 162.105 117.918 163.961 116.425 165.041C115.609 165.058 115.486 165.068 114.791 164.654C114.335 163.124 115.459 160.452 115.828 158.863C116.324 156.727 118.69 146.302 117.908 144.797C117.424 143.863 115.689 142.275 114.791 141.822C114.005 141.424 112.828 141.093 111.965 141.132L110.511 140.528C111.587 140.179 113.372 140.647 114.427 141.026L114.934 141.252L115.489 140.936C116.338 139.455 118.043 136.903 117.738 135.164C117.595 134.35 117.383 134.297 116.754 133.83C114.036 133.729 111.423 134.18 108.665 133.932L103.696 133.303C102.837 133.173 101.755 132.86 100.893 132.98C100.304 133.062 100.472 134.025 99.8816 134.295C99.0217 134.688 97.2852 134.693 96.4087 134.285C95.6432 133.927 95.4195 133.356 95.1102 132.63C95.2155 132.053 95.2852 131.709 95.6519 131.234C95.9729 130.819 96.4247 130.404 96.5793 129.891C96.8553 128.973 96.4733 127.831 95.9766 127.072C93.9779 126.101 91.065 125.968 88.8529 125.411C85.3589 124.533 81.841 122.975 78.3042 122.403C77.2475 122.231 76.2969 122.368 75.2693 122.632C73.6853 123.041 69.2083 124.398 68.3918 125.808C62.2553 136.402 61.878 149.385 65.1726 161.01C67.032 167.57 70.6135 173.364 76.6222 176.781C78.6194 177.916 80.931 178.719 82.8432 179.948C83.592 180.43 83.9674 180.657 84.1497 181.516C82.637 182.157 79.8221 181.139 78.2468 180.644C72.1638 178.735 67.5327 174.656 64.6568 168.988C58.8849 157.611 58.2237 142.102 62.267 130.063C64.3801 123.772 67.4664 116.175 71.6797 110.953C72.8051 109.558 74.2118 108.098 75.8473 107.329C78.0377 106.301 80.6732 105.867 82.979 106.747C83.8636 107.085 86.1331 105.922 87.2116 105.69C90.7956 104.918 94.166 104.361 97.8445 104.211C99.4967 104.211 101.318 104.063 102.945 104.295C103.391 104.359 103.708 104.316 104.153 104.281C106.779 104.07 109.661 104.444 112.141 105.305L112.468 105.709C112.93 105.395 112.769 105.471 113.196 105.283C114.165 104.857 114.91 104.518 115.62 103.695L116.053 103.221L116.562 103.018C117.141 102.666 117.087 101.912 117.195 101.3Z" fill="#DADADA"/>
<path d="M99.8133 125.334C103.021 125.471 106.078 126.01 109.231 126.564L109.48 126.432L109.872 126.23C111.853 125.162 114.305 125.322 116.508 125.263L116.782 129.498L116.215 130.063C111.391 131.458 104.727 129.809 99.7966 129.053L99.8133 125.334Z" fill="#141414"/>
<path d="M76.6766 110.162C76.9961 110.068 77.2837 109.986 77.6171 109.962C81.9142 109.645 88.5811 112.792 91.7156 115.606L90.067 120.566C86.8541 118.9 84.398 117.429 80.7283 117.01C80.2504 117.097 79.9737 117.141 79.5794 117.451C79.1349 117.8 79.2751 119.096 79.177 119.693C75.4943 119.884 72.1305 120.653 69.3828 123.232L69.1136 123.49C70.409 119.51 72.9851 112.41 76.6766 110.162Z" fill="#141414"/>
<path d="M117.195 101.3C117.172 103.247 117.419 104.924 118.053 106.781C116.545 108.147 113.536 110.287 112.973 112.205C113.081 113.176 113.033 113.343 113.702 114.107L114.983 114.362L114.903 114.51L113.838 114.64L113.521 115.065C113.881 117.273 115.071 119.457 115.952 121.506L104.049 121.654C102.863 121.688 99.904 122.206 98.9955 121.689C99.164 121.038 99.31 120.526 99.2686 119.847C97.9025 119.508 96.3868 119.641 94.9852 119.643C94.9314 119.176 94.9176 119.402 95.0513 118.891C95.4957 117.197 95.617 115.622 95.6947 113.876C93.4405 111.705 90.7243 110.449 87.9879 109.006L96.5001 107.984C97.8764 107.85 100.868 108.035 101.997 107.371L102.309 107.173C104.911 107.771 108.812 108.173 111.084 109.504L110.997 110.037C111.318 110.803 111.369 111.513 111.44 112.328C112.023 110.1 112.319 108.006 112.468 105.709C112.93 105.395 112.769 105.471 113.196 105.283C114.164 104.857 114.91 104.518 115.62 103.695L116.053 103.221L116.562 103.018C117.141 102.666 117.087 101.912 117.195 101.3Z" fill="#141414"/>
<path d="M110.997 110.037C111.318 110.803 111.369 111.512 111.44 112.328C111.058 114.49 111.426 116.834 111.598 119.013L111.252 119.38C110.261 119.349 109.603 119.386 108.8 118.762C108.636 118.303 108.546 117.96 108.545 117.466C108.543 114.255 108.694 112.413 110.997 110.037Z" fill="#141414"/>
<path d="M48.731 215.93C48.9237 215.646 48.9642 215.565 49.238 215.285C50.7507 213.74 52.7875 212.582 54.7018 211.616C60.9068 208.486 66.5752 207.894 73.3954 207.436L73.707 207.796C72.4212 209.517 69.9149 209.749 67.949 210.256C64.2417 211.211 60.5034 212.194 56.9958 213.754C55.9739 214.208 54.8561 214.64 54.1676 215.563C53.765 216.102 53.9052 216.133 53.9835 216.757C56.2307 219.084 61.0313 219.898 64.1084 220.504C71.9066 222.04 80.2337 221.686 88.0517 220.461C91.3924 219.937 94.7593 219.374 97.9605 218.251C102.473 216.667 106.856 214.342 110.826 211.692C111.596 210.942 112.521 210.311 113.372 209.654L113.658 210.133C114.475 210.115 114.902 210.133 115.636 210.511L116.288 210.838C116.889 211.013 117.017 210.99 117.515 210.658C117.502 209.815 117.457 208.983 117.725 208.173L117.898 207.681C118.032 214.399 118.604 221.094 118.413 227.819C118.35 230.053 118.383 232.595 117.878 234.771C117.578 236.062 116.927 237.29 116.021 238.258C114.162 240.245 111.312 241.507 108.864 242.583C99.5205 246.687 89.4381 248.687 79.2344 248.737C73.8878 248.764 68.5078 248.386 63.2406 247.447C60.1633 246.899 57.147 246.047 54.0514 245.587C54.3442 244.642 54.7796 243.606 54.7687 242.611C54.2311 241.975 53.8695 241.222 53.4634 240.497C51.6981 237.538 50.2874 234.27 49.4179 230.933C48.7591 228.403 47.4383 218.155 48.731 215.93Z" fill="#141414"/>
<path d="M53.4634 240.497C51.6981 237.538 50.2874 234.27 49.4179 230.933C48.7591 228.404 47.4383 218.155 48.731 215.93C49.4192 216.195 49.5066 216.131 49.8227 216.783L49.7255 217.293C49.2972 219.893 50.0878 223.288 50.4898 225.887C50.8836 228.433 51.1311 231.091 51.7339 233.595C52.2809 235.866 53.8185 238.19 53.4634 240.497Z" fill="#141414"/>
<path d="M113.372 209.654L113.658 210.133C114.475 210.115 114.902 210.134 115.636 210.511L116.288 210.838C116.889 211.013 117.017 210.99 117.515 210.658C117.502 209.816 117.457 208.983 117.725 208.173L117.898 207.681C118.033 214.4 118.604 221.094 118.413 227.819C118.35 230.053 118.383 232.596 117.878 234.771C117.578 236.063 116.927 237.29 116.022 238.258C114.162 240.245 111.313 241.507 108.865 242.583C99.5207 246.688 89.4383 248.687 79.2346 248.738C73.888 248.765 68.5079 248.386 63.2407 247.447C60.1634 246.899 57.1472 246.048 54.0516 245.587C54.3444 244.642 54.7798 243.606 54.7689 242.611L55.2924 242.682C56.2279 242.67 57.2999 242.433 58.2811 242.395C58.3996 242.3 58.5907 242.255 58.6366 242.111C58.7287 241.82 58.3375 240.289 58.274 239.88C57.9063 237.516 57.7228 235.288 57.7149 232.899C57.7123 232.115 57.5884 231.096 57.8784 230.376C58.0193 230.027 58.2366 230.029 58.5534 229.887C60.1018 231.041 59.9086 236.012 60.2538 238.021C60.543 239.703 60.9453 241.076 61.8013 242.575C63.8206 243.584 66.1499 243.953 68.3503 244.372C68.4456 239.365 67.3466 234.034 68.6547 229.134C69.504 231.081 69.6886 233.348 69.963 235.439L71.1799 244.484C73.1349 244.871 75.1684 244.815 77.1554 244.847C77.3943 240.831 76.6986 235.803 78.2977 232.071L78.8424 232.056C79.4467 232.953 79.4706 234.506 79.4982 235.575L79.5251 244.813L85.8674 244.326C86.4222 239.809 85.2159 235.146 85.8579 230.52C86.3852 231.942 86.887 233.315 87.1717 234.808L89.0083 243.82C91.0563 243.432 93.8807 243.088 95.4196 241.559C95.888 241.093 96.2824 240.509 96.4044 239.851C96.7109 238.192 96.4727 236.018 96.3528 234.333L96.0892 227.655C96.8488 228.702 97.5787 229.866 97.9941 231.097C98.4647 232.487 98.7719 233.862 99.0406 235.304C99.2222 236.281 99.2476 237.58 99.9492 238.326C101.31 238.286 102.667 238.069 103.752 237.161C103.958 236.989 104.39 236.562 104.504 236.344C105.023 235.352 104.794 233.582 104.775 232.464C104.721 229.261 104.53 226.102 104.689 222.896C105.255 223.824 105.82 224.749 106.129 225.799C106.833 228.189 107.159 230.711 107.837 233.124C108.058 233.909 108.215 234.808 108.8 235.408C109.301 235.49 109.743 235.553 110.25 235.489C111.429 235.341 112.396 234.845 113.111 233.883C116.409 229.443 112.198 217.169 111.395 212.027L110.826 211.692C111.597 210.943 112.521 210.311 113.372 209.654Z" fill="#DADADA"/>
<path d="M52.6578 251.506C52.8526 251.562 53.0881 251.542 53.2424 251.674C53.6157 251.992 53.9146 253.026 54.0466 253.477C54.9141 256.436 55.2525 259.685 55.7365 262.727C57.8496 276.012 62.167 289.086 69.8253 300.256C72.3717 303.969 75.4904 307.32 78.5203 310.637C84.9352 317.661 91.6711 324.067 98.8856 330.265C119.777 348.212 142.104 365.406 165.561 379.866C170.7 383.034 175.779 386.477 181.391 388.766C186.984 391.048 194.184 392.438 200.212 391.861C204.447 391.456 207.064 388.886 209.622 385.771C215.246 378.919 226.533 361.182 225.278 352C224.834 348.745 222.614 346.017 220.588 343.569C215.711 337.675 210.048 332.928 204.016 328.268C203.727 330.931 203.74 333.653 203.272 336.293C203.122 337.133 203.018 338.054 202.485 338.743L201.94 338.589C200.103 336.139 201.128 329.621 201.259 326.631C178.524 317.129 156.277 304.947 139.206 286.833C132.223 279.422 126.71 270.732 123.777 260.949C123.191 258.997 122.445 256.605 122.54 254.562C122.586 253.574 122.51 253.434 123.234 252.763L124.051 252.995C125.6 254.683 126.51 257.481 127.468 259.57C130.142 265.663 133.338 271.828 137.313 277.169C143.185 285.057 150.73 291.59 158.5 297.532C166.082 303.331 173.868 308.477 182.344 312.889L201.634 322.047C210.534 326.469 218.611 333.087 224.767 340.884C226.644 343.261 228.616 345.883 229.509 348.824C231.248 354.551 227.88 360.673 225.569 365.751C224.891 367.239 223.982 368.886 223.694 370.501C223.426 372.007 223.861 373.75 223.926 375.285C224.12 379.81 223.037 384.957 221.099 389.039C219.442 392.528 217.056 395.514 214.566 398.434C213.356 399.855 211.945 401.233 210.897 402.77C209.825 404.343 209.195 406.462 208.281 408.177C207.885 406.163 208.048 402.115 206.947 400.613C205.489 398.622 202.231 398.828 200.034 398.628C198.033 398.447 196.015 398.204 194.05 397.78C183.809 395.571 174.777 390.358 165.854 385.095C150.071 375.784 135.537 365.166 121.036 354.01L96.3909 334.059C90.0015 328.662 83.559 323.17 77.7033 317.19C73.0089 312.396 68.521 307.085 64.9008 301.432C57.338 289.624 52.9748 275.502 51.5425 261.618C51.2864 259.135 50.7601 255.42 51.3894 253.004C51.6278 252.09 51.853 251.991 52.6578 251.506Z" fill="#DADADA"/>
<path d="M479.056 168.831L479.065 169.94C478.63 170.638 478.441 171.038 477.571 171.166C474.987 171.545 470.999 168.741 469.137 167.049C466.427 164.584 464.612 161.513 462.93 158.291C458.148 149.134 455.268 138.138 454.706 127.828L450.285 132.398C448.692 134.326 448.636 135.813 448.859 138.236C449.743 147.812 452.151 160.001 458.484 167.521C460.786 170.254 463.488 172.184 466.206 174.434C465.954 175.078 465.737 175.095 465.186 175.477C463.791 175.682 462.579 174.973 461.405 174.296C453.684 169.847 450.214 160.923 448.029 152.73C446.426 146.724 443.565 136.984 447.425 131.415C448.941 129.229 451.197 127.524 452.599 125.256C453.325 124.084 453.805 122.764 454.546 121.6C455.48 120.131 456.76 118.934 457.64 117.416C459.677 113.905 461.135 110.036 463.195 106.485C463.086 105.866 463.071 105.371 463.128 104.745C463.437 104.345 463.788 103.69 464.267 103.511C465.562 103.027 467.707 103.246 469.147 103.099L487.594 101.412C490.233 101.208 493.265 101.568 495.804 100.883L496.204 100.765L497.322 100.419C504.707 97.6002 509.446 89.9159 512.483 83.026C516.122 74.7701 517.859 64.9506 516.728 55.9457C515.962 49.8493 513.758 43.5071 511.523 37.789L509.711 39.3531C508.715 40.2317 507.665 40.4577 506.495 41.0139C503.964 42.2169 501.669 43.4938 498.941 44.2105C494.185 45.4602 489.023 44.4657 485.01 41.6667C481.573 39.2688 478.777 36.529 474.61 35.3899C470.452 34.2536 464.892 36.7852 461.332 38.847C453.4 43.4417 445.636 51.2639 443.354 60.3555C440.41 72.085 445.83 82.6665 453.115 91.5594C455.165 94.0613 457.836 96.4695 459.436 99.2684L459.166 99.6577C458.315 99.7492 457.783 99.6657 456.994 99.3171C449.9 96.1812 443.962 86.7436 441.312 79.787C438.098 71.3515 437.815 62.4711 441.579 54.1749C444.168 48.4714 448.729 44.2729 453.539 40.4061C456.918 37.6896 460.368 35.1974 464.479 33.688C468.613 32.17 474.483 30.7004 478.47 33.2608C481.774 35.3824 484.465 38.0857 488.124 39.7114C493.645 42.1657 499.611 40.686 504.732 37.9959C506.06 37.2986 507.64 36.5022 508.767 35.5131C509.959 34.4667 510.135 32.4955 511.728 31.8796C513.018 32.3271 513.901 33.1725 514.593 34.3426C516.193 37.0459 517.294 40.1327 518.243 43.1144C521.795 54.2696 521.686 66.4379 518.751 77.7426C516.875 84.9723 513.373 91.4381 508.941 97.407C507.222 99.7216 505.293 102.225 502.762 103.69C498.327 106.258 494.403 106.031 489.636 104.734C490.787 106.142 493.029 108.29 493.273 110.125C493.425 111.272 493.245 112.61 493.188 113.769C493.161 114.298 492.937 115.556 493.066 116.019C493.141 116.289 495.959 117.965 496.422 118.604C497.622 120.26 496.391 124.162 496.109 126.123L497.157 126.971C497.715 127.406 498.321 127.814 498.791 128.349C500.995 130.85 502.391 136.568 502.187 139.784C502.02 142.435 500.707 147.281 498.712 149.066L498.247 148.996C497.674 147.542 497.547 144.398 497.964 142.877C498.281 141.722 498.889 140.52 498.959 139.321C499.111 136.742 496.903 133.119 495.278 131.177C492.685 130.842 489.149 130.404 486.57 130.742C484.598 131.001 482.521 132.272 480.46 132.674C476.265 133.492 470.759 133.533 466.928 135.389C466.065 135.807 465.76 135.973 465.416 136.851C465.526 137.708 465.51 138.41 466.219 139.03C467.459 140.113 479.913 141.859 482.199 141.894C485.667 141.946 489.057 141.539 492.504 141.258C493.723 141.159 494.516 141.053 495.475 141.865C495.613 142.618 495.717 142.725 495.362 143.388C493.579 144.014 491.439 143.955 489.558 144.142C486.41 144.456 483.375 145.109 480.186 145.093C477.538 145.08 475.18 144.558 472.651 143.86L470.765 145.783C471.908 146.672 473.203 147.553 474.238 148.561C474.786 149.097 475.231 149.776 475.845 150.24C476.608 150.816 477.742 151.068 478.659 151.318C482.414 152.344 486.445 152.538 490.307 152.148C492.124 151.964 494.567 151.28 496.341 151.669L496.403 152.208C496.007 152.648 495.601 153.079 495.114 153.42C489.916 157.061 483.948 156.13 478.103 155.171L477.707 155.791L478.565 158.458C478.306 159.274 478.34 159.405 477.531 159.81C476.968 160.093 476.322 160.154 475.705 160.236L475.73 166.623C476.903 167.261 478.084 167.902 479.056 168.831Z" fill="#DADADA"/>
<path d="M486.683 120.206C488.832 120.098 491.852 119.538 493.682 120.782C494.428 122.026 494.352 123.366 494.123 124.763L494.057 125.14C493.851 126.361 493.23 127.236 492.571 128.257C489.594 128.266 486.304 127.942 483.376 128.425L468.571 131.101L463.796 131.843C462.532 131.88 462.208 131.381 461.332 130.587L461.419 130.042C465.015 127.218 469.161 124.785 473.578 123.53C475.494 122.984 477.553 122.697 479.383 121.912C481.793 120.879 484.1 120.523 486.683 120.206Z" fill="#141414"/>
<path d="M475.73 166.623C470.097 163.443 465.794 156.253 463.44 150.398C460.434 142.919 458.09 134.456 458.158 126.363C458.173 124.496 458.097 122.702 458.853 120.953C459.715 118.958 461.146 117.359 462.292 115.537C463.945 112.911 465.264 110.102 466.484 107.256C468.218 107.24 471.375 107.783 472.942 107.311L473.235 107.206C476.086 106.355 483.055 105.351 485.709 106.842C487.13 107.641 488.037 108.925 488.512 110.458L488.626 110.842C489.166 112.633 489.149 114.409 489.187 116.264C483.888 116.331 478.79 117.729 473.718 119.132L473.27 112.938C473.222 112.16 473.314 111.073 472.783 110.471L471.285 111.119C470.42 113.477 470.799 117.081 470.796 119.623C466.603 121.319 463.159 123.484 459.61 126.28L460.058 129.362L459.166 130.723C459.105 131.709 459.079 132.654 459.472 133.583C460.039 134.92 461.109 135.323 462.384 135.796L462.706 135.913L462.761 136.177C462.06 136.71 461.757 136.96 461.411 137.804C461.504 139.202 462 140.658 462.909 141.748C464.159 143.247 466.531 143.24 468.335 143.463L465.989 148.102C467.974 151.866 470.937 155.638 474.104 158.457L474.106 158.116C473.996 156.715 473.555 155.332 474.211 154.008C475.057 153.755 475.278 154.045 476.051 154.422L476.131 154.994C476.741 155.466 476.928 155.689 477.707 155.791L478.565 158.458C478.306 159.274 478.339 159.405 477.531 159.81C476.967 160.093 476.322 160.153 475.704 160.236L475.73 166.623Z" fill="#141414"/>
<path d="M476.132 154.994C476.741 155.465 476.929 155.689 477.707 155.791L478.566 158.458C478.306 159.274 478.34 159.405 477.532 159.81C476.968 160.093 476.322 160.153 475.705 160.236C475.168 158.632 475.464 156.523 476.132 154.994Z" fill="#141414"/>
<path d="M82.103 102.107L82.7247 103.217C82.4785 103.909 81.9825 104.285 81.294 104.596C80.3688 105.012 79.5917 104.621 78.7311 104.192C75.9714 102.816 73.5697 100.638 71.2251 98.6607C68.0655 95.9968 64.8269 93.3751 62.1546 90.1985C58.9648 86.4076 56.6854 81.9041 55.199 77.1923C52.3428 68.1365 52.9346 57.8555 55.4213 48.7713C55.9985 46.6628 56.6067 44.2844 57.5802 42.3226C57.9132 41.6516 58.2231 41.0687 58.9617 40.8058C59.905 40.4701 61.3152 40.6738 62.3037 40.7531C66.0877 41.0565 69.9469 41.7503 73.6496 42.5804C75.0018 42.8837 77.2619 43.7213 78.5706 43.5467C80.4646 43.2939 83.5417 38.1302 84.8482 36.5741C92.0772 27.964 102.146 21.1663 113.112 28.1138C115.906 29.8841 118.149 32.2279 119.512 35.2682C119.836 35.9893 120.238 37.7113 120.785 38.1605L121.046 37.998C124.139 36.1198 127.839 35.8949 131.304 36.7521C135.992 37.9118 140.242 43.8641 142.535 47.8768C147.753 57.007 147.475 68.0543 144.636 77.9614C141.502 88.9 133.348 97.7965 125.574 105.775C122.86 108.562 120.016 111.742 116.549 113.608L114.983 114.362L113.702 114.106C113.033 113.343 113.081 113.176 112.973 112.204C113.535 110.287 116.545 108.147 118.053 106.781C117.419 104.924 117.172 103.247 117.195 101.3C117.087 101.912 117.141 102.665 116.562 103.018L116.053 103.221L115.62 103.695C114.91 104.518 114.164 104.856 113.196 105.283C112.769 105.471 112.93 105.395 112.468 105.709L112.141 105.305C109.661 104.444 106.779 104.07 104.153 104.28C103.708 104.316 103.391 104.359 102.945 104.295C101.318 104.062 99.4965 104.211 97.8443 104.211L98.081 103.948L106.213 103.902C106.794 103.513 107.169 103.628 107.847 103.628C108.089 103.869 110.073 104.17 110.532 104.215L110.843 104.24C111.247 104.541 111.442 104.444 111.932 104.445L112.338 104.715C112.838 104.926 113.383 104.854 113.838 104.579L114.179 104.308L114.52 104.306C114.917 103.93 115.435 103.487 115.609 102.945C115.793 102.367 115.376 102.101 115.065 101.651L114.383 101.583L113.975 101.311C113.629 101.509 113.38 101.691 113.08 101.961C112.286 102.673 111.692 102.357 110.953 103.095C110.239 103.809 108.015 103.086 107.046 103.275L106.757 103.351L105.675 102.625C101.223 101.916 96.0505 102.398 91.5529 102.75C89.6763 102.897 87.3421 103.371 85.4888 103.092C84.5199 102.947 84.4299 102.468 83.9252 101.719L83.6085 101.855L83.3362 102.264L83.0638 101.994L82.103 102.107Z" fill="#DADADA"/>
<path d="M102.071 28.6723C104.296 28.5228 106.167 28.7281 108.245 29.5765C111.683 30.9802 115.121 33.8625 116.505 37.341C116.683 37.7889 117.365 39.23 117.337 39.6452C117.314 39.9857 115.389 42.0545 115.099 42.4241C113.821 44.0487 112.806 45.8096 112.017 47.7175L111.854 48.116C110.396 45.9882 108.597 44.2458 106.663 42.5553C104.499 40.9777 102.148 39.651 99.6727 38.6276C94.9448 36.6726 92.0922 37.1218 87.5002 39.027C91.5308 33.892 95.6856 30.4032 102.071 28.6723Z" fill="#141414"/>
<path d="M66.0531 87.7467C63.738 84.9201 61.7075 81.4807 60.1842 78.1617C57.906 73.1986 57.2001 68.0796 57.8126 62.6383C58.0694 60.3582 58.6797 58.1263 58.9542 55.8669C59.1269 54.445 58.5549 52.9196 59.0706 51.5193L59.1977 51.2L60.4514 45.611C61.1255 45.2929 62.2816 45.5913 63.047 45.6836C65.2438 45.9486 79.3296 49.6022 80.191 48.4538C82.3719 45.5433 87.0801 41.175 90.6895 40.6375C95.5139 39.919 101.473 42.5694 105.185 45.503C107.192 47.0894 109.019 48.9973 110.177 51.2859L110.628 52.1455C107.459 51.7585 104.107 51.1425 100.914 51.569C98.1538 51.9378 95.3563 52.8424 92.9713 54.2973C91.9909 54.8951 90.903 55.7761 89.8311 56.1695C88.9502 56.4927 87.6988 56.3967 86.7707 56.3615C82.3196 56.1929 78.0485 55.2267 74.1167 53.1117C72.2905 52.1293 70.2819 50.7232 68.2214 50.3672L67.8752 50.7915C68.5699 53.2954 70.6606 54.9432 72.8479 56.1657C76.9679 58.4681 84.8825 60.3452 89.5362 59.1224L90.2806 58.8817L90.6459 58.7657C92.7847 58.0406 94.601 56.5293 96.6592 55.6043C101.405 53.4717 107.957 54.56 112.539 56.7007C118.296 59.3902 123.6 64.0641 125.73 70.1947C127.492 75.2655 127.339 82.1546 126.141 87.3523C125.272 91.1266 123.943 94.7208 123.246 98.5466C128.251 93.8137 130.015 87.8222 130.194 81.0442C130.267 78.2627 130.084 75.7346 129.613 73.0018C128.496 66.5205 124.484 60.468 119.131 56.7018L113.809 53.632C114.634 51.8254 115.6 49.8634 117.188 48.6128C116.605 48.5724 116.658 48.6442 116.154 48.2509C117.825 44.5647 121.224 42.0238 124.938 40.6169C127.068 39.8095 129.383 39.2845 131.537 40.3019C132.455 40.7357 133.217 41.3012 133.818 42.1307C134.707 43.3588 135.091 45.0283 135.801 46.3841C137.775 50.1496 140.319 53.308 141.667 57.4329C142.171 58.9771 142.537 60.4815 142.739 62.0937C144.298 74.532 138.876 83.3631 131.545 92.8834C127.657 97.9322 123.225 103.031 118.053 106.781C117.419 104.924 117.172 103.247 117.195 101.3L117.652 99.7667C121.802 93.7665 124.012 84.8323 123.203 77.5575C122.983 75.5734 122.682 73.6583 122.023 71.7617C119.816 65.4124 114.39 59.8072 108.353 56.9683C102.484 54.2077 97.9018 58.8599 92.7164 60.6484L92.325 60.7721C91.5058 61.0505 90.6859 61.2042 89.8725 61.4598C87.6204 62.1674 83.1932 61.9844 80.8482 61.3963C78.1328 60.7154 75.5786 59.8647 72.9373 58.9503C71.9727 58.6165 70.5725 57.8387 69.5831 57.7483C69.3075 57.7231 68.6355 57.8799 68.3576 57.9887C60.6659 60.9989 65.3502 77.5568 66.0109 83.5112C66.1711 84.9543 66.6599 86.4169 66.0531 87.7467Z" fill="#141414"/>
<path d="M120.555 47.1168C122.261 47.0041 124.229 47.0246 125.85 47.6348L126.19 47.7676C127.775 48.3398 129.395 49.0569 130.742 50.0819L134.416 53.1074C138.862 57.3756 139.101 62.6596 139.359 68.359C139.475 70.9186 139.081 74.1406 138.144 76.5452C137.599 77.9461 136.783 79.2556 136.137 80.6114C135.384 82.1903 134.874 83.5752 133.702 84.9289L133.311 84.6174C134.531 82.2905 135.469 79.6455 136.034 77.079C137.637 69.8 137.662 60.5964 133.736 54.0597C132.614 52.1917 131.012 51.0887 129.226 49.9177C128.261 49.2854 127.517 49.0017 126.503 48.5338C125.993 48.299 125.86 48.0657 125.261 48.0244L124.868 48.0118C123.231 47.6954 120.761 47.5001 119.139 48.0583L118.196 48.3379L117.79 48.0682L118.197 47.6721L118.877 47.5262C119.507 47.3121 119.871 47.2023 120.555 47.1168Z" fill="#141414"/>
<path d="M66.0528 87.7465C66.6596 86.4168 66.1709 84.9541 66.0107 83.5111C65.35 77.5566 60.6657 60.9988 68.3574 57.9885C68.6353 57.8797 69.3073 57.723 69.5829 57.7482C70.5722 57.8385 71.9724 58.6163 72.937 58.9501C75.5784 59.8646 78.1326 60.7152 80.848 61.3962C83.193 61.9842 87.6202 62.1673 89.8722 61.4596C90.6856 61.2041 91.5056 61.0503 92.3248 60.772L92.7162 60.6483C97.9016 58.8597 102.483 54.2075 108.353 56.9681C114.389 59.807 119.816 65.4123 122.023 71.7616C122.682 73.6582 122.983 75.5733 123.203 77.5573C124.012 84.8321 121.802 93.7663 117.652 99.7665L117.195 101.3C117.087 101.912 117.14 102.665 116.562 103.018L116.053 103.221L115.62 103.695C114.91 104.518 114.164 104.856 113.195 105.282C112.769 105.47 112.93 105.395 112.468 105.709L112.141 105.305C109.661 104.444 106.779 104.07 104.153 104.28C103.708 104.316 103.39 104.359 102.945 104.295C101.318 104.062 99.4964 104.21 97.8442 104.21L98.0809 103.948L106.213 103.902C106.794 103.512 107.168 103.628 107.847 103.628C108.089 103.868 110.073 104.17 110.532 104.215L110.842 104.239C111.247 104.541 111.442 104.444 111.932 104.445L112.338 104.715C112.838 104.926 113.383 104.854 113.838 104.579L114.179 104.308L114.519 104.306C114.917 103.93 115.435 103.487 115.609 102.945C115.793 102.366 115.376 102.101 115.065 101.651L114.383 101.583L113.975 101.311C113.629 101.509 113.38 101.691 113.08 101.961C112.286 102.673 111.692 102.356 110.953 103.095C110.239 103.809 108.014 103.085 107.046 103.275L106.757 103.351L105.675 102.624C101.223 101.916 96.0504 102.398 91.5528 102.75C89.6762 102.897 87.342 103.371 85.4887 103.092C84.5198 102.947 84.4298 102.468 83.9251 101.719L83.6084 101.855L83.3361 102.263L83.0637 101.994L82.1029 102.107L81.8988 102.088L74.9567 95.6669C72.025 93.2049 68.3298 90.8127 66.0528 87.7465Z" fill="#141414"/>
<path d="M83.9253 101.719C84.1185 101.286 84.3 100.882 84.6072 100.515C86.3916 98.3798 90.8558 97.9564 93.5066 97.7168L93.5596 97.3827C93.4971 96.5809 93.0875 95.5555 92.8544 94.7748C91.2792 89.5081 87.8593 83.7707 84.2993 79.6116C79.9745 74.5606 75.405 72.1138 68.7661 71.6171C68.538 71.0716 68.5107 70.8869 68.7016 70.286C68.9853 69.3926 69.8747 68.7537 70.6977 68.3918C72.8378 67.4508 75.3585 68.2182 77.4254 69.0221C86.3509 72.4942 92.3322 81.2696 96.0085 89.7535L96.2242 90.2597C96.4805 89.3548 96.7296 88.3831 97.1646 87.5465C99.2875 83.4621 104.479 78.6442 109.005 77.4815C110.259 77.1591 111.761 77.2389 112.886 77.894L113.013 78.5709C111.82 79.9101 110.023 80.0437 108.542 80.9515C107.22 81.762 106.133 82.9058 105.048 84.001C108.088 86.1753 110.005 88.5944 111.14 92.1879L111.268 92.5771L112.765 99.3443C112.907 100.014 113.366 100.703 113.975 101.053C114.351 101.27 114.913 101.506 115.34 101.249C115.829 100.954 115.685 100.909 116.019 100.495L117.003 99.6384L117.652 99.7669L117.195 101.3C117.087 101.912 117.141 102.665 116.562 103.018L116.053 103.221L115.62 103.695C114.91 104.518 114.165 104.856 113.196 105.283C112.769 105.471 112.93 105.395 112.468 105.709L112.141 105.305C109.661 104.444 106.779 104.07 104.153 104.281C103.708 104.316 103.391 104.359 102.945 104.295C101.318 104.063 99.4966 104.211 97.8444 104.211L98.0812 103.949L106.213 103.902C106.794 103.513 107.169 103.628 107.847 103.628C108.089 103.869 110.073 104.17 110.532 104.215L110.843 104.24C111.247 104.541 111.442 104.444 111.932 104.445L112.338 104.716C112.838 104.926 113.383 104.854 113.838 104.579L114.179 104.308L114.52 104.307C114.917 103.93 115.435 103.487 115.609 102.945C115.793 102.367 115.377 102.101 115.065 101.652L114.383 101.583L113.975 101.311C113.629 101.509 113.38 101.691 113.08 101.961C112.286 102.673 111.692 102.357 110.953 103.095C110.239 103.809 108.015 103.086 107.047 103.275L106.758 103.351L105.675 102.625C101.223 101.917 96.0506 102.398 91.553 102.75C89.6764 102.897 87.3422 103.371 85.4889 103.092C84.5201 102.947 84.43 102.469 83.9253 101.719Z" fill="#DADADA"/>
<path d="M105.675 102.625L110.298 102.654C111.112 102.185 111.244 101.859 111.61 101.038L111.176 100.426C107.262 98.3303 101.798 98.1023 97.4654 98.0021C98.8111 92.4158 101.201 88.1993 105.048 84.0009C108.088 86.1752 110.005 88.5943 111.141 92.1878L111.268 92.577L112.765 99.3442C112.907 100.014 113.366 100.703 113.975 101.053C114.351 101.269 114.913 101.506 115.34 101.249C115.829 100.954 115.685 100.908 116.019 100.495L117.003 99.6383L117.652 99.7668L117.195 101.3C117.087 101.912 117.141 102.665 116.562 103.018L116.053 103.221L115.62 103.695C114.91 104.518 114.165 104.856 113.196 105.283C112.77 105.471 112.93 105.395 112.468 105.709L112.141 105.305C109.661 104.444 106.779 104.07 104.153 104.28C103.708 104.316 103.391 104.359 102.945 104.295C101.318 104.063 99.4967 104.211 97.8445 104.211L98.0813 103.949L106.213 103.902C106.794 103.513 107.169 103.628 107.847 103.628C108.09 103.869 110.073 104.17 110.532 104.215L110.843 104.24C111.247 104.541 111.442 104.444 111.932 104.445L112.338 104.715C112.838 104.926 113.383 104.854 113.839 104.579L114.179 104.308L114.52 104.307C114.917 103.93 115.436 103.487 115.609 102.945C115.793 102.367 115.377 102.101 115.065 101.651L114.383 101.583L113.975 101.311C113.629 101.509 113.38 101.691 113.08 101.961C112.287 102.673 111.692 102.357 110.953 103.095C110.239 103.809 108.015 103.086 107.047 103.275L106.758 103.351L105.675 102.625Z" fill="#141414"/>
<path d="M270.55 157.532C277.153 157.424 283.789 158.074 290.233 159.502C297.926 161.206 305.487 164.231 309.798 171.204C310.445 172.25 311.033 173.555 310.639 174.804C310.477 175.319 310.435 174.955 310.604 175.465C312.703 175.32 314.718 174.828 316.8 174.573C319.034 174.301 321.289 174.263 323.537 174.243C334.424 174.145 344.774 179.017 352.427 186.628C362.637 196.783 367.454 211.915 367.34 226.121C367.253 236.862 364.959 248.601 357.47 256.758C356.834 257.45 352.67 260.868 352.573 261.109C352.332 261.715 352.472 263.2 352.352 263.958C351.574 268.874 349.859 273.281 346.211 276.782C342.326 280.51 336.152 282.295 330.873 282.144C329.095 282.093 327.026 281.982 325.76 280.647L325.961 279.955C327.607 278.613 331.321 279.356 333.421 279.055C335.681 278.731 338.1 278.001 340.106 276.902C344.269 274.619 347.196 270.24 348.51 265.764C349.625 261.961 350.051 257.076 348.016 253.517C347.198 252.086 345.881 250.676 344.227 250.287C342.43 249.864 339.993 250.041 338.42 251.079C334.809 253.461 335.006 257.1 334.102 260.766C333.666 262.534 332.646 264.271 330.994 265.12C329.602 265.834 327.633 265.733 326.193 265.192C319.877 262.82 316.177 254.122 313.939 248.379C313.502 247.259 312.849 244.807 312.1 243.979C311.454 243.266 309.786 242.63 308.92 242.15C304.649 239.783 301.725 236.326 299.661 231.898C298.647 229.723 298.183 226.956 298.03 224.572C297.828 221.44 298.014 218.063 298.775 215.008C299.632 211.562 301.187 208.392 302.563 205.137C303.497 202.927 304.246 200.631 305.027 198.364C303.263 196.154 301.094 193.917 299.619 191.527C299.184 190.82 298.992 190.553 299.166 189.753C299.462 189.652 299.483 189.628 299.847 189.604C302.398 189.438 304.71 191.854 306.311 193.535C306.936 191.5 306.754 188.913 307.091 186.773C307.464 184.403 308.132 182.045 308.607 179.687C303.639 180.493 298.89 182.571 294.567 185.102C288.103 188.888 283.081 193.482 278.558 199.438C273.874 205.606 269.986 212.431 264.639 218.075C260.577 222.362 255.742 224.947 250.927 228.216C251.084 228.486 256.626 231.879 257.497 232.397L258.315 231.55C259.303 231.379 259.821 231.367 260.765 231.719C261.404 232.289 261.565 232.524 261.766 233.396C261.564 234.299 261.031 234.782 260.422 235.433L260.055 235.54L259.917 235.984C260.423 236.414 261.077 236.897 261.339 237.526C261.894 238.861 261.673 239.911 261.372 241.278C260.18 246.699 256.632 251.083 254.39 256.05C260.362 261.91 266.466 256.631 269.329 258.451L269.337 259.405C268.711 260.582 267.757 261.327 266.574 261.926C263.064 263.709 257.875 263.601 254.192 262.441C252.539 261.921 251.131 261.023 250.38 259.403C249.822 258.197 249.911 256.716 250.231 255.456C250.994 252.446 252.954 249.453 254.229 246.607C255.587 243.579 256.657 240.43 257.801 237.316C256.334 236.302 249.603 231.551 247.954 231.743C247.184 231.832 241.081 237.369 239.694 238.201C234.805 241.136 229.48 242.723 223.888 243.585L223.671 254.573C223.637 263.197 224.069 271.784 225.039 280.356C225.7 286.195 226.425 292.126 227.979 297.804C230.989 308.801 237.556 319.085 246.053 326.707C248.342 328.76 250.881 330.68 253.541 332.23C256.349 333.866 260.432 335.239 262.673 337.498L262.612 338.111C261.49 338.835 260.657 338.92 259.32 338.726C256.311 338.289 253.702 337.083 251.058 335.641C244.356 331.985 238.126 326.341 233.674 320.138C229.453 314.259 226.508 307.598 224.491 300.663C221.351 289.862 220.328 277.965 219.932 266.763C219.666 259.246 219.596 251.527 220.841 244.089C212.412 244.144 204.363 242.462 197.74 236.933C192.343 232.427 189.045 227.023 188.53 219.953C187.919 211.563 191.054 202.401 196.599 196.079C199.235 193.074 202.295 190.565 205.779 188.604C209.613 186.445 213.748 184.9 217.412 182.414C222.034 179.277 225.536 174.81 229.688 171.127C240.89 161.194 256.092 158.395 270.55 157.532Z" fill="#DADADA"/>
<path d="M312.817 178.792C318.808 178.65 324.892 178.533 330.781 179.848C339.966 181.901 349.102 188.282 354.102 196.248C358.501 203.257 360.512 210.924 361.225 219.098C361.579 223.158 361.622 227.371 360.711 231.353L360.231 232.266L359.972 232.17C359.823 228.834 359.399 225.892 358.097 222.793C353.7 212.322 343.657 203.906 335.649 196.147C331.186 191.823 326.784 187.271 321.736 183.618C318.929 181.588 316.017 180.092 312.817 178.792Z" fill="#141414"/>
<path d="M267.624 162.427C278.348 161.508 291.097 163.571 300.43 169.048C303.609 170.912 306.553 173.94 309.893 175.33L310.173 175.439L309.736 175.654C309.025 175.917 306.362 176.58 305.649 176.519C304.919 176.458 303.356 175.532 302.654 175.188C299.571 173.678 296.654 171.94 293.472 170.622C276.418 163.552 256.547 165.919 241.334 176.364C236.168 179.909 231.643 184.271 226.378 187.705C223.376 189.663 220.157 191.095 216.855 192.463L210.51 195.353C203.491 199.115 198.896 205.965 196.188 213.303C195.096 216.261 194.396 219.364 193.478 222.38L193.376 221.654C192.697 213.223 195.936 204.424 201.3 197.995C206.292 192.013 212.905 190.038 219.157 185.958C223.767 182.95 227.738 179.027 231.964 175.524C242.247 167 254.537 163.533 267.624 162.427Z" fill="#141414"/>
</g>
<defs>
<clipPath id="clip0_53_1938">
<rect width="557.753" height="492.871" fill="white"/>
</clipPath>
</defs>
</svg>
