<svg width="150" height="150" viewBox="0 0 150 150" fill="none" xmlns="http://www.w3.org/2000/svg">
<g clip-path="url(#clip0_53_1720)">
<path d="M139.044 63.8305L139.196 63.8012C139.458 64.0469 139.56 64.4073 139.696 64.7321L140.493 66.6979L141.277 68.5006C141.445 68.8889 141.576 69.4004 141.888 69.6899L141.98 69.6364C141.866 69.0813 141.944 68.6309 141.93 68.0786C141.921 67.7311 141.869 67.377 141.825 67.0321C142.106 66.6588 142.194 66.2196 142.444 65.8711C142.555 65.7166 142.609 65.7329 142.786 65.7092C142.899 65.7803 143.011 65.8412 143.074 65.9666C143.2 66.2196 143.195 66.6061 143.225 66.8854L143.432 68.7053C143.453 68.9498 143.432 69.2315 143.554 69.4454L144.061 69.5434C144.21 69.82 144.062 70.2456 144.073 70.5688L144.209 72.3799L144.172 76.919C144.159 77.6719 144.22 78.495 144.118 79.2362C144.086 79.4721 144.013 79.7815 143.823 79.9438C143.554 80.1741 142.892 80.2399 142.566 80.1383C142.302 80.0561 142.309 79.512 142.275 79.2655C142.077 77.8368 141.935 76.4026 141.647 74.9875C141.356 73.5582 140.928 72.1766 140.415 70.8123C139.781 70.636 138.815 70.7922 138.131 70.7737L138.527 72.2721C139.006 73.9975 139.458 75.7153 139.775 77.4795C139.925 78.3159 140.089 79.1661 140.11 80.0172L139.966 80.129C139.754 80.1174 139.65 80.1641 139.519 79.9711C139.335 79.6989 139.294 79.2588 139.226 78.9368L138.697 76.3276C138.323 74.5733 137.724 72.8864 137.309 71.1481L137.159 70.3539L137.104 70.0209C137.099 69.9918 137.115 69.9491 137.09 69.9336C137.078 69.9262 136.822 69.9338 136.786 69.9338C136.274 69.9336 135.494 70.0493 135.105 69.6899L135.132 69.5434C135.662 69.318 136.459 69.4047 137.036 69.3957C136.63 68.2465 136.116 66.9918 135.914 65.7926C136.147 65.6106 136.355 65.4389 136.633 65.3305C137.363 65.5979 138.373 68.6872 138.833 69.5079L139.65 69.4993C138.948 67.933 138.529 66.0608 138.402 64.3518C138.533 64.1332 138.834 63.978 139.044 63.8305Z" fill="#141414"/>
<path d="M142.605 70.1294C142.796 70.0977 142.707 70.0801 142.871 70.1807C143.297 72.1651 143.35 74.3922 143.377 76.4282L143.289 76.3551L142.305 70.4958C142.384 70.2963 142.435 70.2659 142.605 70.1294Z" fill="white"/>
<path d="M139.254 123.157L139.454 123.115L139.523 123.23C139.106 124.914 137.852 126.519 136.55 127.625L136.379 127.704C136.364 127.502 136.734 126.93 136.824 126.696C137.215 125.676 137.391 124.69 137.25 123.6C137.952 123.514 138.581 123.373 139.254 123.157Z" fill="white"/>
<path d="M0 0H150V150H0V0Z" fill="white"/>
<path d="M71.4188 53.2105C71.7291 53.0988 72.6284 53.3561 73.0225 53.4012L73.0924 53.54L72.9239 53.7965C72.8241 53.8754 72.7409 53.94 72.6123 53.9676C72.3469 54.0244 71.9961 53.9176 71.7774 53.7652C71.5258 53.59 71.4881 53.4904 71.4188 53.2105Z" fill="#141414"/>
<path d="M36.5268 15.1849C37.5598 15.3441 38.5049 15.6902 39.4955 16.0069C40.16 16.2194 40.9182 16.3855 41.4569 16.8457C41.526 17.0554 41.5057 17.0564 41.4184 17.2629C41.2448 17.3714 41.2157 17.4088 41.0067 17.3825C40.3782 17.3032 39.6793 17.0018 39.0852 16.782C38.4717 16.5552 37.7565 16.3448 37.2192 15.9605C36.9463 15.7653 36.7301 15.4497 36.5268 15.1849Z" fill="#141414"/>
<path d="M82.0983 7.36084L82.2895 7.32239L82.434 7.41975C82.5055 7.58938 82.5381 7.63661 82.5143 7.81631C82.3583 8.98374 81.7419 10.076 81.3063 11.1574C81.0403 11.8182 80.7237 13.1582 80.1637 13.5818L79.9073 13.634C79.8325 13.5852 79.7674 13.5763 79.7553 13.4783C79.7043 13.0624 81.7626 7.91217 82.0983 7.36084Z" fill="#141414"/>
<path d="M90.2229 19.0796L90.3028 19.0723C90.5184 19.0779 90.6356 19.1971 90.7837 19.3322C90.8329 19.4792 90.8321 19.5826 90.7794 19.7307C90.6003 20.2334 90.027 20.6859 89.6565 21.0539L88.1501 22.5004C87.7286 22.893 87.3678 23.2723 86.8401 23.5201C86.6338 23.5232 86.512 23.5576 86.3362 23.444C86.3003 23.2887 86.3225 23.1551 86.3831 23.0092C86.8575 21.8652 87.9112 20.9002 88.8176 20.0973C89.26 19.7055 89.6676 19.3076 90.2229 19.0796Z" fill="#141414"/>
<path d="M60.1694 5.09729C60.6252 5.5518 60.9737 6.0802 61.3358 6.60971C62.1668 7.82516 62.8133 9.03671 63.5094 10.3271C63.7739 10.8176 64.1696 11.3569 64.2752 11.9114C64.3125 12.1072 64.2565 12.1111 64.152 12.2681L63.9405 12.3816C63.8262 12.3662 63.7375 12.3458 63.6438 12.2739C63.184 11.9212 62.8413 11.2095 62.5522 10.7161C61.8561 9.52885 61.1536 8.33641 60.6629 7.04583C60.4221 6.41249 60.2727 5.7653 60.1694 5.09729Z" fill="#141414"/>
<path d="M53.9612 59.3629L54.1455 59.3793C54.5893 59.9141 54.0823 60.4856 54.1631 61.0719C54.1813 61.2045 54.3143 61.3328 54.3989 61.4285C55.0241 62.1356 55.9952 62.6037 56.7651 63.144C57.2969 63.517 58.2178 64.1662 58.2996 64.8522C58.3276 65.0864 58.1934 65.369 58.0446 65.5409L57.8247 65.4623L55.9686 64.4598C55.0084 63.9774 53.7573 63.551 53.3481 62.4633C53.0495 61.6698 53.5932 60.109 53.9612 59.3629Z" fill="#141414"/>
<path d="M113.544 74.1272C113.758 74.1178 114.118 74.0678 114.314 74.1543C114.574 74.2684 114.809 74.4809 114.922 74.7438C115.193 75.3756 115.055 76.291 114.806 76.9121C114.512 77.6481 114.134 78.0889 113.402 78.402C113.187 78.4256 112.968 78.4201 112.756 78.3678C112.462 78.2951 112.148 78.0809 112.015 77.8035C111.737 77.2268 111.937 75.9961 112.171 75.4379C112.456 74.7569 112.893 74.4114 113.544 74.1272Z" fill="#141414"/>
<path d="M113.63 75.1833L113.819 75.1552C113.966 75.2598 114.031 75.3878 114.077 75.5589C114.203 76.0264 113.782 76.9833 113.562 77.4094L113.416 77.4126C113.215 77.0063 112.983 76.2604 113.11 75.8173C113.197 75.5165 113.372 75.3426 113.63 75.1833Z" fill="white"/>
<path d="M67.5439 69.512C69.5721 70.4524 71.0488 72.5961 72.5604 74.1848C73.7359 75.4206 74.9631 76.5776 76.3361 77.5922C77.7584 78.6434 79.4297 79.6544 81.107 80.2368L82.6453 80.6915C83.0449 80.7911 83.492 80.8499 83.8406 81.0768L83.6793 81.1883C83.202 81.3145 82.7143 81.4098 82.219 81.3473C81.2529 81.2251 80.3033 80.8284 79.4242 80.4256C76.6236 79.1426 74.4734 77.3065 72.3434 75.1213C70.6111 73.3444 69.051 71.4813 67.5439 69.512Z" fill="#141414"/>
<path d="M54.2303 58.3375C54.5678 58.3432 54.9366 58.5865 55.2251 58.7467L56.7628 59.6198C58.536 60.6199 60.2176 61.4182 62.2239 61.8557C62.8284 61.9875 63.4663 62.0614 64.0837 62.1045C64.6471 62.1436 65.8606 61.9549 66.3126 62.2371C66.4419 62.3178 66.4688 62.4783 66.4893 62.6221C66.67 63.8899 66.2251 65.6516 65.4243 66.6469C64.6104 67.6586 63.6899 68.0258 62.4317 68.1731L61.8897 68.116C61.7069 68.0657 61.6081 67.9895 61.5317 67.8223C61.76 67.56 62.4796 67.495 62.8051 67.3879C63.1317 67.2807 63.4487 67.1244 63.738 66.9395C65.2594 65.9664 65.0547 64.5994 65.4008 63.0514C63.5663 63.0768 61.9741 62.8338 60.2141 62.3045C58.5837 61.8143 57.0159 61.0139 55.5561 60.1438C55.002 59.8135 54.3786 59.5088 54.0637 58.9235C54.0639 58.6219 54.0208 58.5682 54.2303 58.3375Z" fill="#141414"/>
<path d="M5.12329 50.918C5.94886 51.5486 6.30612 52.4395 6.67353 53.3803L7.72704 56.5221L10.6913 67.7936L13.498 81.6065C14.0765 83.9322 14.6371 86.3809 15.9408 88.4274C16.5472 89.3791 17.38 90.4334 18.4059 90.9576C18.7705 91.1442 19.2003 91.2334 19.519 91.4936L19.4774 91.6625L19.2357 91.7494C18.583 91.91 17.6793 91.5979 17.149 91.2449C16.6709 90.9266 16.2622 90.4547 15.9102 90.0049C14.8462 88.6451 14.0806 86.9744 13.519 85.3492C12.3651 82.0096 11.8537 78.4672 11.2597 74.9979L9.40339 65.7541L6.90896 56.5551C6.33052 54.7027 5.46759 52.8209 5.12329 50.918Z" fill="#141414"/>
<path d="M127.722 121.193C129.774 121.809 131.75 122.013 133.883 122.035C135.051 122.047 136.225 122.027 137.38 121.84L138.794 121.577C139.149 121.493 139.823 121.209 140.162 121.251C140.329 121.273 140.485 121.435 140.569 121.574C140.749 121.873 140.704 122.375 140.653 122.705L140.633 122.827C140.448 124.05 139.937 125.067 139.269 126.097C137.259 129.193 133.516 130.557 130.064 131.267C129.444 131.395 128.055 131.747 127.525 131.397C127.515 131.207 127.534 131.177 127.625 131.007C127.762 130.925 127.867 130.858 127.974 130.737C127.576 129.855 127.795 128.681 127.838 127.721C127.924 126.572 128.116 125.262 128.489 124.17C128.667 123.649 128.932 123.141 129.164 122.641L128.168 122.281C128.225 122.558 128.276 122.837 128.233 123.12C128.132 123.778 127.836 124.477 127.659 125.124C127.392 126.101 127.243 127.089 126.859 128.031C126.746 127.689 126.613 127.326 126.574 126.965C126.426 125.609 126.991 124.125 127.309 122.811C126.813 123.256 126.375 123.825 125.939 124.331C125.479 124.863 124.966 125.392 124.593 125.99C124.53 126.091 124.42 126.238 124.38 126.348C124.336 126.471 124.368 126.778 124.361 126.919C124.319 127.732 124.257 128.468 124.439 129.273L124.329 129.365L124.154 129.269C123.76 128.63 123.692 127.835 123.69 127.101C123.689 126.736 123.648 126.304 123.783 125.961C124.068 125.242 124.857 124.522 125.359 123.929C126.133 123.014 126.878 122.044 127.722 121.193Z" fill="#141414"/>
<path d="M130.022 122.811L130.882 122.927C130.595 123.843 130.409 124.787 130.245 125.732L129.694 128.825C129.574 129.399 129.511 130.053 129.09 130.49L128.383 130.788C128.549 129.307 128.682 127.803 128.988 126.343C129.243 125.127 129.612 123.98 130.022 122.811Z" fill="white"/>
<path d="M131.74 123.031L133.081 123.111C132.949 123.808 132.956 124.521 132.899 125.225L132.624 128.65L132.715 128.737C132.898 128.703 133.108 128.673 133.24 128.529C133.546 128.198 133.626 127.542 133.695 127.104C133.9 125.783 133.964 124.518 133.959 123.182L135.346 123.187C135.278 123.596 135.287 124.042 135.268 124.457C135.213 125.596 135.109 126.684 134.544 127.698C133.885 128.878 132.432 129.572 131.184 129.926C131.138 127.661 131.513 125.286 131.74 123.031Z" fill="white"/>
<path d="M117.465 123.23L117.541 123.238C117.581 123.253 117.626 123.269 117.65 123.303C117.799 123.518 117.873 125.824 117.922 126.233C117.976 126.69 118.062 127.15 118.176 127.596C118.27 127.651 118.543 127.769 118.601 127.844C118.787 128.085 118.918 128.651 119.043 128.949C119.262 129.468 119.563 129.97 119.912 130.412C120.626 131.315 121.646 132.082 122.582 132.737C123.134 133.124 123.746 133.485 124.382 133.713C126.07 134.318 127.93 134.435 129.555 135.229C130.271 135.579 131.282 136.193 131.539 137C131.649 137.342 131.617 137.738 131.444 138.056C130.965 138.935 129.759 139.233 128.874 139.506L131.269 139.586C131.625 139.598 132.082 139.565 132.361 139.819L132.327 139.929C131.919 140.132 131.279 140.096 130.829 140.104L127.662 140.11C125.328 140.041 123.032 139.949 120.74 139.454C119.931 139.279 119.077 139.082 118.328 138.725L118.232 138.678L117.61 138.889C117.288 138.973 116.768 139.015 116.478 138.85L116.477 138.538C116.717 138.252 116.995 138.291 117.355 138.237C116.122 137.741 115.082 137.195 114.111 136.269L114.403 137.436C114.071 137.465 113.782 137.442 113.452 137.39C113.323 137.289 113.294 137.29 113.231 137.125C113.079 136.73 113.15 136.157 113.149 135.731C113.146 134.159 113.071 132.198 113.714 130.731C114.249 129.51 116.298 128.372 117.475 127.888C117.17 126.807 117.109 125.574 117.138 124.457C117.15 123.988 117.103 123.571 117.465 123.23Z" fill="#141414"/>
<path d="M118.168 128.954C118.468 129.403 118.667 129.923 118.95 130.386C119.572 131.4 120.425 132.201 121.275 133.019L121.265 133.118L121.074 133.098C120.676 133.078 120.314 133.342 119.997 133.554C119.228 134.069 118.433 134.62 117.743 135.237C118.067 135.479 118.37 135.634 118.739 135.791C119.388 135.508 119.915 135.007 120.466 134.572L121.836 133.552L123.216 134.298C122.696 134.44 122.234 134.655 121.783 134.949C121.256 135.292 119.746 136.225 119.614 136.853L119.857 137.073C120.694 137.234 121.877 136.018 122.587 135.589C122.939 135.376 123.596 134.971 124.005 134.934C124.346 134.904 125.033 135.162 125.381 135.247C124.258 135.438 123.549 135.712 122.562 136.272C122.185 136.473 121.874 136.676 121.591 137C121.583 137.226 121.556 137.26 121.692 137.436C122.221 137.587 122.841 137.547 123.388 137.551L127.556 137.397C128.062 137.384 128.881 137.275 129.251 137.629L129.236 137.787C128.976 138.005 128.642 138.085 128.32 138.172C127.224 138.466 126.022 138.516 124.891 138.54C122.499 138.591 119.829 138.259 117.653 137.23C116.35 136.613 115.126 135.684 114.085 134.691C113.937 133.665 114.078 132.269 114.264 131.248C114.321 130.94 116.776 129.794 117.206 129.561C117.541 129.38 117.855 129.169 118.168 128.954Z" fill="white"/>
<path d="M119.063 131.703C119.267 131.673 119.437 131.679 119.641 131.694C119.81 131.842 119.867 131.901 119.926 132.129C119.699 132.534 116.735 133.708 116.193 133.89C116.01 133.94 115.907 133.931 115.723 133.892C115.566 133.772 115.498 133.705 115.424 133.521C115.714 132.989 118.473 131.905 119.063 131.703Z" fill="#141414"/>
<path d="M40.0953 116.418C42.3586 116.218 44.7139 116.39 46.9848 116.429L58.0268 116.558L70.236 116.451C72.4211 116.414 74.6231 116.283 76.808 116.369C77.4135 116.393 78.3258 116.455 78.7998 116.866C79.0596 117.091 79.1922 117.481 79.202 117.816C79.2149 118.262 79.0457 118.604 78.7246 118.909C78.1336 119.471 77.0446 119.631 76.2573 119.737C75.3809 119.856 74.4891 119.857 73.6065 119.887L69.2289 119.974L59.4125 119.969L59.4006 123C59.3985 123.145 59.334 123.77 59.3864 123.874C59.4385 123.977 59.9164 124.24 60.0274 124.322C60.4262 124.615 60.7949 124.95 61.1557 125.289L66.5559 130.793L68.8762 133.061C69.4578 133.612 70.241 134.201 70.6639 134.878C70.4317 134.971 69.8524 135.091 69.6145 135.015L69.4969 134.958C68.7707 134.622 68.1614 134.043 67.5612 133.521C65.9672 132.133 64.5008 130.588 63.0102 129.091C61.8766 127.933 60.726 126.535 59.4332 125.569L59.4282 131.625C59.4334 132.303 59.5653 133.235 59.4231 133.881C59.3819 134.068 59.335 134.072 59.1797 134.162C58.8881 134.176 58.6115 134.222 58.3489 134.07C58.2174 133.683 58.2893 133.098 58.2889 132.686L58.2785 129.863L58.1526 125.12L53.943 128.907C52.9488 129.811 48.1227 134.535 47.386 134.697C47.174 134.743 46.8153 134.72 46.6256 134.605C46.5125 134.536 46.5391 134.519 46.5156 134.4C46.8504 133.684 47.6447 133.06 48.2123 132.506L51.7852 129.111C53.2676 127.689 54.6906 126.145 56.2867 124.851C56.851 124.394 57.4563 124.049 58.1229 123.765L58.0916 119.956L46.6172 120.048C44.2701 120.052 41.7924 120.183 39.4615 119.898C38.6219 119.795 37.7037 119.637 37.0068 119.122C36.6184 118.835 36.3375 118.466 36.2764 117.981C36.2371 117.669 36.2639 117.343 36.4848 117.1C37.1024 116.421 39.1787 116.473 40.0953 116.418Z" fill="#141414"/>
<path d="M57.652 26.4647L58.3375 26.437L58.3652 26.5504C57.9348 26.9454 57.3338 27.158 56.8453 27.4834C55.6701 28.2662 54.7734 29.3733 54.5018 30.7819L54.4783 30.9082C54.2508 32.0739 54.4469 33.4821 54.9338 34.5598C55.025 34.2252 55.0131 33.851 55.0391 33.5055C55.102 32.6745 55.3143 31.9301 55.6893 31.1858C56.3418 29.8901 57.5191 29.0723 58.877 28.6405C60.8502 28.0129 63.1625 28.4252 64.969 29.3629C65.119 29.1881 65.2729 29.009 65.4494 28.8604C65.8555 28.519 66.3643 28.2694 66.8336 28.0288C69.0516 26.8905 71.7901 26.3959 74.2735 26.5998C76.1313 26.7524 77.8467 27.6547 79.0406 29.0827C80.0574 30.2989 80.5852 32.0163 80.4473 33.593C80.1699 36.7651 78.1098 39.3059 75.3754 40.811C74.5 41.293 73.4375 41.6223 72.6735 42.2647C73.082 43.3985 73.3947 44.8897 74.1914 45.8024L76.2223 45.3913C76.4986 45.3635 76.8826 44.1082 77.3881 43.9028C77.4307 43.9602 77.4494 43.9762 77.4692 44.0551C77.6682 44.8498 76.9059 47.6928 76.3975 48.3551C76.2867 48.4993 76.1608 48.4739 75.9887 48.4999L75.9287 48.5961C76.0098 48.702 76.0809 48.8024 76.1401 48.9227C76.2404 49.1264 76.2608 49.3885 76.2807 49.6114C76.2873 49.6858 76.3266 49.9008 76.3072 49.97C76.2188 50.2872 75.6424 50.6754 75.3635 50.8288C75.2324 50.9008 75.0576 50.9463 75.0031 51.0864L75.1832 51.203C75.6053 52.6989 75.0033 55.003 74.2596 56.3333C73.4824 57.7237 72.0992 58.7086 70.5785 59.1362C67.9838 59.8659 65.2316 59.3333 62.9117 58.027C61.2662 57.1006 59.7357 55.7282 58.7436 54.1127C58.5313 53.767 58.2654 53.3483 58.1795 52.9487C58.1164 52.6553 58.1699 52.5655 58.3184 52.3317L58.484 52.3194L59.8877 54.2168C61.8344 56.56 64.466 58.2106 67.5432 58.4877C69.4822 58.6624 71.158 58.2917 72.6735 57.0254C74.3059 55.3559 74.3752 53.3329 74.5498 51.1258C73.8795 51.2528 73.1649 51.3393 72.4836 51.2459C71.5871 51.1231 70.9199 50.7069 70.3922 49.9768C69.8057 49.1657 69.9301 48.1334 70.0703 47.2051C69.3305 47.4286 68.5996 47.6 67.8195 47.5842C66.1197 47.55 65.0024 46.4157 64.2277 45.0112C63.9883 44.577 63.8192 44.0944 63.4668 43.7377C63.3818 43.6516 63.2885 43.5721 63.2233 43.4692C63.1748 43.3926 63.133 43.3418 63.1656 43.2495C63.2701 42.9524 63.6535 42.6571 63.8836 42.45C64.8026 41.6235 65.8834 40.7364 67.044 40.2745C67.384 40.1391 68.1645 40.0887 68.401 39.9182C68.601 39.7741 68.6887 39.4498 68.7164 39.2211C68.5289 39.0465 68.2484 39.0247 68.0055 38.9684C67.4865 38.8483 66.967 38.7174 66.4641 38.5416C65.7609 38.2957 65.1041 37.8821 64.3986 37.6686C63.3824 37.9627 62.4684 38.4245 61.7504 39.2202C58.9895 42.2797 63.3438 44.7729 63.4205 47.8532C63.4317 48.3071 63.3076 48.7952 62.966 49.1141C62.5832 49.4717 62.0621 49.56 61.5602 49.5139C59.5356 49.328 58.8258 47.1422 57.7607 45.8114C57.4217 45.8909 57.1123 45.9973 56.8129 46.1793C56.5016 46.3684 56.0594 46.7286 55.9951 47.1116C55.8717 47.8465 56.3471 48.8321 56.7977 49.4055C57.2332 49.9596 57.7482 50.4075 58.434 50.6182C59.1695 50.8444 60.1219 50.7723 60.8975 50.8579C60.3578 51.1852 59.8701 51.4145 59.2494 51.5424C58.1707 51.7645 57.4672 51.401 56.5844 50.8225L56.4326 50.9963C55.8678 51.5444 54.9742 51.8553 54.1992 51.8534C52.7865 51.8497 51.4895 51.1012 50.5266 50.1104C49.366 48.9161 48.2418 47.0053 48.2836 45.294C48.3115 44.145 48.7621 43.5842 49.566 42.8307C48.1064 42.8741 46.6066 42.4692 45.4543 41.5485C44.2967 40.6237 43.5596 39.3063 43.4141 37.8289C43.2676 36.3414 43.7801 34.7805 44.7414 33.6413C45.7689 32.4237 47.2252 31.6682 48.816 31.5385C50.6654 31.3875 52.2096 31.7596 53.6391 32.9686C53.4232 31.6079 53.4668 30.4903 54.1119 29.245C54.8623 27.7957 56.1303 26.9407 57.652 26.4647Z" fill="#141414"/>
<path d="M76.2563 46.1059L76.3389 46.1883L76.1813 47.8703L75.4621 47.278L74.7901 46.5577C75.295 46.4983 75.752 46.4397 76.185 46.1547L76.2563 46.1059Z" fill="white"/>
<path d="M69.936 40.1735C70.4473 40.0654 71.0281 40.1528 71.5492 40.1729L73.8528 40.2188C73.4463 40.499 73.1096 40.811 72.7617 41.1602L72.2844 41.793C71.7836 41.2426 71.2848 40.8725 70.5688 40.6514C70.2778 40.5615 69.976 40.5268 69.6899 40.4188L69.6813 40.3199L69.936 40.1735Z" fill="white"/>
<path d="M74.5748 27.6922C75.3289 27.8643 75.9707 28.0672 76.6182 28.5026C77.8108 29.3041 78.6916 30.6266 78.9526 32.0463C79.3258 34.0789 78.7094 35.8522 77.5817 37.5186C77.4678 37.6641 77.3992 37.768 77.2272 37.8473C78.1692 35.8969 78.7657 34.2225 78.1764 32.0551C77.6137 29.9846 76.3873 28.743 74.5748 27.6922Z" fill="white"/>
<path d="M49.0947 32.6209C50.3516 32.3902 51.9092 32.9065 52.9502 33.575C51.7653 33.2225 50.8442 32.9721 49.585 33.0988C49.1678 33.1408 48.7653 33.2504 48.3766 33.4082C47.2608 33.8611 46.4207 34.8733 45.9787 35.969C45.4662 37.2397 45.7553 38.5639 46.2744 39.7764C46.7002 40.559 47.1906 41.0918 47.8237 41.7102C47.2666 41.5098 46.7442 41.2957 46.2672 40.9342C45.291 40.1938 44.5485 39.0315 44.4041 37.8053C44.2651 36.6225 44.6994 35.3918 45.4237 34.4651C46.3955 33.2213 47.5725 32.8043 49.0947 32.6209Z" fill="white"/>
<path d="M67.7787 41.1119L68.2403 41.0814C68.5729 41.0791 68.9125 41.2404 69.2229 41.3506C69.7928 41.5529 70.4348 41.6973 70.8758 42.1354C71.909 43.1615 72.3906 44.7199 73.1819 45.9318C73.7442 46.7932 74.5139 47.5605 74.9926 48.4697C75.1869 48.8385 75.3561 49.2748 75.3567 49.6949C75.2914 49.7744 75.2293 49.8539 75.1447 49.9145C74.4973 50.3797 73.5055 50.3887 72.7455 50.2885C72.3141 50.2314 71.6869 50.052 71.4279 49.6689C70.8985 48.8861 71.5063 46.9617 71.6899 46.0723C71.8449 44.9879 71.616 43.9301 71.1377 42.948C70.9819 42.6277 70.7592 42.202 70.3914 42.099C70.2424 42.0574 70.2463 42.0871 70.1192 42.1508C70.0162 42.7303 70.4703 43.6236 70.6072 44.2176C70.7139 44.6799 70.7569 45.1244 70.7754 45.5975C70.55 45.958 70.0949 46.185 69.7094 46.3371C68.8633 46.6707 67.7176 46.8559 66.8678 46.4627C65.6469 45.8977 64.9494 44.2932 64.5027 43.1162L64.5453 43.0313C65.227 42.1234 66.7276 41.4459 67.7787 41.1119Z" fill="white"/>
<path d="M5.56067 49.0967C6.73871 49.1365 7.75672 49.4742 8.71292 50.1658C9.62948 50.8287 10.4402 51.6957 11.0417 52.6541C11.8661 53.9672 12.403 55.4522 12.9118 56.9092C13.9801 59.9682 14.8302 63.258 15.3635 66.4559L20.2875 66.0465L17.2794 57.4219C16.8127 56.1602 16.2589 54.9227 15.8815 53.6299C15.7933 53.3279 15.6525 52.8607 15.7648 52.5555C15.874 52.2588 16.2675 51.9719 16.5553 51.8734C17.742 51.4674 19.6074 52.1123 20.6502 52.6951C24.4088 54.7961 26.6461 59.0947 28.24 62.9244C29.0893 64.9649 29.832 67.0322 30.4303 69.1613C31.9928 74.7223 33.0818 80.5299 33.5344 86.2897C33.7383 88.8844 33.8559 91.4514 33.7223 94.0545C33.6334 95.7877 33.5006 98.0602 32.6006 99.5903C32.1982 100.274 31.6709 100.455 30.9432 100.635C30.7035 100.662 30.4627 100.679 30.2301 100.745L30.2408 100.83C30.4139 102.104 30.8527 103.612 31.6656 104.637C33.7766 107.297 38.3268 107.533 41.4617 107.631C41.9106 107.645 42.9422 107.557 43.2715 107.813L43.2356 107.974C42.9217 108.32 42.458 108.427 42.0043 108.471C39.0725 108.758 34.0971 108.17 31.7756 106.217C30.1686 104.865 29.5691 102.642 29.426 100.615L29.4197 100.515C28.2896 100.449 27.0875 100.056 26.0568 99.6037C24.0486 98.7223 22.4256 96.8584 21.4611 94.9219C20.7562 93.5063 20.398 91.9371 20.0057 90.4127L18.851 86.0295L16.9972 79.0916L14.214 67.5293C13.2992 63.909 12.3201 60.2674 10.9724 56.7793C10.2418 54.8883 9.50325 53.2227 8.03264 51.7863C7.56102 51.3258 7.04793 50.8785 6.44719 50.593C5.82428 50.2971 5.13229 50.2271 4.50438 49.9498C4.32733 49.7367 4.32219 49.75 4.3335 49.475C4.69752 49.1912 5.11803 49.1486 5.56067 49.0967Z" fill="#141414"/>
<path d="M16.6263 53.3958L16.9397 53.6086C18.1122 54.4346 18.8377 55.9825 19.4429 57.2377C20.5002 59.4301 21.2262 61.7092 21.8965 64.0407L23.0268 68.1817L24.7117 77.3229L25.4287 82.3678L25.4551 82.5075L25.3955 82.5042C24.049 75.3772 22.1293 68.4667 19.7395 61.6204L17.8119 56.4454C17.4121 55.429 16.9499 54.4403 16.6263 53.3958Z" fill="white"/>
<path d="M19.8889 67.0469L20.5074 67.0133C21.026 69.1158 21.8361 71.1647 22.4133 73.2576L24.199 81.117L25.5338 87.2596C26.3627 91.0952 27.1531 94.7065 26.6092 98.6502C25.7369 98.22 25.0154 97.661 24.2834 97.0266C23.2781 96.1123 22.5317 94.9551 22.0158 93.7032C21.3332 92.0463 20.9404 90.2952 20.5303 88.5561L19.2968 83.2614L18.0063 77.8106L15.7263 67.3971L19.8889 67.0469Z" fill="white"/>
<path d="M91.5782 81.9637C91.6251 81.7029 91.6753 81.4506 91.7923 81.2106C91.8694 81.0522 91.979 80.9119 92.0872 80.7737C92.4606 80.6852 92.8274 80.6053 93.2114 80.5783L96.3022 80.4844C96.4907 80.4828 97.1649 80.5406 97.311 80.4424C97.4049 80.3793 97.6135 79.9858 97.6811 79.8707L97.8489 79.5485L106.297 79.5004C106.663 77.7299 107.273 75.9893 107.789 74.2576C108.26 72.6785 108.643 70.9281 109.343 69.4377L104.114 69.4744L101.306 69.4862C100.714 69.4836 100.019 69.535 99.478 69.2662C99.2794 69.0305 99.2489 68.9133 99.279 68.6057C99.3604 67.7713 99.6813 66.9432 99.903 66.1377L101.069 61.6867L103.408 51.7859L104.505 47.6074C104.697 46.8488 105.298 43.6713 105.792 43.2703C106.247 42.902 107.315 42.9162 107.875 42.9062L116.867 43.1096L127.653 43.1762L133.508 43.1357L134.972 43.1207C135.205 43.1188 135.536 43.0826 135.754 43.1555C135.946 43.2191 136.123 43.4076 136.206 43.5916C136.322 43.8477 136.311 44.1496 136.284 44.4223C136.108 46.1955 135.582 47.9996 135.207 49.7445L132.551 60.9766L131.373 65.4738C131.114 66.4049 130.872 67.394 130.466 68.2711C130.28 68.6703 130.041 68.9563 129.617 69.1123C128.949 69.3582 127.999 69.3059 127.287 69.3334L122.716 69.4498L121.544 73.3026L120.347 77.6156C120.12 78.3274 119.868 79.1881 119.348 79.7389C119.13 79.7867 119.11 79.8031 118.909 79.7147C118.808 79.2338 119.319 78.1852 119.457 77.6875L121.748 69.7807C122.104 68.6762 122.374 67.5715 122.923 66.5404L110.868 67.4651L108.148 76.05C107.731 77.3686 107.425 78.7447 106.928 80.036C106.819 80.3196 106.675 80.5573 106.488 80.7948L126.929 80.6172L127.049 80.4932C126.999 80.0967 126.978 79.874 126.65 79.6266C125.791 78.9789 124.634 78.4285 124.441 77.2344C124.349 76.6621 124.461 76.0938 124.809 75.6262C125.481 74.7262 126.707 74.5145 127.756 74.3871C128.95 74.2424 130.722 74.3135 131.695 75.0979C132.63 75.8524 133.182 77.0778 133.295 78.2594C133.336 78.677 133.357 79.2268 133.045 79.5524L132.971 79.6231C132.76 79.4174 132.723 78.983 132.644 78.6916C132.321 77.4873 131.758 76.0731 130.517 75.5633C129.929 75.3219 129.348 75.2946 128.724 75.3024L128.138 75.3137C128.659 75.4975 129.256 75.6819 129.716 75.9957C130.328 76.4143 130.787 77.1197 131.102 77.7809C131.528 78.6744 131.601 79.5221 131.54 80.4959C133.588 80.5004 146.221 80.327 146.973 80.9692C147.03 81.0188 147.043 81.0543 147.075 81.1157C147.024 81.3135 146.989 81.316 146.811 81.4188C146.428 81.6403 145.942 81.7059 145.506 81.7231L140.418 81.7631L131.375 81.8291L91.7504 82.4412C91.736 82.191 91.7264 82.1658 91.5782 81.9637Z" fill="#141414"/>
<path d="M106.433 44.1041L135.245 44.2405C135.655 45.1459 131.262 62.2756 130.664 64.4989L129.568 68.2119L123.232 68.3608L123.934 66.6071L123.933 66.3162C123.925 66.1041 123.892 65.96 123.73 65.8133C123.589 65.686 123.443 65.6422 123.258 65.6264C122.268 65.5418 121.129 65.7516 120.134 65.8471L117.301 66.0377L118.03 64.5944C118.322 63.9242 118.68 63.0162 118.396 62.302L118.25 62.2434C117.175 62.3825 115.824 62.3328 115.077 63.2307C114.368 64.0821 114.345 65.1987 114.448 66.2401C113.136 66.294 111.453 66.2289 110.239 66.7297C109.916 67.05 109.746 67.82 109.608 68.2469C108.934 68.3944 108.039 68.3006 107.339 68.3178L100.339 68.412L106.433 44.1041Z" fill="white"/>
<path d="M129.914 56.0712C130.459 56.0405 131.039 55.97 131.58 56.0356C131.673 56.0997 131.728 56.0997 131.744 56.2208C131.798 56.6299 131.658 57.1049 131.433 57.4444C130.997 57.6514 129.906 57.5143 129.393 57.5126L123.866 57.4905C123.424 57.4881 122.362 57.6139 122.028 57.3852C122.01 56.9126 122.07 56.5604 122.212 56.1096L129.914 56.0712Z" fill="#141414"/>
<path d="M110.731 55.9229L112.44 55.8912C112.849 55.8861 113.277 55.8402 113.672 55.9617C113.79 56.1043 113.798 56.116 113.809 56.3026C113.826 56.5975 113.781 56.8992 113.567 57.1203C113.409 57.2832 113.191 57.4078 112.969 57.4543C112.439 57.5654 111.793 57.5117 111.244 57.5203L107.355 57.5516L104.587 57.558C104.465 57.044 104.404 56.6332 104.532 56.1143C104.859 55.8938 109.875 55.9375 110.731 55.9229Z" fill="#141414"/>
<path d="M117.934 52.3049C118.519 52.2778 119.007 52.2827 119.468 52.7087C119.78 52.9969 119.93 53.4854 119.921 53.9014C119.903 54.7723 119.473 55.2729 118.876 55.8344C119.181 56.1924 119.512 56.3465 119.624 56.8405C119.882 57.9747 119.292 59.1907 118.67 60.1065C118.143 60.8819 117.546 61.3204 116.62 61.511C116.323 61.5297 115.977 61.4944 115.699 61.386C115.249 61.2104 114.924 60.7944 114.752 60.3549C114.422 59.5122 114.544 58.5602 114.921 57.7559C115.424 56.6842 116.136 56.1987 117.203 55.803C116.974 55.5815 116.739 55.3682 116.615 55.068C116.427 54.6131 116.487 53.8819 116.676 53.4372C116.917 52.8694 117.388 52.5403 117.934 52.3049Z" fill="#141414"/>
<path d="M91.7505 82.4413C91.7329 82.5645 91.9702 82.9584 92.0343 83.0895L109.971 82.4524C108.837 82.9016 107.657 82.9346 106.464 83.1075L101.691 83.7608C101.658 84.0856 101.568 84.8221 101.369 85.0708C101.11 85.3958 100.048 85.2747 99.6305 85.2692L93.4163 85.2854C93.0733 85.2913 92.3397 85.2129 92.0307 85.3198C91.8479 85.3829 91.4544 85.869 91.262 86.0231C90.93 86.2887 90.5243 86.5057 90.1276 86.6594C89.1401 87.042 88.0805 87.2528 87.0456 87.4633C84.9538 87.8887 82.8735 88.1643 80.7471 88.3409L79.7358 92.6942C79.6387 93.371 79.6524 94.0381 80.1212 94.5922C80.2848 94.7858 80.3893 94.9049 80.6397 94.9215L80.6716 94.8348L80.2733 94.1114C80.7091 93.8715 81.1862 93.7333 81.6507 93.5602L83.9186 92.7325C89.113 90.8657 94.2573 89.4819 99.7821 89.0993C101.41 88.9864 103.093 88.9295 104.714 89.1581C106.028 89.3432 107.308 89.6899 108.473 90.3401C112.878 92.7979 114.884 98.161 117.233 102.342L122.084 110.089C122.589 110.837 123.023 111.645 123.566 112.365L123.575 108.477L123.708 93.1805L123.683 85.3711C123.69 85.1737 123.716 85.0321 123.792 84.8512C123.997 84.7454 124.014 84.7465 124.244 84.7778C124.41 84.9571 124.429 85.0303 124.461 85.2745C124.642 86.6493 124.612 88.1354 124.625 89.5219L124.638 95.7087L124.521 105.689L124.45 112.991C124.62 113.15 124.949 113.476 125.008 113.695C125.105 114.055 125.02 115.186 124.894 115.54C124.812 115.771 124.59 116.099 124.613 116.331C125.583 117.26 126.527 118.165 127.697 118.841C128.092 117.207 128.024 115.349 128.039 113.675L128.08 108.132L128.214 93.2669L128.23 89.4188C128.234 88.6104 128.158 87.6829 128.355 86.8969L128.391 86.7555C128.461 86.4813 128.513 86.2686 128.683 86.0397L128.75 86.0596L128.848 86.4258C129.177 87.9403 129.065 89.6204 129.063 91.1633L128.935 99.9581L128.83 109.999L128.736 115.979C128.679 116.87 128.691 118.253 128.158 119.014C127.869 119.427 127.229 119.75 126.817 120.037C125.713 120.808 124.621 121.601 123.454 122.275C122.59 122.775 121.692 123.177 120.783 123.585C120.31 123.798 119.762 124.102 119.251 124.177C119.063 124.205 119.016 124.182 118.868 124.061C118.54 123.792 118.463 123.26 118.433 122.864C118.563 122.572 118.675 122.523 118.93 122.34C118.589 121.685 118.368 121.021 118.147 120.318C117.079 121.76 114.016 123.154 112.292 123.703C111.914 123.824 111.523 123.939 111.161 123.72C110.866 123.542 110.573 123.151 110.358 122.881C109.378 121.642 108.634 120.189 107.812 118.842C106.047 115.947 104.182 113.074 102.715 110.013C101.725 107.949 100.874 105.838 100.214 103.645L96.0682 106.737C93.5573 108.352 90.8647 109.68 88.1391 110.89C84.2329 112.623 80.0423 114.071 75.8446 114.89C69.0862 116.209 61.9206 116.113 55.0581 115.998L48.0653 115.815C47.151 115.773 46.1258 115.811 45.2399 115.596C44.9256 115.52 44.6588 115.367 44.3631 115.247C43.5067 114.898 42.6936 114.737 42.1698 113.883C41.6155 112.979 41.6948 112.101 41.928 111.115L36.2467 110.685C35.785 110.615 35.3375 110.539 35.0465 110.147C35.011 109.94 34.9688 109.871 35.0678 109.68C35.3135 109.562 35.5229 109.57 35.7913 109.566L40.1918 109.703L46.3233 109.652C46.1526 108.713 45.8487 107.733 45.7897 106.787C45.7762 106.571 45.7686 106.34 45.8877 106.15L45.9594 106.047C45.8676 105.843 45.1872 105.849 44.9586 105.833C42.8454 105.678 40.6553 105.467 38.8018 104.332C37.7096 103.663 37.0627 102.624 36.7705 101.398C36.3727 99.7292 36.3555 97.9473 36.4414 96.2403C36.5795 93.4958 37.0229 90.676 37.7213 88.0172L39.1129 83.559C40.4163 79.5657 41.9385 75.5489 44.1799 71.976C45.9391 69.1719 48.7778 65.7907 52.1491 65.0495C53.7133 64.7053 55.1989 64.8832 56.6006 65.6541C59.9645 67.5039 61.1866 71.2047 62.4868 74.5606C63.2356 76.4934 64.0889 78.4999 65.3214 80.1774C65.8467 80.8928 66.4829 81.586 67.1985 82.1145C67.5899 82.4036 68.0446 82.6352 68.4579 82.8956C72.3924 82.8733 76.2969 82.9016 80.2245 82.5891C81.3182 82.502 82.4682 82.5127 83.5173 82.1557C84.6643 81.7655 85.5874 80.9633 86.6333 80.3786C87.5975 79.8395 88.6092 79.5561 89.7012 79.895C90.3016 80.0813 90.9026 80.4602 91.1821 81.0426C91.3089 81.3069 91.363 81.5979 91.5116 81.8534L91.5782 81.9637C91.7264 82.1659 91.736 82.1911 91.7505 82.4413Z" fill="#141414"/>
<path d="M43.6135 111.511L43.7473 111.584C43.5059 112.518 43.4662 113.055 43.7155 114.002L43.6524 114.105L43.4278 113.928C43.1762 113.671 42.992 113.376 42.8932 113.028C42.8063 112.721 42.7848 112.111 42.9596 111.839C43.1248 111.583 43.3405 111.565 43.6135 111.511Z" fill="white"/>
<path d="M68.4672 96.9547C68.5332 96.9077 68.5912 96.8459 68.6655 96.8133C68.851 96.7319 69.5696 96.8143 69.7994 96.8149L72.7334 96.854C73.3034 96.8624 73.9151 96.8262 74.477 96.9243L74.5387 96.936C74.4475 97.0649 74.2288 97.0508 74.076 97.1004C72.211 97.1551 70.3219 97.1877 68.4672 96.9547Z" fill="#141414"/>
<path d="M88.6262 83.5076L88.8063 83.5082C89.6008 83.5553 90.3665 84.6588 90.876 85.2149C90.6346 85.4055 90.3969 85.5559 90.1247 85.6988L89.9639 85.7356C89.7598 85.5705 89.6323 85.3277 89.4934 85.1074C89.1731 84.6002 88.3932 84.1715 87.9274 83.7643C88.0471 83.5817 88.4083 83.5582 88.6262 83.5076Z" fill="white"/>
<path d="M88.3036 80.7255C88.7149 80.6965 89.1419 80.6622 89.5157 80.8716C90.2762 81.2977 90.6506 82.2024 91.0151 82.9508C91.3348 83.6073 91.6284 84.1928 91.821 84.902C90.9292 84.2091 90.5243 82.8854 89.252 82.7268C88.5594 82.6405 87.5795 82.8182 87.0485 83.2983C86.8887 83.4428 86.8426 83.5434 86.828 83.7524C87.0969 84.1331 87.4958 84.4237 87.8483 84.7268C88.3227 85.1346 88.7575 85.5421 89.1704 86.0128C88.7278 86.0649 88.2977 86.1889 87.8663 86.2979L81.0461 87.4856C81.3936 86.1196 81.6797 84.9643 81.7135 83.538C84.2684 83.3649 85.9563 81.3768 88.3036 80.7255Z" fill="white"/>
<path d="M74.076 97.1005L75.0895 97.1061C74.3147 98.0616 72.993 98.4719 71.8877 98.9465C69.228 100.089 66.5129 100.909 63.7444 101.731C59.8811 102.878 55.8748 104.006 51.8633 104.477C49.603 104.742 47.2934 104.817 45.0225 104.662C42.7875 104.509 40.4108 104.202 38.5932 102.769C38.2723 102.216 38.1774 101.459 38.0813 100.831C37.6696 98.135 37.7973 95.2356 38.1823 92.5387C38.8293 88.0038 40.0477 83.5542 41.7239 79.2924C43.0514 75.9168 44.5868 72.7241 46.9918 69.9665C47.7436 69.1045 48.5553 68.2606 49.476 67.5772C50.5737 66.7625 51.9159 66.0793 53.2957 65.9393C54.0536 65.8625 54.7983 65.9516 55.5461 66.0655C54.9356 66.3247 53.8975 66.542 53.4747 67.0532L53.5487 67.1997C54.0321 67.3936 54.7643 66.9926 55.2909 66.9704C56.0803 66.9372 56.7372 67.361 57.3122 67.8528C59.4334 69.6674 60.3295 72.3458 61.4012 74.8325L63.0411 78.377C63.8186 79.9106 64.7112 81.3989 66.019 82.5374C65.6997 82.7559 65.2149 82.7981 64.8594 82.9788C64.3727 83.2262 63.9133 83.6317 63.476 83.9612C63.1456 84.21 62.7723 84.4329 62.4948 84.7413L62.5856 84.8838C63.4082 84.909 64.3129 84.5387 65.0526 84.2085C65.4356 84.0374 65.8688 83.7965 66.2842 83.7172C66.5215 83.6721 66.6467 83.6778 66.8336 83.818C67.0098 84.7883 66.242 85.0766 66.076 85.8766L66.211 85.9807C66.343 85.9764 66.4776 85.979 66.5997 85.9206C67.218 85.6245 67.4534 84.5286 67.6233 83.9362L67.7125 83.8997C67.8077 84.1307 67.8741 84.3426 67.8829 84.5948C67.8948 84.9297 67.7684 85.3823 67.9577 85.6567C68.1889 85.6846 68.2584 85.719 68.4692 85.6081C68.759 85.2151 68.7745 84.4852 68.8417 84.0034C70.3807 84.3581 72.1766 84.2167 73.7493 84.1538L80.9026 83.6938L79.6542 89.01C79.2938 90.3422 78.7819 91.7034 78.6725 93.0844C78.6204 93.7438 78.7288 94.3157 78.9133 94.9448L74.6297 95.7762C71.1043 96.1559 67.2952 96.0282 63.9524 94.7428C60.6469 93.4719 57.7696 90.9014 55.8438 87.954L54.1268 85.0657C53.676 84.3098 53.2674 83.571 52.5709 83.0129C52.809 84.4003 53.3577 85.4854 54.0276 86.7184C54.9643 88.442 56.0133 90.0268 57.3461 91.4739C59.7526 94.0868 62.6924 95.8411 66.1778 96.61C66.86 96.7606 67.6229 96.9356 68.3192 96.9528L68.4672 96.9547C70.3219 97.1878 72.211 97.1551 74.076 97.1005Z" fill="white"/>
<path d="M46.0586 99.2797L46.1857 99.2426C46.5285 99.1745 47.8857 99.1928 48.1307 99.3885L48.0213 99.5727C47.5293 99.686 46.7729 99.7291 46.2916 99.5524C46.1084 99.485 46.1359 99.4452 46.0586 99.2797Z" fill="#141414"/>
<path d="M59.0096 72.7661L59.1279 72.7739C59.3287 72.8817 59.4481 73.0825 59.5531 73.2789C60.0737 74.2524 60.2828 75.5502 60.5903 76.6133L61.2883 78.818C61.6346 79.8114 62.1031 80.7623 62.4924 81.7403L62.0254 81.3096C61.5459 80.7852 61.2528 80.035 60.9904 79.3846C60.3533 77.8049 59.9371 76.1946 59.478 74.5606C59.3313 74.0383 58.9965 73.3016 59.0096 72.7661Z" fill="#141414"/>
</g>
<defs>
<clipPath id="clip0_53_1720">
<rect width="150" height="150" fill="white"/>
</clipPath>
</defs>
</svg>
