<svg width="340" height="340" viewBox="0 0 340 340" fill="none" xmlns="http://www.w3.org/2000/svg">
<g clip-path="url(#clip0_146_898)">
<path d="M0 0H340V340H0V0Z" fill="white"/>
<path d="M145.838 134.057C146.089 133.976 146.243 133.94 146.501 133.926C147.109 133.892 147.437 134.028 147.871 134.454C148.349 134.922 148.881 135.665 148.777 136.382C148.701 136.902 148.392 137.004 148.003 137.286C147.773 137.364 147.541 137.425 147.298 137.456C146.603 137.545 146.07 137.354 145.566 136.88C145.167 136.505 145.076 135.989 145.079 135.462C145.084 134.758 145.361 134.501 145.838 134.057Z" fill="#141414"/>
<path d="M94.357 300.505C95.0936 300.569 95.9405 300.658 96.6143 300.973C97.1549 301.226 97.6308 301.666 97.7782 302.265C97.8818 302.687 97.7618 303.114 97.5321 303.471C97.1124 304.12 95.983 304.39 95.2898 304.562L94.712 304.571C93.4574 304.507 92.8411 304.317 91.9805 303.394C91.845 302.943 91.7379 302.678 91.9548 302.232C92.402 301.312 93.4569 300.83 94.357 300.505Z" fill="#141414"/>
<path d="M158.134 97.0173C158.552 96.9182 159.152 96.9766 159.588 96.9691C161.459 96.9368 163.446 96.9948 164.87 98.3645C165.001 98.7355 165.079 98.9037 164.845 99.2774C163.802 100.937 162.255 99.1702 161.036 99.002C159.71 98.8192 158.221 99.0095 156.896 99.1437C156.204 99.2725 155.288 99.4553 154.725 99.898C154.007 100.462 153.533 101.52 152.652 101.749C152.152 101.495 151.912 101.325 151.602 100.854C151.573 100.251 151.529 99.8755 151.926 99.3606C153.252 97.6407 156.153 97.229 158.134 97.0173Z" fill="#141414"/>
<path d="M171.886 207.436L172.241 207.497C172.821 207.904 173.197 208.627 173.537 209.242C175.459 212.718 176.686 216.715 178.021 220.443C178.345 221.348 179.324 223.295 179.048 224.21C178.74 224.228 178.343 224.239 178.073 224.066C176.826 223.265 175.145 217.72 174.495 216.058C173.568 213.69 172.285 211.242 171.749 208.75C171.62 208.149 171.58 207.959 171.886 207.436Z" fill="#141414"/>
<path d="M136.252 221.976L137.295 221.948C137.721 222.188 137.752 222.182 137.94 222.627C137.857 222.83 137.856 222.856 137.71 223.065C137.129 223.896 136.112 224.724 135.334 225.378C131.796 228.355 128.302 229.67 123.76 230.286C122.985 230.287 122.467 230.295 121.861 229.766L121.841 229.268C122.522 228.498 124.252 228.124 125.212 227.737L128.446 226.256L136.252 221.976Z" fill="#141414"/>
<path d="M119.92 199.135C120.067 199.205 120.107 199.214 120.249 199.336C120.954 199.941 121.554 201.031 122.051 201.813L125.809 208.015C127.538 210.723 129.593 213.41 131.828 215.728L135.572 219.253C136.068 219.716 136.627 220.026 136.72 220.718L136.196 220.675C135.404 220.537 134.5 219.88 133.828 219.429C130.82 217.41 128.439 214.818 126.269 211.937C123.995 208.918 121.844 205.593 120.529 202.03C120.187 201.102 119.777 200.136 119.92 199.135Z" fill="#141414"/>
<path d="M146.122 108.325L146.37 108.286C146.791 108.271 147.043 108.518 147.339 108.767C147.946 110.044 147.973 111.464 147.682 112.828C147.243 114.885 145.991 116.539 144.198 117.625C142.871 118.43 141.242 118.756 139.723 118.361C137.204 117.706 135.839 115.894 134.57 113.78C134.093 112.725 133.717 111.834 133.963 110.65C134.389 110.21 134.467 110.274 135.053 110.226C136.186 110.773 136.672 113.324 137.56 114.408C138.322 115.338 139.297 116.105 140.534 116.211C141.62 116.303 142.631 115.988 143.465 115.28C144.546 114.365 145.429 112.751 145.444 111.314C145.451 110.61 145.298 109.847 145.404 109.153C145.484 108.625 145.712 108.595 146.122 108.325Z" fill="#141414"/>
<path d="M135.084 98.1794L137.962 98.1294C139.389 98.1976 141.122 98.7678 142.073 99.8892C142.488 100.379 142.594 100.849 142.524 101.462C142.049 101.92 141.752 102.057 141.113 102.207C140.311 102.05 139.326 100.869 138.634 100.334C135.287 99.7949 132.13 100.995 129.119 102.313C127.296 103.138 124.194 104.885 122.187 104.603C121.657 104.528 121.541 104.311 121.245 103.895C121.206 103.333 121.131 103.188 121.44 102.7C122.466 102.112 123.697 101.95 124.802 101.539C126.273 100.992 127.664 100.24 129.127 99.6687C131.08 98.9059 133.007 98.438 135.084 98.1794Z" fill="#141414"/>
<path d="M163.43 193.491C163.951 193.576 164.053 193.661 164.475 193.989C164.694 195.994 163.133 198.46 161.991 200.037C158.038 205.495 153.06 209.884 146.26 211.063C144.535 211.363 142.775 211.41 141.028 211.508C140.634 211.501 140.238 211.588 139.926 211.338C140.871 210.294 142.988 210.057 144.308 209.774L147.869 208.832C153.743 207.019 158.607 201.908 161.751 196.755C162.398 195.695 162.854 194.585 163.43 193.491Z" fill="#141414"/>
<path d="M268.78 161.404C269.276 161.378 269.803 161.266 270.23 161.565C270.227 162.606 268 163.406 267.143 163.702C265.04 164.432 262.832 164.83 260.728 165.56C254.49 167.726 250.036 171.69 245.452 176.25L244.707 176.764L244.419 176.63C244.234 175.243 245.278 173.69 246.009 172.563C246.841 171.283 248.052 170.143 249.175 169.122C254.825 163.985 261.613 162.984 268.78 161.404Z" fill="#141414"/>
<path d="M154.283 107.495L154.58 107.457C155.792 107.512 155.857 110.473 156.598 111.479C157.37 112.528 158.488 113.326 159.802 113.514C160.536 113.62 161.526 113.386 162.103 112.91C163.154 112.041 163.097 109.825 163.184 108.574C163.488 108.169 163.517 108.216 164.023 108.121C164.432 108.292 164.675 108.328 164.881 108.756C165.44 109.917 165.098 112.169 164.635 113.297C164.111 114.572 163.343 115.226 162.086 115.714C161.718 115.857 161.886 116.09 161.909 116.459C162.04 118.522 161.916 119.937 160.881 121.768C160.607 122.123 160.329 122.485 159.995 122.786C158.726 123.93 157.021 124.275 155.358 124.146C154.457 124.077 153.832 123.789 153.25 123.1C153.209 122.436 153.259 122.338 153.547 121.772C154.307 121.344 155.173 121.623 156.023 121.677C157.018 121.74 158.168 121.469 158.911 120.776C159.805 119.942 160.024 118.457 160.03 117.298C160.032 116.971 160.062 116.202 159.79 115.966C159.567 115.773 158.727 115.672 158.434 115.585C157.411 115.284 156.42 114.709 155.687 113.937C154.541 112.73 153.393 110.291 153.585 108.574C153.65 108 153.837 107.819 154.283 107.495Z" fill="#141414"/>
<path d="M312.523 273.511C312.66 273.467 312.704 273.443 312.867 273.447C313.446 273.466 313.976 273.904 314.267 274.382C314.863 275.359 314.956 277.013 314.628 278.102C313.907 280.493 311.702 282.017 309.594 283.098C307.274 284.286 304.951 284.787 302.431 283.941C300.173 283.184 298.241 281.584 296.403 280.119C295.899 279.717 295.092 279.231 294.809 278.658C295.068 278.406 295.15 278.313 295.495 278.212C296.864 277.811 298.623 279.416 299.709 280.138C300.493 280.659 301.301 281.123 302.126 281.574L302.661 281.806C304.362 282.529 306.076 282.532 307.789 281.819C309.541 281.089 311.848 279.578 312.543 277.724C312.771 277.118 312.687 276.665 312.438 276.087C312.036 276.002 311.525 276.462 311.165 276.682C309.467 277.72 307.809 278.455 305.848 278.826C304.453 279.09 302.471 279.333 301.262 278.444C300.896 278.175 300.754 278.102 300.682 277.662C301.266 277.319 302.065 277.323 302.73 277.244C303.985 277.094 305.246 276.962 306.463 276.607C308.804 275.924 310.391 274.52 312.523 273.511Z" fill="#141414"/>
<path d="M272.849 151.136C273.523 151.086 274.576 150.975 275.183 151.316C275.591 151.545 275.563 151.824 275.66 152.236C275.607 152.427 275.626 152.653 275.503 152.807C275.307 153.053 274.477 153.28 274.18 153.377L269.776 154.724C262.747 156.87 255.782 160.113 250.59 165.423C248.944 167.106 247.574 168.996 246.182 170.886L245.843 171.264C245.53 171.575 245.061 171.927 244.605 171.924C244.534 171.734 244.519 171.731 244.508 171.494C244.485 170.976 244.794 170.331 244.998 169.86C245.682 168.279 246.539 166.815 247.612 165.466C252.974 158.734 264.208 152.086 272.849 151.136Z" fill="#141414"/>
<path d="M152.844 162.28C154.398 161.951 155.891 162.387 157.234 163.178C159.396 164.449 161.232 166.309 162.908 168.157C165.969 171.53 168.514 175.176 171.083 178.922C175.067 184.73 178.822 190.514 182.029 196.796C182.77 198.245 183.879 199.97 184.294 201.536L183.862 201.682C182.919 201.484 182.294 200.712 181.762 199.96C179.973 197.438 178.761 194.482 177.153 191.834L171.957 183.98C169.385 180.121 166.843 176.218 163.951 172.587C161.908 170.022 159.723 167.466 157.124 165.444C156.436 164.908 155.706 164.411 154.937 163.998C154.171 163.588 152.982 163.293 152.442 162.612L152.844 162.28Z" fill="#141414"/>
<path d="M158.289 178.882L158.48 178.894C158.966 179.187 159.076 179.39 159.323 179.878C159.394 180.677 159.293 181.383 158.902 182.098C158.316 183.169 157.339 184.19 156.5 185.066C153.555 188.137 150.415 190.309 146.296 191.489C136.145 194.396 127.109 187.31 118.77 182.719L116.472 181.507C117.898 181.442 119.421 181.46 120.803 181.854C124.05 182.782 126.712 185.262 129.687 186.787C132.904 188.436 136.337 189.302 139.914 189.712C145.986 190.407 151.504 187.342 155.245 182.723C156.104 181.664 156.961 179.806 158.033 179.049L158.289 178.882Z" fill="#141414"/>
<path d="M88.3223 206.033C91.0573 210.653 92.6055 215.889 95.0165 220.678C101.715 233.983 112.717 246.462 127.205 251.264L127.085 251.477C125.858 251.667 124.31 251.886 123.101 251.559C117.935 250.164 113.345 246.305 109.347 242.861C101.494 236.095 95.5017 227.315 91.512 217.785C89.9324 214.012 88.6251 210.134 88.3223 206.033Z" fill="#141414"/>
<path d="M87.0175 37.2706L87.4341 37.2278C86.929 38.4458 85.8926 39.6289 84.9988 40.5859C82.5811 43.1741 79.7221 45.3808 77.0495 47.6997C68.9798 54.7038 61.4546 62.3883 54.8472 70.7927C50.6973 76.0706 47.0303 81.7559 43.5019 87.4611C35.5386 100.337 28.6095 113.971 23.5427 128.266C20.2223 137.634 17.7999 147.306 15.8942 157.051C14.6348 163.491 13.5561 170.03 13.0991 176.582C12.4097 186.464 12.3109 196.571 13.279 206.44C14.2786 216.632 16.5606 226.653 19.9106 236.323C24.2379 248.815 30.1534 260.201 38.8614 270.22C38.8668 268.633 39.0115 267.247 39.4603 265.722C39.8383 264.438 40.4391 262.267 41.67 261.597C42.2602 261.589 42.6929 261.697 43.1772 262.056C44.3435 262.919 45.2068 264.548 45.9182 265.778C46.662 267.064 47.4416 268.309 48.3053 269.519C49.7304 271.515 51.3728 273.288 53.1477 274.976C54.103 275.883 56.4534 277.732 56.5477 279.072C56.5778 279.502 56.4419 279.754 56.1966 280.083C56.0027 280.075 55.8044 280.102 55.6153 280.059C55.3864 280.007 54.9389 279.616 54.7303 279.46L52.1932 277.517C49.9814 275.952 47.5979 274.626 45.4901 272.917C44.0524 271.751 42.7275 270.441 41.3983 269.154C40.7014 273.806 45.6181 277.373 48.8392 279.804C49.679 280.437 51.1732 281.392 51.5977 282.379C51.7452 282.721 51.6761 282.696 51.5482 283.009C50.6145 283.706 49.3992 283.994 48.2951 284.319C44.7517 285.359 40.8721 285.895 37.181 285.462C34.5292 285.151 32.1797 284.64 29.8518 283.254C28.9129 282.695 28.0634 282.011 27.0812 281.524C27.1946 282.245 27.2853 283.023 27.5213 283.714C28.2833 285.946 30.7233 287.249 32.7051 288.207C38.2225 290.614 44.2587 290.013 49.9708 288.523C51.9895 287.996 53.9193 287.256 55.9575 286.785L54.9791 287.726C52.2131 290.218 47.678 290.869 44.1227 291.217C42.1487 291.41 40.1772 291.548 38.1945 291.413C34.3067 291.148 28.919 289.646 26.3369 286.558C24.8739 284.809 23.6478 281.478 23.8708 279.201C23.9723 278.164 24.3858 277.309 25.2081 276.665C25.6475 276.559 25.9697 276.487 26.3965 276.726C27.1394 277.141 27.8146 278.257 28.3604 278.913C29.3659 280.121 30.4824 281.18 31.8725 281.934C36.8962 284.658 43.9634 283.89 49.2106 282.311C47.23 280.678 45.0271 279.299 43.1013 277.604C41.7105 276.379 40.576 274.949 39.2895 273.627C37.0317 271.307 34.7467 269.076 32.7024 266.555C28.15 260.942 24.496 254.17 21.5428 247.592C11.7444 225.769 8.50068 201.741 10.3477 177.969C11.0715 168.653 12.6123 159.521 14.6419 150.408C16.8581 140.458 19.6174 130.636 23.2664 121.108C25.8823 114.279 28.9426 107.334 32.335 100.851L40.8404 85.9789C43.1786 82.0817 45.4675 78.1009 48.1229 74.4105C51.7155 69.4181 55.8136 64.6107 59.9525 60.0667C63.986 55.6383 68.1347 51.3573 72.6649 47.4331C76.0166 44.5299 79.3706 41.3577 83.1863 39.0804C84.3807 38.3675 85.7474 37.8401 87.0175 37.2706Z" fill="#141414"/>
<path d="M145.941 33.6008C146.901 33.4184 148.142 33.5236 149.117 33.5743C151.303 33.688 153.45 33.9255 155.583 34.4359C164.978 36.685 173.73 43.2221 178.762 51.4876C182.994 58.4385 184.728 66.761 182.721 74.7408C181.144 81.0122 176.899 86.8135 171.31 90.0762C167.277 92.4301 162.776 93.185 158.187 93.4577C154.234 93.6927 150.345 93.521 146.483 92.5638C143.576 91.8435 140.904 90.484 138.042 89.75L137.603 90.8935C137.059 91.0865 136.376 90.9134 135.801 90.8807C134.808 90.824 133.808 90.8142 132.815 90.8753C130.29 91.0316 127.713 92.0339 125.242 91.94L125.015 91.9281C124.287 92.5625 123.666 93.7777 123.116 94.5875C121.874 96.415 120.642 98.2947 119.259 100.016C116.573 103.357 113.282 106.043 110.113 108.9C110.887 112.05 111.001 115.362 110.58 118.573C108.518 117.133 107.451 115.069 106.063 113.045C104.629 110.955 102.904 109.09 100.563 108.016C98.9459 107.274 96.9134 106.903 95.2099 107.62C93.7392 108.239 92.7445 109.398 92.2216 110.886C91.3304 113.425 91.7656 116.491 92.949 118.867C94.2793 121.538 96.3915 123.908 99.2948 124.852C101.084 125.434 103.214 125.674 105.032 125.067C105.614 124.873 106.108 124.526 106.665 124.284C107.056 124.114 107.24 124.147 107.615 124.314C107.916 124.827 107.925 124.911 107.914 125.508C107.65 125.992 107.381 126.273 106.926 126.59C105.415 127.647 103.856 127.821 102.086 127.529L101.84 127.486C103.7 130.555 105.303 133.83 107.263 136.823C109.378 140.054 112.116 143.099 115.146 145.489C121.442 150.453 130.037 153.665 138.129 152.656C148.949 151.306 158.644 140.549 161.471 130.458C162.013 128.524 162.378 126.495 162.685 124.512C162.965 122.71 163.031 120.035 164.19 118.544L164.439 118.534L164.55 118.778C165.64 121.416 162.355 140.919 161.492 144.622C161.198 145.884 160.791 147.116 160.296 148.312C158.326 153.064 153.973 157.096 149.233 159.039C148.944 159.157 148.758 159.23 148.533 159.458C148.621 160.208 148.602 160.813 148.387 161.54C147.725 163.777 146.136 165.425 144.113 166.497C138.412 169.519 130.608 168.827 124.658 166.969C124.441 167.193 124.514 167.084 124.376 167.364C123.345 169.451 121.772 170.987 119.415 171.463C117.993 171.75 116.278 171.48 114.834 171.35C109.21 170.844 103.566 169.808 98.1149 171.906C93.1872 173.802 90.6996 179.931 88.6875 184.433C84.7106 193.33 82.5006 202.654 80.8414 212.212C78.4193 226.16 77.5711 240.141 79.0143 254.253C79.7408 261.356 80.9556 268.575 83.5335 275.264C86.4093 282.727 91.5947 289.415 98.7285 293.188C101.297 294.547 103.99 295.468 106.634 296.641C106.676 295.693 106.488 294.72 106.478 293.765C106.443 290.65 107.312 287.457 108.841 284.747C109.857 282.947 111.194 281.279 112.422 279.617C115.956 274.833 119.955 270.111 124.201 265.94L132.332 258.679L134.981 256.426C135.167 256.273 135.644 255.793 135.848 255.725C135.922 255.701 136.552 255.877 136.629 255.896C137.908 256.199 139.164 256.65 140.423 257.033C143.989 258.116 147.58 258.858 151.277 259.323C157.456 260.1 163.634 260.244 169.835 259.699C173.025 259.419 176.331 259.041 179.417 258.155C181.383 257.591 183.25 256.834 184.908 255.612C188.591 252.897 190.277 248.588 192.024 244.535C193.258 241.668 194.573 238.853 196.098 236.127L185.242 236.371C177.463 236.379 169.771 235.811 162.115 234.428C156.075 233.338 149.978 231.734 144.426 229.066C142.56 228.17 140.373 227.179 138.89 225.698C138.78 225.314 138.776 225.268 138.891 224.887C139.347 224.715 139.675 224.657 140.153 224.801C141.65 225.252 143.096 226.344 144.515 227.026C146.611 228.035 148.846 228.794 151.052 229.526C163.736 233.736 176.968 234.668 190.25 234.361C193.729 234.281 197.318 234.284 200.764 233.783C204.07 233.303 207.353 232.377 210.53 231.364C212.859 230.622 215.209 229.859 217.4 228.76C216.563 228.789 215.675 229.045 214.843 229.173L209.857 229.787C203.334 230.472 195.955 230.637 189.491 229.471C188.314 229.259 186.842 229.069 186.116 228.022C185.853 226.797 185.928 225.481 185.939 224.232L186.194 216.912L188.135 183.911L188.893 168.43C189.009 167.24 189.198 165.12 189.796 164.118C190.263 163.335 191.578 163.131 192.399 162.915L192.391 159.133C192.42 158.285 192.647 157.548 193.316 156.977C195.241 155.335 199.364 155.488 201.785 155.413C206.519 155.267 211.344 155.254 216.066 155.637C224.743 156.341 232.786 158.237 238.674 165.17L238.936 163.826C240.666 156.95 245.261 150.487 251.362 146.841C255.315 144.478 260.063 143.303 264.566 144.48C259.722 146.05 255.117 146.843 250.841 149.849C246.574 152.848 243.709 156.834 241.826 161.651C241.314 162.959 240.732 164.43 240.593 165.835C240.438 167.402 241.303 169.22 240.969 170.686C240.879 171.079 240.959 170.948 240.64 171.158C239.586 169.939 239.106 168.251 237.998 166.995C231.476 159.604 222.6 158.074 213.253 157.584C210.296 157.429 196.015 156.951 194.336 158.794C193.619 159.581 194.036 161.86 194.132 162.841C197.961 162.611 202.027 162.999 205.864 163.206C211.841 163.53 217.816 163.51 223.657 165.024C228.756 166.346 234.82 169.52 237.521 174.233C238.113 175.267 238.836 176.858 238.488 178.054L238.392 178.384C238.391 178.495 238.369 178.622 238.43 178.716C238.51 178.839 238.724 178.728 238.871 178.737C239.516 178.773 240.171 178.834 240.806 178.961C242.762 179.352 243.984 180.177 245.426 181.478L239.9 213.659C242.638 212.308 245.783 209.982 248.808 209.51C250.039 209.318 251.456 209.52 252.676 209.705C255.411 210.119 257.778 210.637 260.006 212.393C263.11 214.838 264.516 217.907 264.951 221.782C266.327 221.306 267.636 220.735 268.717 219.737C268.838 219.625 269.253 219.294 269.311 219.167C269.514 218.727 269.537 217.656 269.62 217.142L270.933 208.267L276.978 157.743C277.052 156.758 277.222 155.621 277.093 154.644C277.029 154.164 276.813 153.739 276.831 153.25C277.735 153.075 278.514 153.083 279.37 153.444C279.739 153.966 279.737 154.151 279.738 154.793C279.744 157.217 279.268 159.832 279.002 162.254L277.534 176.145L277.216 179.722L277.713 179.869C278.721 180.151 279.528 180.484 280.291 181.237C282.35 183.266 282.403 186.13 282.252 188.821C282.22 189.397 282.045 190.245 282.143 190.8C282.239 191.342 282.672 191.972 282.879 192.495C283.179 193.257 283.259 193.93 283.257 194.736C283.256 195.134 283.056 195.184 282.785 195.454C282.869 195.68 282.959 195.874 283.076 196.087L283.203 196.314C283.218 198.181 282.995 199.542 281.762 201.003C281.14 201.738 280.321 202.271 279.625 202.927C277.68 204.76 276.746 206.691 273.776 206.933C273.317 206.97 273.379 207.982 273.327 208.427L272.549 214.612C272.259 216.731 272.022 219.888 270.464 221.492C269.28 222.711 267.5 223.163 265.901 223.546C265.651 223.606 264.926 223.686 264.772 223.811C264.641 223.917 264.48 224.95 264.416 225.188C264.153 226.161 263.756 227.112 263.379 228.045C262.223 230.908 260.591 233.412 258.735 235.867C252.716 243.83 246.225 251.003 238.573 257.444C237.08 258.701 235.416 259.695 233.921 260.923L242.155 261.472C249.203 262.068 256.26 262.962 263.14 264.634C265.809 265.282 268.548 265.959 271.067 267.071C274.018 268.374 276.737 270.186 279.281 272.158C280.656 271.307 282.175 270.768 283.617 270.05C286.988 268.37 289.267 265.586 290.279 261.971C290.796 260.121 291.023 258.053 292.056 256.396C292.453 255.76 292.785 255.512 293.516 255.346C294.065 255.433 294.396 255.532 294.761 255.972C296.098 257.586 296.446 259.965 296.787 261.959C297.445 265.808 297.815 269.113 297.365 273.02L297.645 272.933C299.35 272.383 300.96 271.39 302.452 270.407C309.253 265.93 313.358 259.232 316.909 252.062C320.111 245.598 322.393 238.625 324.153 231.645C325.869 224.841 327.118 218.007 327.597 210.997C327.814 207.814 327.727 204.582 327.728 201.392C327.729 197.105 327.769 192.787 327.173 188.531C326.72 185.297 325.896 182.22 324.857 179.134L326.925 182.315C328.481 185.076 329.298 188.236 329.761 191.352C330.369 195.45 330.219 199.767 330.185 203.906C330.154 207.8 330.19 211.73 329.769 215.603C329.046 222.25 327.784 229.146 325.976 235.586C322.038 249.607 315.294 265.782 301.956 273.188C300.757 273.854 298.209 275.226 296.825 274.722C296.187 274.49 295.346 273.672 295.16 273.013C294.887 272.047 295.366 270.579 295.45 269.568C295.71 266.415 294.77 263.471 293.518 260.626C292.088 263.899 290.618 266.716 288.381 269.534C289.402 270.111 290.3 270.634 291.013 271.601C293.48 274.95 294.173 279.536 293.581 283.571C292.972 287.724 291.722 291.033 288.856 294.169L303.145 294.485C306.89 294.535 310.694 294.38 314.377 295.173C313.589 295.714 312.776 296.228 311.817 296.391C308.723 296.917 305.289 296.717 302.157 296.716C295.326 296.715 288.371 296.449 281.563 296.954C280.691 297.019 279.991 297.523 279.257 297.963L295.591 299.173C289.624 300.183 283.274 299.844 277.218 299.983L253.677 300.921L204.534 303.877L190.892 304.156L157.393 304.236L133.394 302.755C124.72 302.045 116.023 300.72 107.474 299.109C103.868 298.431 100.281 297.336 96.6611 296.816C94.5033 296.505 92.3181 296.404 90.1462 296.233L79.9019 295.56C72.943 295.293 66.0111 295.92 59.0774 296.426L37.391 297.776L26.4089 298.031L22.9103 297.768C21.9742 297.721 21.1111 297.823 20.168 297.697C21.1072 297.413 22.1148 297.315 23.0763 297.117C30.6185 295.563 38.3639 295.881 46.0161 295.273L66.259 293.484L73.7084 292.828C72.4131 292.237 71.1553 291.629 70.0282 290.747C65.069 286.869 62.3122 280.472 58.4726 275.583C56.372 272.907 53.594 270.992 51.9657 267.933C60.5684 271.112 63.5647 281.062 69.2911 287.304C73.2741 291.645 78.5401 292.28 84.0917 292.905L94.9784 293.703C90.7226 290.636 86.7767 286.578 84.1231 282.041C80.9547 276.625 79.3189 270.462 78.0966 264.353C76.1841 254.79 75.6825 244.735 76.034 234.995C76.2429 229.203 76.9499 223.467 77.7504 217.733C79.063 208.326 80.8099 199.233 83.9925 190.254C85.6478 185.584 87.3762 181.386 90.1365 177.241C89.3414 177.63 88.6104 178.335 87.9052 178.883L84.6681 181.225C78.2887 185.581 71.1239 188.111 63.3398 187.638C56.136 187.201 49.7938 183.677 45.074 178.252C43.2345 176.138 41.5357 173.482 41.7572 170.573C42.0882 166.226 46.1782 165.022 49.4166 163.22C50.8886 162.401 52.2924 161.413 53.567 160.311C56.9059 157.424 59.8888 153.242 61.0248 148.934C61.7889 146.035 61.7757 143.088 61.6026 140.117C61.0567 130.748 57.8148 122.019 56.1732 112.861C55.4848 109.021 55.2302 105.015 55.5065 101.119C56.097 92.7967 58.9893 84.3724 62.4636 76.8331C64.1393 73.1971 65.9646 69.6227 68.2551 66.3302C71.1487 62.1701 74.7873 58.28 78.6128 54.9531C86.4164 48.1668 98.1504 42.545 108.739 43.5212C113.796 43.9874 118.519 46.3597 121.702 50.3272L121.89 50.5641C122.842 48.6494 123.932 46.863 125.276 45.1958C129.107 40.443 134.413 36.3686 140.307 34.6144C142.165 34.0613 144.022 33.8127 145.941 33.6008Z" fill="#141414"/>
<path d="M274.582 203.12C275.593 203.213 276.642 203.089 277.662 203.107C277.503 203.423 276.804 203.645 276.465 203.804L274.424 204.516L274.175 204.354C274.229 203.829 274.312 203.575 274.582 203.12Z" fill="white"/>
<path d="M200.485 245.288C200.963 245.819 200.684 248.013 200.682 248.874C200.677 252.309 201.125 255.692 202.581 258.833C202.706 259.103 202.714 259.119 202.703 259.438L202.29 259.364C201.852 259.105 201.476 258.775 201.223 258.326C199.314 254.926 199.543 248.952 200.485 245.288Z" fill="white"/>
<path d="M280.508 191.831C280.71 191.833 280.582 191.821 280.882 191.922C280.897 192.58 281.012 193.506 280.652 194.083C279.655 195.679 277.693 195.897 276.002 196.194L275.616 196.057C275.536 195.312 275.766 194.549 275.916 193.821C277.624 193.347 278.971 192.72 280.508 191.831Z" fill="white"/>
<path d="M280.828 196.978L281.087 197.04L281.197 197.31C281.035 198.111 280.852 198.845 280.344 199.505C279.13 201.086 277.154 201.227 275.337 201.428L274.945 201.271C274.879 200.195 275.088 199.125 275.239 198.062C277.201 198.078 278.962 197.512 280.828 196.978Z" fill="white"/>
<path d="M277.307 182.036C278.224 182.157 278.828 182.551 279.396 183.281C280.358 184.518 280.356 186.582 280.127 188.07C279.911 189.473 279.489 190.264 278.34 191.098C277.59 191.465 276.821 191.718 276.03 191.978C276.159 190.371 276.535 188.785 276.72 187.182L276.978 183.894C277.018 183.256 276.971 182.599 277.307 182.036Z" fill="white"/>
<path d="M128.368 81.8049C130.528 84.7078 133.235 86.464 136.036 88.6514C135.225 88.9387 133.414 88.6784 132.495 88.666L126.064 89.7068C127.123 87.0869 127.811 84.5665 128.368 81.8049Z" fill="white"/>
<path d="M154.334 36.4406C154.578 36.4312 154.819 36.4999 155.059 36.5409C163.187 37.9266 170.38 43.7975 175.2 50.2546C178.768 55.0345 181.066 60.6472 181.176 66.6552C181.21 68.5101 180.937 70.304 180.673 72.1342L180.567 72.6929L180.377 72.757C180.035 71.0889 180.106 69.28 179.961 67.5769C179.683 64.2916 178.999 61.0306 177.875 57.9334C175.013 50.0488 168.68 43.5028 161.339 39.5783C160.068 38.8994 158.762 38.229 157.431 37.6774C156.51 37.2954 155.529 37.0289 154.633 36.5911L154.334 36.4406Z" fill="white"/>
<path d="M198.193 236.083L200.455 235.997C197.915 243.119 197.014 251.573 199.078 258.884L196.977 258.669C195.939 258.303 195.212 257.916 194.633 256.936C193.935 255.754 193.74 254.306 193.654 252.959C193.441 249.649 194.086 246.72 195.248 243.628C196.198 241.099 197.487 238.699 198.193 236.083Z" fill="white"/>
<path d="M237.982 181.854C239.182 181.813 241.996 181.567 242.945 182.323C243.187 182.515 243.048 183.019 242.997 183.288L240.938 195.775L239.087 206.091C238.593 208.917 238.044 211.727 238.042 214.602C237.703 215.007 237.108 215.259 236.654 215.522L233.491 217.333L232.163 218.325L233.05 213.573C233.206 212.614 233.295 211.602 233.624 210.684C234.253 210.435 234.434 211.5 234.995 211.729C235.376 211.366 235.433 211.165 235.555 210.674L235.327 210.355L233.546 210.394L236.02 191.768L236.776 185.038C236.858 184.238 236.817 182.855 237.159 182.156C237.263 181.945 237.756 181.909 237.982 181.854Z" fill="white"/>
<path d="M250.308 211.563C252.699 211.808 254.787 212.097 256.993 213.101L239.988 225.166L230.067 232.751C222.551 238.008 214.368 241.366 205.74 244.323C204.442 244.703 203.055 245.23 201.709 245.356C201.509 245.181 201.33 245.011 201.153 244.812L200.991 244.624L200.63 244.717C200.849 241.805 201.732 238.727 202.564 235.945C202.896 235.655 203.546 235.595 203.982 235.491L206.855 234.742C209.644 233.955 212.476 233.012 215.144 231.877C221.427 229.204 226.767 224.352 232.366 220.503C235.689 218.219 239.263 216.354 242.843 214.511C245.298 213.246 247.52 211.905 250.308 211.563Z" fill="white"/>
<path d="M193.53 165.429L206.436 165.335C212.348 165.378 218.98 165.449 224.601 167.439C229.868 169.303 235.274 173.287 237.727 178.377C236.649 179.026 235.222 180.131 234.962 181.455C234.834 182.105 234.87 182.323 235.222 182.866C234.685 184.526 234.596 186.449 234.346 188.179L232.762 200.012L231.088 212.666C230.782 214.884 230.262 217.193 230.227 219.432L230.226 219.656L226.845 222.091C224.788 223.509 222.557 225.269 220.217 226.154C217.459 227.199 214.176 227.512 211.256 227.766C203.517 228.438 195.811 228.299 188.115 227.189L191.07 165.535L193.53 165.429Z" fill="white"/>
<path d="M197.067 170.581C197.163 170.545 197.32 170.48 197.431 170.464C197.958 170.389 198.741 170.653 199.269 170.761C200.448 171.003 201.645 171.271 202.842 171.4C210.06 172.174 217.41 172.156 224.558 173.497C226.637 173.888 229.282 174.372 231.011 175.663L230.845 175.922C227.333 175.494 223.935 174.663 220.386 174.376L211.255 173.812C207.409 173.651 203.432 173.512 199.683 172.582C198.726 172.344 197.28 172.017 196.762 171.162L197.067 170.581Z" fill="#141414"/>
</g>
<defs>
<clipPath id="clip0_146_898">
<rect width="340" height="340" fill="white"/>
</clipPath>
</defs>
</svg>
