<svg width="340" height="340" viewBox="0 0 340 340" fill="none" xmlns="http://www.w3.org/2000/svg">
<g clip-path="url(#clip0_146_931)">
<path d="M0 0H340V340.665H0V0Z" fill="white"/>
<path d="M95.5774 262.186C96.1631 262.1 96.8001 262.045 97.3367 262.341C97.6249 262.5 97.5607 262.607 97.6196 262.901C97.5125 263.278 97.4009 263.479 97.1007 263.723C94.9071 265.509 91.1144 265.535 88.4445 265.326C87.9261 265.262 87.3231 265.233 86.8361 265.04C86.3872 264.861 86.3686 264.727 86.1689 264.315L86.3097 263.958C87.4732 263.401 89.3547 263.371 90.6443 263.165L95.5774 262.186Z" fill="#141414"/>
<path d="M175.254 227.138L175.465 227.065C176.377 226.807 177.748 227.655 178.53 228.111C181.229 229.685 183.723 231.652 186.199 233.55C187.893 234.849 189.943 236.255 191.238 237.951C191.599 238.423 191.823 238.889 191.963 239.466C192.061 239.87 192.048 239.852 191.831 240.198C191.565 240.206 191.399 240.168 191.146 240.071C188.806 239.172 175.727 229.371 175.086 227.754C174.976 227.478 175.126 227.377 175.254 227.138Z" fill="#141414"/>
<path d="M174.844 76.5517C176.262 76.4164 177.791 76.4253 179.188 76.707C180.212 76.9137 182.152 77.2415 182.64 78.2635C182.844 78.6902 182.715 78.9022 182.574 79.3147C181.702 79.926 180.477 79.5942 179.447 79.5592C178.765 79.5361 178.063 79.5977 177.388 79.6967C176.293 79.8568 175.255 80.2693 174.226 80.6601L170.499 82.4162C169.782 82.6513 168.818 82.567 168.174 82.1594C167.848 81.9527 167.665 81.7336 167.577 81.3508C167.475 80.9072 167.645 80.4255 167.889 80.0568C169.347 77.8549 172.44 77.0565 174.844 76.5517Z" fill="#141414"/>
<path d="M175.035 207.344C175.248 207.275 175.423 207.276 175.645 207.268C176.312 207.577 176.819 207.911 177.349 208.421C180.273 211.235 182.839 214.433 185.69 217.329L191.647 223.213C192.575 224.125 193.791 225.106 194.519 226.17C194.803 226.585 194.807 226.654 194.719 227.138C194.442 227.274 194.208 227.303 193.907 227.354C192.811 226.977 191.82 226.102 190.891 225.41C187.165 222.636 183.698 219.42 180.518 216.038C178.496 213.887 174.937 210.502 175.035 207.344Z" fill="#141414"/>
<path d="M240.477 184.389L241.055 184.314C241.244 184.433 241.36 184.49 241.519 184.668C241.686 184.854 241.903 185.333 241.843 185.581C241.655 186.353 241.009 187.061 240.533 187.674C239.447 189.071 237.895 190.974 237.725 192.793C237.266 197.709 243.835 199.983 246.317 203.273C246.742 203.836 246.735 204.166 246.616 204.841C246.246 205.295 246.197 205.428 245.62 205.604C244.539 205.225 243.497 204.335 242.566 203.664C240.262 202.003 237.614 200.345 236.226 197.775C235.155 195.793 235.076 193.517 235.693 191.381C236.44 188.795 238.035 185.731 240.477 184.389Z" fill="#141414"/>
<path d="M160.141 92.2361C160.493 92.1944 160.381 92.1776 160.682 92.2375C161.079 92.316 161.42 92.7533 161.617 93.0909C162.914 95.3101 162.912 99.0295 162.898 101.524C162.892 102.706 162.907 103.952 162.574 105.095C162.292 106.061 161.697 107.045 160.766 107.497C159.276 108.22 157.478 107.979 155.961 107.468C151.83 106.078 149.968 101.976 148.111 98.4116C147.72 97.8908 147.396 97.4033 147.124 96.8103C147.153 96.353 147.239 96.0717 147.532 95.7235C147.911 95.2733 148.301 95.1637 148.874 95.1416C149.362 95.1229 149.57 95.1819 149.902 95.586C150.438 96.2394 150.687 97.1997 150.987 97.9818C151.734 99.9335 152.806 101.868 154.34 103.307C155.578 104.469 157.06 105.289 158.794 105.233C159.335 104.993 159.693 104.82 159.924 104.223C160.632 102.389 160.511 96.9119 159.697 95.2343C159.444 94.7139 159.192 94.1848 159.268 93.5899C159.331 93.0971 159.476 92.7312 159.878 92.4264L160.141 92.2361Z" fill="#141414"/>
<path d="M79.1943 232.96C79.9323 232.853 80.1744 233.246 80.6433 233.765C82.8386 236.201 84.273 239.122 85.8314 241.974C87.0183 244.146 88.307 246.413 89.8844 248.327C91.3174 250.067 93.0648 251.464 94.8343 252.84C96.3674 254.034 98.0072 255.285 99.7333 256.18L100.403 256.545C100.822 256.855 100.994 257.255 101.106 257.745L100.79 258.244L100.634 258.351C100.06 258.633 99.2233 258.473 98.6287 258.338C92.8279 257.018 87.5902 250.434 84.613 245.627C83.3212 243.542 78.6435 235.324 79.1943 232.96Z" fill="#141414"/>
<path d="M249.742 108.039L250.242 108.054C250.587 108.312 251.006 108.612 251.119 109.054C251.351 109.962 251.195 111.245 251.219 112.198C251.247 113.315 251.585 114.404 251.993 115.436C253.505 119.263 256.058 121.666 259.021 124.384C260.057 125.335 261.201 126.339 261.951 127.541C262.945 129.134 263.149 131.144 262.654 132.932C261.939 135.517 259.627 137.11 257.428 138.349C257.054 138.496 256.73 138.63 256.322 138.651C255.955 138.67 255.902 138.473 255.659 138.23C255.662 136.811 257.846 135.734 258.73 134.627C259.874 133.192 260.464 131.378 259.589 129.657C258.903 128.309 257.707 127.331 256.622 126.317C252.66 122.615 249.363 119.242 248.893 113.59C248.742 111.77 248.492 109.517 249.742 108.039Z" fill="#141414"/>
<path d="M201.091 269.388L201.459 269.464C201.558 269.654 201.665 269.842 201.711 270.054C201.852 270.707 201.401 271.507 201.067 272.035C199.652 274.277 196.539 275.374 194.163 276.214C192.455 276.817 190.733 277.387 188.966 277.788C182.106 279.347 175.283 277.328 169.448 273.636C169.093 273.335 168.629 272.95 168.535 272.466C168.423 271.889 168.532 271.627 168.838 271.157C170.157 270.943 174.438 273.203 175.992 273.713C178.134 274.417 180.34 274.847 182.574 275.127C188.835 275.909 196.177 273.225 201.091 269.388Z" fill="#141414"/>
<path d="M147.324 74.9278C150.684 74.7969 156.251 74.8874 158.954 77.1203C159.2 77.3235 159.513 77.6815 159.543 78.0035C159.614 78.7545 159.5 79.2256 159.001 79.8049C158.764 80.0803 158.047 80.7776 157.705 80.8584C157.597 80.8836 156.971 80.6574 156.839 80.6219C155.911 80.3744 155.011 80.1775 154.056 80.0657C151.132 79.7246 148.177 79.6438 145.24 79.8208C142.012 79.8372 138.836 80.5412 135.682 81.1338C135 81.2616 134.375 81.301 133.793 80.8801C133.366 80.5705 133.144 80.1562 133.096 79.631C133.038 79.0029 133.188 78.4963 133.617 78.0292C134.647 76.9105 136.205 76.3463 137.641 75.9879C140.77 75.2063 144.111 75.0768 147.324 74.9278Z" fill="#141414"/>
<path d="M138.608 183.058C138.964 182.984 139.034 183.043 139.37 183.145C140.705 184.443 141.893 185.948 142.652 187.657C143.602 189.793 143.896 192.091 144.22 194.385C144.733 198.009 145.055 201.709 145.209 205.365C145.308 207.701 145.681 211.747 144.019 213.55C143.57 213.58 143.418 213.625 143.022 213.424C142.738 212.713 142.9 211.707 142.914 210.944L142.889 207.078C142.712 201.997 142.227 196.867 141.401 191.85C141.221 190.955 140.709 189.314 139.926 188.755C139.382 192.15 139.598 195.734 139.638 199.17C139.67 201.981 140.392 210.732 138.649 212.673C138.35 213.006 138.247 213.206 137.793 213.227L137.712 213.084C137.41 212.408 137.474 211.559 137.496 210.835L137.595 206.999C137.532 200.358 137.047 193.835 137.829 187.208C137.994 185.819 138.066 184.357 138.608 183.058Z" fill="#141414"/>
<path d="M123.804 235.954L124.265 235.858C124.636 236.142 124.829 236.25 124.981 236.715C125.42 238.054 124.699 240.291 124.115 241.548C123.373 243.144 122.332 244.662 121.182 245.987C118.217 249.404 114.633 252.442 111.309 255.508C107.047 259.436 102.821 263.672 98.099 267.04C96.708 268.032 95.3289 269.05 93.7157 269.645C93.1123 269.682 93.1061 269.662 92.605 269.317L92.5479 268.89C93.9225 266.881 96.1931 265.065 97.9843 263.385L111.179 251.576C113.237 249.733 115.4 247.921 117.311 245.924C119.161 243.99 120.399 241.864 121.681 239.531C122.315 238.377 122.876 237.123 123.695 236.087L123.804 235.954Z" fill="#141414"/>
<path d="M242.834 220.643C243.369 220.599 243.856 220.624 244.292 220.929C244.253 221.488 243.911 221.931 243.641 222.406C242.354 224.671 242.429 226.431 243.094 228.849C233.243 229.031 223.171 228.111 213.458 226.487C212.191 226.199 210.834 226.02 209.619 225.552C209.08 225.344 208.786 225.18 208.557 224.643C208.69 224.26 208.8 223.94 209.088 223.641C211.864 220.764 237.475 220.827 242.834 220.643Z" fill="#141414"/>
<path d="M241.874 116.022C242.682 115.898 243.214 116.254 243.86 116.71C246.836 118.817 249.711 122.705 250.269 126.361C251.193 132.408 246.465 135.484 243.314 139.72C242.525 140.781 241.708 142.027 241.356 143.314C239.791 149.047 244.816 153.59 248.562 157.101C251.254 159.625 254.221 162.193 256.527 165.086C258.198 167.182 259.591 169.82 259.971 172.501C260.556 176.621 259.741 180.167 257.13 183.45C255.136 185.958 252.709 188.086 251.019 190.845C250.368 191.907 249.75 193.118 249.684 194.383C249.501 197.949 253.262 200.723 255.213 203.286C256.703 205.241 257.887 208.179 257.803 210.668C257.662 214.848 252.93 218.74 250.208 221.439C250.572 221.619 251.357 221.506 251.785 221.509L256.328 221.551C260.665 221.625 277.677 222.128 280.365 224.412C280.697 224.694 280.806 224.783 280.852 225.207C279.888 226.36 277.748 226.55 276.319 226.861L271.186 227.629C267.949 227.965 248.84 229.519 246.866 228.108C246.245 227.665 245.955 226.995 245.881 226.253C245.391 221.329 250.318 217.983 252.998 214.524C254.237 212.926 255.209 211.114 254.915 209.03L254.874 208.758C254.089 203.419 247.371 201.114 246.763 195.689C245.791 187.036 257.731 183.19 257.379 174.281C257.15 168.462 251.483 163.848 247.567 160.174C243.827 156.665 238.349 151.978 238.215 146.411C238.136 143.168 239.015 140.419 241.063 137.901C242.052 136.685 243.241 135.61 244.31 134.462C247.577 130.95 248.971 127.087 245.957 122.843C245.157 121.717 244.128 120.759 243.153 119.787C242.499 119.135 241.086 118.004 241.223 116.938C241.289 116.423 241.499 116.335 241.874 116.022Z" fill="#141414"/>
<path d="M75.8002 172.701C76.2155 172.685 76.7344 172.626 77.135 172.743C77.6087 172.882 78.0576 173.546 78.2763 173.967L77.7389 173.749C76.25 173.945 65.625 182.377 63.9565 183.821C59.8999 187.332 56.0656 191.16 52.8334 195.456C44.9616 205.917 40.5304 219.029 39.6119 232.057C39.2686 236.925 39.581 241.803 40.2507 246.627C41.2332 253.702 43.0323 260.557 46.0241 267.056C49.2559 274.077 54.0398 280.775 59.1199 286.568C67.9732 296.663 78.5574 304.793 91.3659 309.079C94.2103 310.03 97.1184 310.972 100.133 311.141C101.643 311.226 103.344 311.335 104.84 311.115C106.789 310.828 108.695 310.135 110.567 309.539C120.54 306.364 130.661 301.182 138.494 294.153C140.627 292.239 142.756 290.248 144.702 288.144C148.187 284.374 151.323 280.275 154.578 276.308C157.461 272.792 160.77 269.263 163.1 265.362C163.5 264.691 164.018 263.675 164.007 262.873C163.992 261.824 163.549 260.55 163.177 259.575C161.632 255.519 158.808 252.428 155.844 249.369C155.726 248.83 155.832 248.442 156.063 247.931C156.255 247.504 156.473 247.383 156.885 247.21C157.971 247.634 158.745 248.328 159.612 249.084C162.603 251.94 164.863 255.659 166.008 259.642C166.841 262.541 166.592 264.948 165.122 267.591C164.184 269.277 162.879 270.787 161.699 272.308L156.67 278.742C151.44 285.307 145.982 291.987 139.517 297.378C134.694 301.4 129.308 304.64 123.682 307.392C119.477 309.449 115.03 311.355 110.524 312.641C107.324 313.555 103.831 314.356 100.486 314.308C96.8878 314.256 93.4032 313.2 90.0355 312.018C85.7019 310.495 81.4523 308.629 77.4458 306.37C75.1357 305.068 72.9727 303.478 70.8238 301.926C56.3197 291.455 44.4436 276.186 39.5866 258.837C34.1456 239.401 35.3321 218.804 45.3826 201.023C49.4759 193.781 55.1054 187.417 61.3701 181.992C63.6696 180 66 178.076 68.5429 176.402C70.8468 174.885 73.1263 173.447 75.8002 172.701Z" fill="#141414"/>
<path d="M177.009 93.4C177.668 93.2505 177.976 93.329 178.55 93.655C178.92 94.2676 178.785 94.8323 178.763 95.5393C178.692 97.7914 178.35 100.096 177.923 102.306C177.533 104.326 176.832 105.884 175.078 107.037L174.942 107.123C175.615 108.47 176.717 109.527 177.739 110.611C180.255 113.281 183.476 116.381 183.863 120.241C183.995 121.559 183.547 122.827 182.701 123.833C180.469 126.486 176.351 126.639 173.151 126.895C174.247 129.792 174.088 133.063 173.41 136.036C171.557 144.157 165.634 151.232 157.904 154.364C155.279 155.428 151.962 155.996 149.588 157.484L151.22 158.921C153.68 161.373 155.497 165.637 155.485 169.124C155.474 172.641 153.839 175.542 150.957 177.518C150.261 177.995 149.335 178.354 148.745 178.938C149.346 180.865 149.658 182.798 149.964 184.787C150.941 184.337 151.964 183.927 153.041 183.813C156.903 183.404 160.734 184.852 163.665 187.338C169.552 192.332 172.069 201.792 172.627 209.201C172.991 214.036 173.026 218.921 172.045 223.688C171.822 224.774 171.695 225.938 170.954 226.805C170.453 226.936 170.474 226.979 170.034 226.721C169.558 225.01 170.093 222.439 170.144 220.639L170.163 212.222C169.895 204.614 168.003 194.988 162.203 189.636C160.191 187.779 156.768 186.052 153.994 186.245C153.468 186.281 152.944 186.308 152.599 186.717L156.693 190.017C157.976 191.19 159.808 192.684 159.89 194.535C159.681 194.949 159.53 195.064 159.127 195.285C158.687 195.291 158.411 195.261 158.031 195.024C156.736 194.218 155.54 192.905 154.349 191.928C152.998 190.822 151.506 189.881 150.235 188.685L150.056 188.515C150.054 191.394 150.25 194.237 150.76 197.072C151.836 203.056 153.867 208.722 152.948 214.892C152.891 215.273 153.317 215.795 153.508 216.134L155.073 219.089C155.516 220.006 155.894 220.96 156.214 221.927C157.011 224.34 157.472 227.265 157.079 229.793C156.712 232.153 155.584 234.527 154.088 236.378C152.792 237.982 151.215 239.309 149.965 240.968C147.78 243.867 146.02 247.708 145.183 251.248C148.603 251.641 151.834 250.624 155.021 249.52C157.013 252.507 159.731 254.724 161.319 258.038C161.725 258.886 162.147 259.864 162.22 260.809C162.266 261.411 162.275 261.993 161.852 262.465C161.622 262.721 161.294 262.809 160.96 262.83C158.833 262.96 156.577 262.479 154.561 261.825C148.435 259.837 143.17 255.708 138.36 251.517C135.948 249.416 133.84 247.035 131.567 244.792C130.093 243.337 128.171 241.821 126.935 240.18C126.711 239.883 126.68 239.645 126.655 239.281C126.882 238.643 127.038 238.361 127.578 237.946C128.182 237.895 128.445 237.863 128.995 238.19C129.61 238.556 130.181 239.169 130.716 239.653C132.262 241.054 133.612 242.577 135.028 244.103C137.219 246.464 139.406 248.795 141.882 250.86C143.459 248.214 144.087 245.141 145.664 242.513C146.074 241.829 146.547 241.247 147.095 240.669C147.417 240.329 147.935 239.978 148.004 239.514C147.524 239.318 147.398 239.29 147.073 238.865C147.062 238.583 146.988 238.263 147.121 238.003C147.545 237.174 148.742 236.625 149.503 236.159C150.622 235.473 151.821 234.704 152.649 233.669C154.241 231.682 154.834 229.035 154.658 226.53C154.468 223.808 153.497 221.454 152.175 219.101C151.572 218.028 150.754 216.84 150.553 215.615C150.439 214.921 150.787 214.861 150.954 214.33C151.026 214.098 150.894 213.34 150.877 213.067L150.586 209.17C150.058 204.195 148.439 199.431 147.915 194.437C147.394 189.46 147.979 184.386 147.43 179.431L145.02 179.702C141.853 180.039 138.536 179.881 135.371 179.615C128.162 179.008 121.108 177.178 114.452 174.348C108.182 171.682 102.27 168.137 96.4839 164.56C90.3382 160.761 84.4643 156.863 78.8442 152.307C77.4102 154.42 74.2059 157.642 74.5605 160.4C74.9908 163.748 80.7646 168.46 83.323 170.582C91.0111 176.5 99.6068 180.946 108.355 185.054C113.553 187.495 118.915 189.91 124.355 191.748C127.701 192.878 131.159 193.661 134.577 194.537C134.863 195.853 134.653 197.603 134.71 198.986L135.2 206.721C135.296 208.543 135.313 211.766 134.058 213.156C133.961 213.104 133.84 213.081 133.766 212.999C133.522 212.727 133.423 211.877 133.362 211.505L132.602 207.769C132.059 205.622 131.17 203.859 130.355 201.825C129.847 200.559 129.484 199.228 129.065 197.929C128.667 199.443 129.032 201.396 129.138 202.951C129.317 205.584 129.388 208.401 130.166 210.938C130.732 212.782 131.759 214.521 132.608 216.248C134.242 219.577 135.61 222.905 136.263 226.567C136.921 230.257 136.67 234.992 134.388 238.13C133.977 238.695 133.601 239.123 132.896 239.24C132.471 239.146 132.218 239.113 131.89 238.806C132.123 237.688 132.585 236.652 132.969 235.582C135.833 227.593 131.522 220.397 127.658 213.624C126.998 212.467 126.106 211.362 125.55 210.171C125.703 209.608 125.856 209.498 126.256 209.091C126.615 209.016 126.926 208.966 127.252 208.788L126.715 198.544L123.383 197.744C118.172 196.294 113.062 194.133 108.196 191.786C103.966 189.746 99.7949 187.548 95.876 184.95C91.6238 182.131 87.6846 178.992 83.7604 175.739C81.3663 173.754 79.1483 171.658 77.0127 169.393C75.4849 167.774 73.9328 166.05 72.8446 164.096C71.8525 162.315 71.4359 160.429 72.0393 158.44C73.0354 155.155 75.1073 152.917 78.0801 151.287L78.5825 151.014C79.599 150.585 81.001 151.09 81.929 151.534C86.8784 153.9 91.4764 157.297 96.1408 160.185C102.391 164.055 109.108 167.208 116.019 169.696C122.835 172.149 129.996 173.676 137.216 174.221C141.201 174.521 145.893 174.521 149.559 172.736C150.944 172.061 152.164 171.055 152.622 169.525C152.814 168.883 152.685 168.151 152.552 167.505C151.97 164.671 150.469 162.142 149.113 159.629L148.576 159.918C146.994 160.803 145.578 161.174 143.775 161.334C141.581 161.529 139.252 161.304 137.094 160.899C136.56 160.799 135.881 160.733 135.483 160.328C135.294 160.136 135.317 159.901 135.31 159.651C135.267 158.13 136.841 156.863 137.811 155.885C132.54 154.431 127.776 152.437 123.011 149.752L115.178 144.961C114.034 144.284 111.697 143.438 110.947 142.388C111.037 142.167 111.126 142.001 111.307 141.841C112.104 141.132 112.653 141.37 113.555 141.712C116.696 142.898 119.666 144.632 122.592 146.267C127.127 148.799 131.812 151.213 136.878 152.496C139.409 153.137 141.973 153.431 144.573 153.594C151.197 154.009 158.147 151.966 163.147 147.47C167.254 143.778 169.655 139.293 170.878 133.931C171.121 132.862 171.457 131.696 171.519 130.602C170.982 131.015 170.441 131.442 169.842 131.759C167.056 133.229 163.645 132.925 160.74 131.984C158.729 131.332 155.58 130.043 154.617 127.999C153.723 126.101 154.328 123.772 155.692 122.257C156.396 121.476 157.398 120.763 157.717 119.728C157.881 119.194 157.973 119.003 158.379 118.619C158.847 118.453 158.912 118.45 159.398 118.556C159.958 118.993 160.188 119.397 160.492 120.024C160.679 120.41 161.121 120.476 161.517 120.618C164.774 121.786 168.586 122.349 172.029 122.596C174.671 122.785 177.375 122.886 179.811 121.68C180.326 121.425 180.78 121.166 180.973 120.597C181.015 118.316 179.175 116.403 177.796 114.745L174.3 110.488C172.929 108.703 171.661 106.781 170.602 104.793C169.565 102.845 168.598 100.817 167.91 98.7176C167.677 98.0092 167.371 97.2187 167.593 96.4815C167.858 96.2797 168.053 96.1688 168.383 96.1342C168.909 96.0787 169.437 96.2588 169.767 96.6855C170.169 97.2072 170.37 98.0912 170.607 98.7118C171.24 100.364 172.214 102.963 173.57 104.131C173.806 104.089 173.989 104.098 174.182 103.948C176.506 102.156 175.805 96.9925 176.284 94.398C176.394 93.8027 176.506 93.722 177.009 93.4Z" fill="#141414"/>
<path d="M202.371 224.976C202.925 225.002 203.578 225.392 204.11 225.599L207.213 226.664C209.984 227.469 212.881 228.055 215.744 228.44C230.445 230.42 245.111 230.467 259.916 230.02C266.566 229.819 273.339 229.299 279.933 228.39C281.258 228.207 286.611 226.874 287.572 227.267C287.832 227.373 287.867 227.684 287.966 227.926C287.917 228.993 287.229 230.169 286.779 231.132L287.456 231.895C287.794 232.262 288.131 232.549 288.255 233.055C288.374 233.542 288.334 234.05 288.052 234.471C287.639 235.088 287.552 235.3 287.564 236.037L287.788 236.216C290.893 234.741 294.313 234.091 297.739 234.407C302.692 234.864 307.604 237.413 310.792 241.232C315.226 246.547 316.232 253.523 315.613 260.233C314.877 268.218 311.457 275.336 305.257 280.466C297.742 286.685 288.453 287.806 279.075 286.941C277.02 290.85 274.834 294.465 272.182 298L269.41 301.386C273.199 301.527 276.837 301.769 280.371 303.315C282.039 304.045 284.247 305.471 284.838 307.294C285.088 308.064 284.827 309.066 284.413 309.726C282.401 312.937 276.816 314.37 273.374 315.144C268.286 316.287 263.023 316.802 257.826 317.11C248.836 317.642 239.912 317.344 230.966 316.33C223.754 315.513 215.301 314.334 209.096 310.36C208.028 309.675 206.409 308.513 206.2 307.18C206.033 306.115 206.211 305.184 206.886 304.34C209.453 301.134 214.309 300.518 218.12 300.027C215.691 298.162 213.53 294.945 211.896 292.359C208.971 287.732 206.751 282.34 205.203 277.103L203.45 270.253C202.235 265.868 200.782 261.555 199.799 257.105C198.676 252.017 198.333 246.758 198.372 241.555C198.398 238.088 198.541 234.569 199.327 231.179C199.771 229.261 200.619 226.065 202.371 224.976Z" fill="#141414"/>
<path d="M219.525 301.825C220.201 301.801 220.823 302.418 221.336 302.802L224.745 305.257C228.773 307.971 233.533 310.292 238.356 311.044C246.148 312.259 253.958 311.433 261.021 307.784C263.431 306.538 265.616 304.988 267.798 303.389C271.912 303.785 276.362 304.143 280.048 306.197C280.741 306.583 281.276 307.03 281.501 307.813C280.771 309.241 277.144 310.19 275.618 310.752C268.163 313.112 260.527 313.785 252.759 314.132C244.403 314.504 236.184 314.022 227.924 312.679C222.875 311.859 217.866 310.808 213.209 308.623C211.516 307.829 209.995 307.082 208.606 305.81C211.477 303.387 215.942 302.64 219.525 301.825Z" fill="white"/>
<path d="M291.281 240.24C292.944 240.054 294.725 240.109 296.344 240.548C301.063 241.827 305.493 245.031 307.889 249.344C310.489 254.023 310.553 259.544 309.106 264.6C307.027 271.865 302.21 276.813 295.743 280.389C290.659 282.969 285.693 283.688 280.052 283.712C280.898 281.982 281.417 280.068 281.952 278.224L284.518 267.423C285.662 261.807 286.811 256.224 287.383 250.513C287.693 247.424 287.75 244.259 287.723 241.158C288.501 240.559 290.315 240.406 291.281 240.24Z" fill="white"/>
<path d="M107.832 17.3709C110.085 17.172 112.466 17.3078 114.72 17.4518C119.289 17.7437 123.977 18.36 128.314 19.8931C129.895 20.452 131.45 21.1354 132.979 21.8253C133.295 21.9678 134.242 22.5452 134.549 22.5599C135.136 22.588 136.198 22.0929 136.863 21.998C139.199 21.6647 141.635 21.4811 143.994 21.5033C152.24 21.5808 160.592 22.8393 168.674 24.4093C174.811 25.6016 181.044 26.9668 186.86 29.3194C194.227 32.2997 201.032 38.1666 204.137 45.6003C206.728 51.805 206.987 58.8805 204.379 65.1176C202.77 68.9683 199.682 72.154 195.813 73.7189C191.827 75.3313 187.624 75.629 183.374 75.6689C179.995 75.7004 176.499 75.629 173.149 75.1575C167.186 74.3173 161.31 72.4823 155.725 70.2586C151.342 68.5136 147.108 66.5636 143.053 64.1391L131.708 56.7708C128.618 54.7069 125.5 52.5658 122.062 51.1219C123.46 53.0985 124.884 55.0986 125.58 57.4491C127.269 63.1455 124.321 69.9632 122.541 75.3203C121.335 78.9474 120.147 82.7022 119.865 86.5338L119.845 86.8297C119.664 89.2392 120.594 92.09 121.006 94.4814C121.351 96.4868 121.435 98.4744 121.353 100.505C121.229 101.238 121.086 102.014 120.758 102.686C119.331 105.604 113.339 105.889 110.574 105.788C109.645 105.754 108.266 105.285 107.435 105.543C107.423 106.131 107.419 106.573 107.163 107.109C106.809 107.236 106.634 107.297 106.246 107.245C104.945 107.07 103.148 102.787 102.363 101.607C100.312 98.5254 96.8938 95.4302 93.1569 94.7089C91.2511 94.3408 89.1137 94.4898 87.4907 95.6537C85.3794 97.1681 84.2771 100.007 83.8565 102.494L83.8069 102.798C83.3545 105.401 83.7281 108.113 84.7379 110.543C87.3512 116.833 93.0338 119.192 99.4593 119.546C100.734 119.617 103.001 119.465 104.117 120.014C104.552 120.23 104.803 120.39 104.944 120.847C103.152 122.391 99.4336 122.054 97.1386 122.112C97.7261 123.341 98.0466 124.371 97.5508 125.697C96.8677 127.523 94.6546 129.375 92.9307 130.162C90.749 131.157 88.327 131.252 86.0798 130.364C84.4847 129.734 83.1057 128.816 81.9728 127.524C79.579 124.795 78.4054 121.194 76.4376 118.172C74.9355 115.866 73.0163 113.794 71.3039 111.641C68.035 107.53 65.4137 103.284 63.329 98.4585C59.6417 89.9245 57.5955 81.4709 57.6026 72.1483C57.6065 67.4033 58.1674 62.6096 59.9347 58.1796C61.513 54.2229 64.0223 51.019 66.9534 47.9845C68.3015 46.589 69.6518 45.1718 71.4651 44.4084C71.8595 44.2421 72.2952 42.015 72.4413 41.4764C73.738 36.6876 75.8984 32.7125 79.212 29.0075C81.5792 26.3608 84.3913 23.9918 87.4982 22.2633C93.6412 18.8454 100.908 17.779 107.832 17.3709Z" fill="#141414"/>
<path d="M184.505 31.7219C189.893 33.2414 195.008 37.395 198.398 41.7651C201.954 46.3477 204.054 52.7507 203.269 58.5602L203.223 58.8845C203.028 60.3669 202.648 61.8395 202.041 63.2089C200.155 67.4583 196.497 70.4777 192.203 72.095C191.283 72.4175 190.378 72.7595 189.419 72.9489C191.833 71.4691 194.316 70.3172 196.287 68.2111C199.289 65.0022 200.681 59.8639 200.473 55.5563C200.088 47.5476 196.36 41.1387 190.261 36.072C188.395 34.5224 186.308 33.3608 184.505 31.7219Z" fill="white"/>
</g>
<defs>
<clipPath id="clip0_146_931">
<rect width="340" height="340" fill="white"/>
</clipPath>
</defs>
</svg>
