<svg width="150" height="150" viewBox="0 0 150 150" fill="none" xmlns="http://www.w3.org/2000/svg">
<g clip-path="url(#clip0_53_1860)">
<path d="M0 0H150V150H0V0Z" fill="white"/>
<path d="M75.7684 9.04543C76.0077 9.02436 76.1477 9.02956 76.3551 9.16743C77.0688 9.64206 77.5311 10.8124 77.6875 11.6215C77.7762 12.0809 77.8782 12.6039 77.6 13.0141C77.4618 13.1005 77.3912 13.1122 77.234 13.1395C77.1782 13.0932 77.1118 13.0573 77.0664 13.0005C76.8614 12.7425 76.7627 12.0688 76.6407 11.7418C76.3362 10.926 75.6789 10.0484 75.5698 9.19192L75.7684 9.04543Z" fill="#141414"/>
<path d="M97.2249 18.4806L97.3411 18.467C97.5534 18.4745 97.6739 18.5969 97.7905 18.75L97.7516 19.0064C97.1948 19.6672 95.8034 19.8735 95.0042 20.1246L93.4805 20.6756L93.4108 20.6703C93.1173 20.6328 93.0469 20.551 92.8803 20.3246C92.8817 20.1272 92.8544 20.0586 92.9745 19.9032C93.7778 18.8625 96.029 18.6388 97.2249 18.4806Z" fill="#141414"/>
<path d="M90.8251 11.6821H91.0549C91.2397 11.8002 91.246 11.8071 91.3249 12.0117C91.2989 12.1364 91.2764 12.2212 91.1977 12.3247C90.8917 12.7276 90.5214 13.0823 90.1977 13.4711C89.6313 14.1518 89.0206 15.236 88.0739 15.3831C87.7977 15.3512 87.7108 15.256 87.545 15.0513C87.5657 14.83 87.6452 14.6814 87.7633 14.4932C88.0407 14.0514 88.3985 13.6478 88.7395 13.2534C89.3262 12.575 89.9096 11.881 90.8251 11.6821Z" fill="#141414"/>
<path d="M67.3846 19.5922L67.441 19.5768C67.7951 19.5049 68.1655 19.5731 68.518 19.627C69.4557 19.7703 70.8717 20.0568 71.6541 20.618C71.8873 20.7852 71.9977 20.9268 72.0373 21.2035C71.8356 21.4096 71.803 21.4274 71.5211 21.4879L69.5074 21.1402C68.766 21.0238 67.3346 21.0441 66.7965 20.4711L66.8106 20.1416C66.9807 19.8908 67.1248 19.749 67.3846 19.5922Z" fill="#141414"/>
<path d="M65.2852 12.7075C65.5524 12.6409 65.8235 12.7171 66.0711 12.8215C66.6395 13.0611 67.1893 13.3815 67.7319 13.6747C68.7979 14.2509 69.808 14.7183 70.2868 15.8971C70.2586 16.1487 70.2403 16.1449 70.0563 16.3235C69.9002 16.3445 69.7739 16.3594 69.6264 16.2964C69.1703 16.1016 68.6922 15.7287 68.26 15.4696C67.2914 14.8892 66.0358 14.3193 65.2196 13.5434C65.1098 13.439 65.0608 13.3313 65.0024 13.1942C65.0526 12.9019 65.0787 12.8991 65.2852 12.7075Z" fill="#141414"/>
<path d="M97.995 133.411C98.1444 133.381 98.2178 133.402 98.3643 133.433C98.4641 133.526 98.5243 133.549 98.5565 133.686C98.6606 134.13 98.5172 134.83 98.4446 135.278C98.1965 136.811 97.8379 138.293 97.2797 139.746C97.0481 140.349 96.8247 140.926 96.4645 141.467C96.3336 141.568 96.2891 141.565 96.1305 141.585C96.0538 141.538 95.9803 141.526 95.9643 141.429C95.934 141.247 96.0196 141.03 96.068 140.852L96.4959 139.371L97.142 137.054L97.6112 134.801C97.6946 134.357 97.7391 133.786 97.995 133.411Z" fill="#141414"/>
<path d="M82.6077 8.31298C82.7782 8.28333 82.9223 8.26394 83.0936 8.31688C83.269 8.37103 83.4168 8.48718 83.4983 8.65153C83.7342 9.12685 82.8094 13.6094 82.5805 14.2358L82.4684 14.3379C82.219 14.3532 82.1541 14.3641 81.9215 14.253C81.5815 13.7057 81.7879 12.5318 81.8278 11.9017C81.8557 11.461 81.8491 10.9917 81.9266 10.5567C81.9747 10.2881 82.0936 10.0357 82.1411 9.76757C82.1887 9.4994 82.1545 9.2231 82.2014 8.95337C82.2553 8.64271 82.3512 8.49509 82.6077 8.31298Z" fill="#141414"/>
<path d="M86.1583 87.5992C86.4436 87.5936 86.6522 87.5692 86.8823 87.7442L86.87 87.9274C86.7153 88.2264 86.5094 88.4225 86.2692 88.6541C85.8147 89.0928 85.3415 89.5125 84.9204 89.9844L82.3829 92.9629C82.269 93.0846 82.1381 93.1807 81.9946 93.2643C81.7336 93.3227 81.7301 93.3453 81.4821 93.2102C81.4166 93.1074 81.293 92.9819 81.3217 92.8573C81.3842 92.5852 81.6997 92.2633 81.8682 92.0393C82.8852 90.6881 84.119 89.2653 85.3793 88.135C85.6198 87.9194 85.8749 87.7524 86.1583 87.5992Z" fill="#141414"/>
<path d="M69.6334 6.7749L69.733 6.75063C69.9655 6.7159 70.1748 6.73309 70.3492 6.9035C70.5912 7.14018 70.8041 7.52152 70.9543 7.82176C71.7612 9.43432 72.2932 11.2609 73.1875 12.8149C73.353 13.1023 73.7018 13.4912 73.7184 13.8228L73.4985 13.9889C73.3465 14.0244 73.2491 14.0096 73.0957 13.9926C72.769 13.7699 72.5407 13.481 72.3246 13.1545C71.4342 11.8084 70.7616 10.197 70.0719 8.73561C69.8854 8.34029 69.5129 7.75328 69.4448 7.32422C69.4043 7.07045 69.4852 6.96631 69.6334 6.7749Z" fill="#141414"/>
<path d="M13.3323 116.711L13.413 116.708C13.3564 116.815 13.3904 116.768 13.2941 116.866C12.6601 117.512 12.3599 118.231 11.9466 119.017C10.8042 121.188 9.93318 123.23 9.58379 125.677C9.51619 126.15 9.47084 126.634 9.45172 127.112C9.43311 127.577 9.5282 128.024 9.19189 128.4C8.96141 128.501 8.85027 128.494 8.60596 128.443L8.51303 128.318C8.37059 127.169 8.51299 125.985 8.71443 124.85C8.96809 123.419 9.41897 122.025 9.99787 120.694C10.2969 120.007 10.621 119.279 11.0918 118.689C11.7033 117.923 12.533 117.271 13.3323 116.711Z" fill="#141414"/>
<path d="M104.294 82.068L104.482 82.0262C104.664 82.0848 104.719 82.1555 104.834 82.3044C104.901 82.5276 104.879 82.6671 104.782 82.8735C104.141 84.2485 103.198 85.5438 102.444 86.8647L100.417 90.4679C100.089 91.0417 99.7719 91.7003 99.3606 92.2141C99.1899 92.4272 98.9778 92.5202 98.7282 92.6149L98.6668 92.628C98.5047 92.6489 98.3834 92.5989 98.2594 92.4971C98.1495 92.4071 98.175 92.3794 98.1581 92.2485C98.892 91.3112 99.409 90.2569 99.9971 89.2282L102.896 84.2235C103.319 83.5202 103.736 82.6696 104.294 82.068Z" fill="#141414"/>
<path d="M85.4116 44.0479C86.3729 43.9994 87.418 44.0659 88.3323 44.3899C88.6065 44.4869 88.8596 44.5924 88.9893 44.861C88.9325 44.9825 88.8618 45.06 88.7581 45.143C88.1307 45.6436 87.054 45.3662 86.3081 45.2938C84.9506 45.1623 83.8307 45.7571 82.8147 46.5936C82.5544 46.8274 82.312 47.0858 82.1167 47.377C81.9112 47.6834 81.7413 48.0559 81.4454 48.2825C81.2788 48.2688 81.2493 48.2877 81.1073 48.1809C80.9135 48.0352 80.8235 47.8418 80.794 47.6039C80.7087 46.9186 81.0428 46.2506 81.4651 45.7325C82.4096 44.5735 83.9913 44.1901 85.4116 44.0479Z" fill="#141414"/>
<path d="M90.9866 61.9996C91.1143 61.9777 91.2436 61.9502 91.3737 61.9662C91.5758 61.9908 91.8106 62.1072 91.909 62.2947C92.0432 62.5508 92.0034 62.9512 91.942 63.2225C91.5862 64.7963 90.3664 66.9314 88.9612 67.775C88.6649 67.9529 88.2442 68.1521 87.893 68.024C87.6973 67.9523 87.5276 67.7861 87.4397 67.6025C87.66 67.2352 88.4538 66.9584 88.8233 66.6559C89.745 65.9008 90.335 64.935 90.8645 63.8842L90.9885 63.4277L90.9301 63.3324L90.3832 64.1242C89.3291 65.532 87.8913 66.091 86.1936 66.3047C85.9526 66.3352 85.7606 66.316 85.5721 66.1539C85.3872 65.9949 85.3526 65.8147 85.3289 65.5883C85.3913 65.4393 85.4432 65.3246 85.6274 65.2906C85.8205 65.2551 86.1432 65.3305 86.3526 65.3313C86.9559 65.3336 87.7106 65.0629 88.2473 64.7914C88.9018 64.4605 89.4786 63.9711 89.9174 63.3812C90.2323 62.958 90.526 62.2543 90.9866 61.9996Z" fill="#141414"/>
<path d="M81.5158 50.7934C81.6867 50.7438 81.7637 50.6969 81.9215 50.8174C82.1311 50.9776 82.3764 51.5207 82.5235 51.7532C83.1674 52.7723 84.1629 53.8504 85.2985 54.3084C85.7928 54.137 86.2414 53.7307 86.6567 53.4178C87.0979 53.0854 87.5707 52.7907 88.0739 52.561C88.2311 52.4891 89.0996 52.2405 89.1512 52.1694C89.3053 51.9567 89.2741 51.56 89.444 51.3063C89.5762 51.2721 89.6549 51.2661 89.7928 51.2909C89.9766 51.3241 90.1364 51.4385 90.2285 51.5998C90.4996 52.0739 90.2805 52.5959 90.1586 53.0848C89.9504 53.8881 89.6258 54.8432 89.0387 55.4557C88.6797 55.8301 88.2059 55.9235 87.7075 55.9293C85.9914 55.9496 84.2252 55.019 83.0199 53.8459C82.3846 53.2276 81.8934 52.6948 81.5002 51.8948C81.3969 51.6846 81.2508 51.428 81.2615 51.187C81.2705 50.9838 81.3817 50.9258 81.5158 50.7934Z" fill="#141414"/>
<path d="M89.0852 53.0641L89.1805 53.1371C89.0088 53.7123 88.8041 54.3752 88.3086 54.7551C87.7967 55.1477 87.1045 54.994 86.5166 54.895L86.2789 54.8367L86.2196 54.7213C87.1108 54.0453 88.0258 53.4354 89.0852 53.0641Z" fill="white"/>
<path d="M78.4893 52.3207C78.77 52.2975 79.0473 52.3069 79.3254 52.3526C79.7643 52.4244 80.1051 52.5942 80.358 52.969C80.4938 53.1698 80.5379 53.3694 80.4844 53.5991C79.991 53.6428 79.5719 52.9979 79.035 53.0188L78.9551 53.0254C78.5248 53.0578 78.0805 53.2772 77.6821 53.4352C76.5813 53.8715 75.6108 54.3233 74.6401 55.0106L74.7623 55.5387C75.0828 56.7955 75.9364 58.7674 77.1063 59.4229C77.6539 59.7297 78.4512 59.9293 79.0649 59.7664C79.4713 59.3809 79.5895 58.9018 79.7625 58.385C79.083 58.3741 78.1032 58.4739 77.5875 57.9711C77.5533 57.7635 77.4977 57.5826 77.6 57.3864C77.845 57.3127 78.1069 57.434 78.3561 57.4893C78.8639 57.6018 79.3686 57.7028 79.8842 57.7713L80.6899 54.5682C80.8092 54.1248 80.9127 53.5729 81.1512 53.1789C81.2948 52.942 81.5203 52.7352 81.7155 52.5403L81.7416 52.9907C81.7852 53.8078 81.5301 54.592 81.3518 55.3826C80.9164 57.3123 80.4616 59.1834 79.743 61.0328L78.8961 63.025C79.0129 63.1516 79.1235 63.2221 79.2858 63.2758C79.7301 63.4233 80.3301 63.4284 80.7973 63.4123C82.1172 63.367 83.495 63.0547 84.5848 62.2705C84.9401 62.0149 85.17 61.5735 85.5469 61.3707C85.833 61.4082 85.8326 61.4348 86.0231 61.6325C86.0647 61.7869 86.0848 61.8379 86.0219 61.994C85.6994 62.7961 84.4139 63.3553 83.6414 63.6416C82.2332 64.1637 79.9075 64.5043 78.5379 63.8328C78.3504 63.7409 78.1799 63.5955 78.1172 63.3901C77.8823 62.6205 78.7701 61.3174 79.11 60.6561C78.4397 60.6922 77.733 60.6741 77.1108 60.4016C75.0975 59.5202 74.2098 56.5067 73.5305 54.602C73.4643 54.4168 73.4573 54.3332 73.5485 54.1625C73.6864 54.0633 74.0889 53.7772 74.2676 53.8221C74.2852 53.8264 74.4744 53.9387 74.4873 53.9405C74.5655 53.9514 75.8305 53.1635 76.0026 53.0746C76.8117 52.6567 77.5866 52.4391 78.4893 52.3207Z" fill="#141414"/>
<path d="M104.919 109.534L104.97 109.541C105.528 109.766 105.644 111.031 105.76 111.548C105.875 112.053 106.013 112.566 106.203 113.049C106.854 114.709 108.474 116.086 110.305 116.166C110.933 116.193 112.732 115.9 113.193 116.139C113.327 116.209 113.303 116.217 113.35 116.345C113.251 116.455 113.163 116.542 113.024 116.599C112.563 116.79 111.961 116.805 111.47 116.84C110.947 116.879 110.383 116.966 109.863 116.964C109.393 116.963 108.904 116.83 108.435 116.78C107.604 116.691 106.762 116.679 105.935 116.545C105.14 116.416 104.38 116.1 103.595 115.917C100.816 115.271 98.0044 114.772 95.3557 113.671C94.0389 113.058 92.7768 112.302 91.4346 111.754C90.6374 111.429 89.3559 111.255 88.7329 110.685C88.6469 110.462 88.6135 110.451 88.6963 110.231C89.8294 109.498 93.9221 111.847 95.1495 112.399C95.9708 112.768 96.8106 113.075 97.6796 113.312C100.328 114.032 103.01 114.37 105.748 114.431C105.231 113.055 104.739 111.643 104.717 110.156C104.713 109.85 104.706 109.757 104.919 109.534Z" fill="#141414"/>
<path d="M17.5546 139.197C17.9442 139.142 18.3657 139.239 18.75 139.306L20.8283 139.71L24.7254 140.435L32.2815 141.55L42.3246 142.769L53.3781 143.78L58.7035 144.037L62.1485 144.126C62.6666 144.158 63.4479 144.207 63.8092 144.617C63.6826 144.801 63.5342 144.795 63.3233 144.855C61.502 145.043 59.651 144.932 57.8246 144.872L45.2733 143.957L32.2766 142.442C27.8666 141.875 23.4746 141.279 19.1329 140.304C18.6052 140.185 17.4055 139.994 17.1093 139.526C17.2485 139.308 17.3238 139.3 17.5546 139.197Z" fill="#141414"/>
<path d="M11.0592 134.875C11.5114 134.74 12.1866 134.911 12.6456 134.987L15.7889 135.566L21.6524 136.578L30.5664 137.814L46.4143 139.667L53.2836 140.261L73.4073 141.907L80.4028 142.192L82.3872 142.241C82.7288 142.25 83.2303 142.215 83.5385 142.375C83.695 142.457 83.6917 142.518 83.7389 142.676C83.6213 142.925 83.5516 142.949 83.327 143.096C82.0436 143.207 80.7137 143.084 79.428 143.04L72.0821 142.725L51.1957 141.047L29.9196 138.733C27.7375 138.432 11.3451 136.171 10.6521 135.255C10.7762 135.064 10.8713 134.993 11.0592 134.875Z" fill="#141414"/>
<path d="M89.4758 89.0157C89.9149 88.9573 90.5711 88.9063 90.9848 89.0764C91.2629 89.1909 91.3959 89.3047 91.5063 89.5753L91.4057 89.795C91.118 90.0272 90.675 90.0803 90.3207 90.1684L90.9547 90.7065C91.4428 91.1657 91.7192 91.7241 91.7309 92.4048C91.751 93.5878 91.1762 94.7299 90.3485 95.5577C89.8864 96.0194 89.2897 96.3704 88.6151 96.3436C87.8622 96.3139 86.7709 95.7122 86.2633 95.1547C85.8805 94.7344 85.3243 94.5987 84.9344 94.1358C84.7348 93.8989 84.6819 93.6846 84.7047 93.3831C85.042 93.3774 85.5172 93.7046 85.8481 93.8524C87.0258 93.7106 87.2565 92.8815 87.8745 92.036C88.1948 91.5977 88.5561 91.1831 88.9077 90.7696C88.3014 90.4229 87.7694 90.3604 87.0909 90.3378C85.9901 90.8885 85.2338 92.413 84.5582 93.3796C83.3477 95.1112 82.21 96.8524 81.1907 98.7073C79.7051 101.411 77.8596 104.598 78.8098 107.776C78.9993 108.41 79.5623 109.828 80.1989 110.105C80.4815 110.227 81.3893 109.462 81.6883 109.315C82.9498 108.696 84.4172 108.851 85.7069 109.302C87.7776 110.027 88.9 111.562 89.833 113.473L90.3118 114.663C90.9106 116.412 90.8422 118.16 90.8948 119.971C90.9166 120.723 90.9211 121.332 90.7825 122.083C90.742 122.302 90.694 122.601 90.5731 122.791C90.4573 122.973 90.3223 123.007 90.1246 123.044C89.4719 122.529 89.7875 120.45 89.7803 119.695C89.7754 119.175 89.7217 118.651 89.6455 118.137C89.3946 116.441 88.6567 114.55 87.4799 113.278C86.5157 112.236 85.0946 111.4 83.8069 110.832C83.2168 110.571 82.6381 110.333 81.9827 110.31C81.5963 110.824 81.2153 111.569 81.1524 112.223C81.1244 112.513 81.2004 112.919 81.0709 113.179C81.0172 113.287 80.8981 113.305 80.7862 113.319C80.5118 113.352 80.4133 113.239 80.2368 113.066C79.9975 112.163 80.3446 111.309 80.6348 110.466C80.2225 110.457 79.678 110.456 79.3256 110.214C78.4035 109.581 77.8371 107.844 77.6735 106.783C77.2244 103.874 79.0373 100.774 80.4051 98.3305C81.7825 95.8706 83.3258 93.4764 85.001 91.2063C85.3598 90.7202 85.7496 90.2358 86.2539 89.8924C87.1258 89.2989 88.452 89.1676 89.4758 89.0157Z" fill="#141414"/>
<path d="M89.5282 91.0766C89.6754 91.0426 89.6264 91.0333 89.7571 91.0717C90.3114 91.2352 90.6932 91.8942 90.9288 92.3833C90.6623 93.4063 90.2288 94.6251 89.3301 95.2626C88.9481 95.5337 88.5891 95.5528 88.1438 95.4694L86.4891 94.6087C88.0471 93.8436 88.6373 92.4776 89.5282 91.0766Z" fill="white"/>
<path d="M100.646 50.7944L100.547 50.8287C100.129 51.8733 99.0635 55.1702 98.0123 55.6864C97.8026 55.7893 97.4811 55.7764 97.2621 55.6946C97.0895 55.6301 97.011 55.5153 96.9127 55.3711L96.9241 55.1746C97.2512 54.92 97.6088 54.7016 97.7737 54.309C97.7506 53.6317 97.485 52.8813 97.2858 52.2303C96.6073 50.0143 95.7055 47.7297 94.7137 45.6346C94.5477 45.2838 94.3075 44.5975 94.0245 44.3532C93.8951 44.2416 93.5719 44.178 93.4082 44.1227L91.6678 43.5219C88.2237 42.2196 84.9106 39.8229 82.9289 36.6985L80.8328 40.5485C79.1883 43.4785 77.3951 46.1567 75.1676 48.6762C76.2715 48.4184 77.3553 48.4035 78.3577 49.0102C78.6885 49.2104 79.0557 49.5006 79.1465 49.894C79.1846 50.0598 79.1479 50.1211 79.1057 50.2809C78.8793 50.5016 78.8242 50.4836 78.5082 50.4813C77.701 50.4752 76.9522 50.3227 76.1442 50.5116C74.9547 50.7897 74.0102 51.6496 72.9213 52.1508C70.4977 53.2661 67.2131 50.9994 65.6063 49.3094C63.9065 47.5215 62.8707 45.1344 62.9393 42.6508C63.0201 39.7207 64.9947 36.5129 67.0797 34.5477C67.966 33.7121 68.9823 33.0637 70.0145 32.4278C73.0674 30.5465 76.4733 29.1166 80.126 29.2715C80.7418 29.2977 81.3164 29.4358 81.885 29.6696C82.2287 29.1149 82.5114 28.5135 82.8924 27.9846C84.3483 25.9633 86.4828 25.0125 88.8428 24.4674C90.1313 24.1699 91.5215 24.0953 92.8391 24.0871C96.8731 24.0623 100.439 25.0416 103.851 27.2123C105.592 28.3197 107.194 29.5942 108.594 31.1131C112.495 35.3446 114.78 40.9959 117.26 46.1157L120.209 51.633C122.377 55.5153 125.093 59.0418 127.471 62.7903C132.136 70.143 135.252 78.2672 137.105 86.7528C137.605 89.0418 137.929 91.3461 138.248 93.6653C138.845 98.0053 139.391 102.571 138.823 106.94C138.636 108.375 138.344 109.866 137.554 111.106C136.732 112.396 135.611 113.094 134.132 113.407C131.599 113.943 128.34 113.516 126.155 112.097L125.693 111.754L125.636 111.75C125.391 112.708 125.382 113.698 125.257 114.675L124.899 116.848L125.574 114.967L125.793 114.472C125.954 115.479 125.91 116.53 125.914 117.548C125.931 121.961 125.147 126.03 122.5 129.672C121.29 131.336 119.696 132.895 117.993 134.043C116.96 134.74 115.896 135.227 114.757 135.727C112.188 136.854 109.564 137.66 106.784 138.093C105.45 138.3 104.119 138.286 102.773 138.3C101.706 138.312 99.9073 138.446 98.9756 137.839C98.8465 137.755 98.7608 137.634 98.7381 137.482C98.503 135.911 98.9276 134.216 98.8557 132.625C98.5631 132.524 97.7002 132.347 97.5649 132.129C97.6868 132.026 97.8008 131.949 97.9405 131.873L97.8883 131.777L93.0647 131.074C93.3577 131.306 93.7446 131.347 94.0998 131.435C94.6674 131.577 95.2641 131.573 95.8217 131.741C94.7661 131.881 93.3903 131.774 92.3575 131.502C91.709 131.332 91.0977 131.062 90.4405 130.91L85.9403 129.958L59.3781 125.365L41.8945 122.607L26.325 120.41L26.3715 120.489C26.9484 121.496 27.0086 122.838 26.8162 123.963L26.7951 124.09C26.6279 125.049 26.1809 125.936 25.3469 126.479C24.3412 127.134 22.7809 127.005 21.6373 126.955C19.9445 126.88 18.2401 126.733 16.5894 126.333C15.8194 126.146 14.2158 125.763 13.7751 125.061C13.4594 124.558 13.8548 123.326 14.0037 122.79C14.3405 121.58 14.8766 120.245 16.0242 119.593C17.654 118.666 22.127 119.146 24.0236 119.307L36.0844 120.869L43.5459 121.936L56.575 124.048L66.5225 125.579L81.5326 127.733L90.9287 129.555L95.1002 130.471C96.1801 130.705 97.1688 130.962 98.2778 130.994C97.4323 130.217 96.3803 129.819 95.3448 129.353C94.0668 128.778 92.8053 128.201 91.4395 127.86C88.4481 127.115 85.3272 126.772 82.2875 126.269L61.0108 122.898L33.4717 118.269L20.0443 116.632L16.9767 116.474C16.5381 116.46 16.0553 116.387 15.621 116.418C15.0544 116.46 14.5645 116.807 14.0044 116.87L13.9423 116.752C14.1993 116.219 14.8257 115.745 15.2716 115.351C18.054 112.893 21.2545 111.45 24.7295 110.231C28.1824 109.02 31.8391 108.171 35.4611 107.643L39.1598 107.227L40.7387 107.091C40.9779 107.071 41.2606 107.079 41.4846 106.988C41.202 106.33 40.9193 105.534 41.2121 104.827C41.5221 104.08 42.094 103.54 42.6471 102.974C43.0705 102.541 43.4631 102.062 43.9151 101.659C44.2779 101.335 44.7209 101.101 45.1221 100.829C45.8557 100.332 46.5375 99.8128 47.3694 99.486C47.9822 99.2452 48.7182 98.9924 49.3764 98.9352C49.942 98.8862 50.526 98.9903 51.0863 99.059C52.1006 99.1837 53.3922 99.3323 54.3322 99.7524C54.7246 99.9276 55.0375 100.156 55.3594 100.437L55.4891 100.417C57.8854 100.055 60.6977 100.615 62.6446 102.075C63.3043 102.569 63.9475 103.165 64.6614 103.576C65.4531 104.032 66.2744 104.07 67.1631 104.152C68.0065 104.231 68.8412 104.32 69.6758 104.468C73.8162 105.203 76.6451 108.87 78.2242 112.537C78.7033 113.649 79.0248 114.818 79.458 115.948C79.8057 116.854 80.3889 117.673 80.691 118.582C80.2121 118.736 79.7293 118.813 79.2481 118.946C78.8293 119.063 78.436 119.249 78.0084 119.34C76.9407 119.565 75.6762 119.034 74.7399 118.56C71.7694 117.054 69.8379 114.489 67.4498 112.267C66.0723 113.375 64.5237 113.611 62.8176 113.766C64.0815 114.231 64.5973 114.659 65.1574 115.882C65.9942 117.707 66.5711 119.707 67.2649 121.592C67.4137 121.996 67.5561 122.653 67.8074 122.987L78.6119 124.763L82.3975 125.399C83.6082 125.613 84.8246 125.931 86.058 125.928L83.8223 124.393C82.2336 123.202 80.8455 121.746 79.9924 119.934L80.0006 119.692L80.127 119.614C80.5041 119.711 80.8903 120.168 81.1807 120.433L82.9375 121.951C83.46 122.363 83.9998 122.738 84.5739 123.074C86.4252 124.16 88.5809 124.22 90.4823 125.112C91.8729 125.764 93.1487 126.707 94.4817 127.473L98.2725 129.416C99.8758 130.196 101.484 130.984 103.196 131.504C105.522 132.211 108.441 132.433 110.852 132.004C114.891 131.287 118.065 128.954 120.41 125.649C123.029 121.959 124.145 117.365 124.63 112.928C124.725 112.058 124.856 111.178 124.858 110.303C124.862 108.144 124.577 105.882 124.207 103.754C123.697 100.826 123.033 97.8647 121.985 95.0788C120.892 92.1749 119.307 89.3913 117.526 86.8594C116.987 86.0932 116.35 84.9297 115.576 84.4116C115.165 84.1364 114.6 83.9651 114.14 83.784C113.315 83.4584 112.491 83.1401 111.695 82.7452C109.621 81.7168 107.855 80.41 106.29 78.7026L103.817 75.8309C103.112 77.0561 102.462 78.3414 101.664 79.5088C99.8254 82.2 96.6914 85.3278 93.4657 86.1751C92.2455 86.4956 90.7368 86.595 89.6256 85.8913C89.2416 85.6481 89.0346 85.3209 88.9487 84.8815C88.5959 83.0747 90.0354 80.9079 91.0313 79.5069L92.0045 78.2491C92.1217 78.11 92.351 77.9196 92.3614 77.7395L92.5426 76.2243C92.009 76.9424 91.4825 77.6797 90.8911 78.3516C89.1946 80.2786 87.242 81.9883 85.4239 83.795C84.1655 85.0458 83.0211 86.4114 81.684 87.5846L79.675 89.2698C79.0362 89.7586 78.3391 90.2167 77.7481 90.7608L75.0848 93.4272L71.1985 96.9241C70.1453 97.8508 69 99.0503 67.6391 99.4792L67.1822 99.6256L76.9534 90.2883C76.2953 90.384 75.6602 90.4795 74.9928 90.4565C73.4547 90.4036 71.8041 89.7794 70.5795 88.8665C68.6987 87.4643 67.6754 85.242 67.3694 82.9604C67.0121 80.2989 67.7924 77.6829 68.6055 75.1811L70.2336 70.2715C70.8604 68.351 71.41 66.3621 71.8387 64.3871C72.168 62.8707 72.4227 61.3871 72.5301 59.8366L72.5762 58.4248C72.5764 58.1471 72.533 57.8139 72.6403 57.5573C72.8102 57.4739 72.9037 57.4532 73.0866 57.5317C73.436 57.6823 73.7971 58.0248 74.0895 58.2674C75.1742 59.1668 76.2203 60.0705 76.6504 61.4602C76.8951 62.251 77.0733 63.068 77.4414 63.8145C78.0498 65.0479 78.9694 66.0555 79.9608 66.9942C81.1985 68.1659 82.5272 69.2059 84.0334 70.0118C87.1356 71.6711 90.8157 72.7299 94.293 71.6633C97.0405 70.8205 99.5774 68.5934 100.91 66.0598C101.818 64.3315 102.228 62.3678 102.445 60.4414L102.604 58.4489C102.629 57.8014 102.443 56.6549 102.748 56.1145C102.501 56.0696 102.425 55.9467 102.34 55.7266C102.2 55.3606 102.153 54.933 102.071 54.5494C101.777 53.1799 101.463 51.9532 100.646 50.7944Z" fill="#141414"/>
<path d="M44.5701 102.04C43.8184 103.31 42.8934 104.19 42.519 105.68L42.3201 106.311L42.1508 106.255C42.0393 106.095 41.9668 105.934 41.957 105.737C41.8895 104.381 43.7242 102.938 44.5701 102.04Z" fill="white"/>
<path d="M15.8841 124.543C17.2052 124.612 18.5088 124.859 19.8203 125.025C20.6617 125.131 21.5662 125.154 22.3879 125.343L22.3023 125.486C22.017 125.561 21.6441 125.551 21.3471 125.57C19.9488 125.662 18.4946 125.441 17.1387 125.109C16.6556 124.991 16.3062 124.799 15.8841 124.543Z" fill="white"/>
<path d="M60.9903 108.475L64.3907 109.541C63.5996 109.944 62.9524 110.149 62.0672 110.232C60.8262 110.236 59.7256 110.107 58.5196 109.8C59.3342 109.424 60.2121 109.096 60.9174 108.533L60.9903 108.475Z" fill="white"/>
<path d="M50.8973 106.824L51.0055 106.803C51.0381 106.822 51.0866 106.826 51.1034 106.86C51.117 106.888 50.7381 108.063 50.7035 108.199C50.4096 109.358 50.3985 110.489 50.7821 111.627L50.8053 111.694L50.7399 111.804C50.4274 111.735 50.2561 111.594 50.0104 111.395C49.6944 111.041 49.3563 110.686 49.0905 110.291C48.8846 109.986 48.8678 109.587 48.9506 109.233C49.1912 108.205 50.0051 107.338 50.8973 106.824Z" fill="white"/>
<path d="M49.3735 99.8574C50.0756 99.8225 50.7363 99.8934 51.4295 100.001C51.1529 100.129 50.702 100.116 50.3912 100.173C48.7356 100.474 47.6297 100.871 46.4449 102.106C45.4629 103.13 44.3061 104.827 44.0522 106.24C43.9811 106.636 44.0106 107.067 44.0168 107.468L44.1969 108.648L43.7436 108.164C43.334 107.641 43.2207 106.797 43.3266 106.161L43.3457 106.055C43.608 104.527 44.7715 102.871 45.7313 101.697C46.6688 100.55 47.9328 100.025 49.3735 99.8574Z" fill="white"/>
<path d="M29.2254 109.827L29.377 109.854L29.3893 109.947C28.8313 110.439 27.908 110.705 27.2234 110.997L24.3264 112.301L20.475 114.215C19.7186 114.548 18.9117 114.718 18.142 115.008C17.6928 115.177 17.3766 115.503 16.8823 115.569L16.6709 115.558L16.6626 115.496C19.3668 113.097 22.982 111.773 26.3633 110.645C27.29 110.336 28.2557 109.959 29.2254 109.827Z" fill="white"/>
<path d="M57.3112 107.473C58.2871 107.332 59.4258 107.887 60.2862 108.302C60.0137 108.459 59.6705 108.528 59.3795 108.658C58.8832 108.879 58.3262 109.293 57.811 109.418C57.5203 109.489 57.174 109.467 56.8744 109.491C56.2098 109.544 55.6303 109.746 55.0444 110.054C54.6262 110.307 54.0867 110.709 53.6225 110.849C53.3926 110.918 52.9295 110.929 52.726 110.815C52.7238 110.428 52.9477 110.021 53.1813 109.722C54.2201 108.393 55.6547 107.675 57.3112 107.473Z" fill="white"/>
<path d="M52.8057 100.292C53.1752 100.314 53.7332 100.329 54.0586 100.509C52.9602 100.755 51.9088 101.022 50.8719 101.473C48.7584 102.392 46.7063 103.989 45.8508 106.197C45.4151 107.322 45.4387 108.581 45.9469 109.68C46.1432 110.105 46.3787 110.602 46.8383 110.777C47.0483 110.713 47.0356 110.678 47.1492 110.486L47.2639 110.598L47.2469 110.962L47.0947 111.1C46.7986 111.088 46.5729 111.04 46.324 110.869C45.5705 110.351 44.9887 109.272 44.8539 108.386C44.594 106.675 45.2172 105.195 46.2154 103.839C46.8539 102.971 47.5899 102.189 48.5137 101.624C49.7184 100.886 51.4223 100.505 52.8057 100.292Z" fill="white"/>
<path d="M91.837 24.9315C92.2506 24.8828 92.7073 24.9141 93.1258 24.9116C91.05 25.6313 89.1877 26.5008 87.2776 27.5785C86.0422 28.2756 84.803 28.9643 83.9241 30.1119C83.0708 31.2264 82.2487 33.1532 82.3338 34.5703C82.3434 34.7287 82.3545 35.093 82.4182 35.2295C82.4987 35.4022 82.593 35.3768 82.6206 35.5957C82.2987 35.7875 82.1604 36.1784 81.994 36.4996L81.1211 38.1227L80.4989 39.1364C80.5422 38.7553 80.7288 38.3526 80.8559 37.9905L81.4944 35.9815C82.2145 33.2911 82.0989 30.5125 83.9403 28.2348C85.9012 25.8094 88.8981 25.2434 91.837 24.9315Z" fill="white"/>
<path d="M20.95 119.856C21.4768 119.799 22.1004 119.882 22.6316 119.924C23.6977 120.009 24.7439 120.113 25.7984 120.295C25.6869 120.477 25.4539 120.638 25.2994 120.792C25.0928 120.999 24.9209 121.244 24.7648 121.49C24.2131 122.361 23.952 123.372 23.484 124.285L21.2584 124.165L15.9079 123.618C16.2541 122.691 16.705 121.68 17.3763 120.941C18.2961 119.929 19.6818 119.938 20.95 119.856Z" fill="white"/>
<path d="M100.823 50.0922C100.774 49.7147 100.932 49.284 101.018 48.917C101.221 48.0612 101.381 47.0498 101.749 46.2524C101.822 46.0946 101.911 45.9426 102.085 45.8903C102.53 45.7569 103.209 45.9243 103.662 45.9969C104.547 46.1391 105.457 46.6225 105.983 47.3598C106.555 48.1619 106.671 49.7659 106.49 50.7155C106.251 51.9746 105.429 53.1209 104.679 54.127C104.204 54.7655 103.73 55.3971 103.162 55.9582L103 55.9817L102.748 56.1145C102.501 56.0696 102.425 55.9467 102.34 55.7266C102.2 55.3606 102.153 54.933 102.071 54.5495C101.777 53.1799 101.463 51.9532 100.646 50.7944L100.742 50.5733C100.821 50.4065 100.818 50.2743 100.823 50.0922Z" fill="white"/>
<path d="M100.823 50.0922C102.125 50.9893 102.709 52.6965 102.969 54.1993C103.061 54.7313 103.16 55.4594 103 55.9817L102.748 56.1145C102.501 56.0696 102.425 55.9467 102.34 55.7266C102.2 55.3606 102.153 54.933 102.071 54.5495C101.777 53.1799 101.463 51.9532 100.646 50.7944L100.742 50.5733C100.821 50.4065 100.818 50.2743 100.823 50.0922Z" fill="#141414"/>
<path d="M100.373 68.3715C100.505 68.4203 100.498 68.542 100.541 68.6715C101.148 70.5112 101.73 72.5688 102.692 74.2539L102.751 74.3561C102.487 74.7778 102.226 75.1416 101.868 75.4893C99.9993 77.3004 97.7811 77.6551 95.2834 77.6243C94.7645 77.5844 94.1239 77.5805 93.6403 77.3926C93.5088 77.3416 93.203 77.2127 93.1731 77.0508C93.1528 76.9407 93.5174 76.1629 93.5713 76.0149C93.8522 75.2428 94.0479 74.3721 94.0543 73.5491C94.0559 73.3416 94.0737 73.1016 93.987 72.9084L93.9332 72.7998C93.9827 72.651 93.9332 72.6885 94.0436 72.6504C95.0852 72.2928 96.1405 71.9246 97.0825 71.3428C98.3471 70.5619 99.3887 69.4715 100.373 68.3715Z" fill="white"/>
<path d="M55.5631 101.325C55.8182 101.234 56.4077 101.28 56.6971 101.27C58.9795 101.192 60.8161 101.723 62.5704 103.215C63.1069 103.671 63.6385 104.203 64.3067 104.461C65.1713 104.794 66.1608 104.851 67.0772 104.943C68.4954 105.086 69.9477 105.259 71.2604 105.852C74.5151 107.324 76.5879 110.644 77.7694 113.879C78.4026 115.612 78.7622 117.312 80.1583 118.62C76.9606 118.954 73.469 117.021 71.278 114.815C70.269 113.799 69.234 112.239 67.8784 111.728C67.7514 111.681 67.7629 111.658 67.6934 111.548C67.7883 111.437 67.854 111.36 67.8954 111.218C67.3061 111.124 66.5997 112.061 66.0791 112.347C65.4598 112.686 64.7739 112.875 64.0795 112.986C61.5957 113.381 59.0936 112.964 56.7346 112.148C56.0748 111.92 55.3582 111.682 54.7901 111.268C55.1452 110.964 55.5237 110.639 55.9836 110.512C56.8006 110.287 57.8133 110.492 58.6256 110.649C60.6291 111.037 62.5604 111.278 64.4711 110.391C64.759 110.229 65.1739 109.819 65.4608 109.737C65.5678 109.706 65.8954 109.785 66.0248 109.8C66.6385 109.876 68.2573 110.266 68.7379 109.985C68.6913 109.73 68.5973 109.569 68.3631 109.43C68.0301 109.232 67.2213 109.241 66.8293 109.187C65.9495 109.067 65.0633 108.95 64.2014 108.733C62.1295 108.209 60.2221 106.984 58.1307 106.62C57.3397 106.482 56.5702 106.564 55.8079 106.803C53.7692 107.442 52.6455 108.733 51.6875 110.559L51.5625 110.592C51.4428 110.47 51.409 110.315 51.3834 110.149C51.2336 109.185 51.5932 108.094 52.1555 107.322C53.7811 105.092 57.168 104.562 59.729 104.821C60.5745 104.907 61.687 105.21 62.5118 105.048C62.7227 105.006 62.8002 104.912 62.9075 104.736L62.835 104.627C62.2174 104.393 61.5506 104.252 60.9139 104.073C59.7383 103.744 58.6125 103.411 57.3846 103.345C54.5454 103.191 51.2868 103.96 49.1446 105.911C47.82 107.118 47.312 108.394 47.2241 110.157L47.1795 110.127C46.8018 109.644 46.5498 108.857 46.4955 108.252C46.3873 107.046 46.9225 106.071 47.6696 105.17C48.9825 103.587 50.9561 102.3 52.9414 101.744C53.7993 101.504 54.6788 101.406 55.5631 101.325Z" fill="white"/>
</g>
<defs>
<clipPath id="clip0_53_1860">
<rect width="150" height="150" fill="white"/>
</clipPath>
</defs>
</svg>
