<svg width="90" height="90" viewBox="0 0 90 90" fill="none" xmlns="http://www.w3.org/2000/svg">
<path d="M43.3522 59.601C45.6641 59.4359 46.1918 62.3502 43.8397 62.834C41.4578 63.0978 40.963 59.9835 43.3522 59.601Z" fill="#141414"/>
<path d="M53.6223 24.3237L53.721 24.3066C54.4911 25.0808 55.488 25.5327 56.4029 26.1105C58.0326 27.1395 59.6217 28.2969 60.9734 29.6768C62.9638 31.7088 62.4906 32.9076 60.4278 34.782C57.8628 37.1128 55.0118 38.9457 51.7456 40.1271C51.444 40.25 50.8978 40.5427 50.5756 40.4516L50.5375 40.3637C50.6732 40.1763 50.9022 40.0521 51.0905 39.9187C51.7437 39.4551 52.3123 38.7886 52.7655 38.1343C53.6096 36.9156 53.9573 36.7532 55.0754 35.7688C56.3966 34.6057 57.7804 33.3661 58.9379 32.0415L54.562 27.7947C53.6922 27.0204 52.8214 26.2304 51.8711 25.5559L53.6223 24.3237Z" fill="#141414"/>
<path d="M38.5153 24.2798L38.5348 24.3018C38.5234 24.9163 38.3052 24.7338 37.9145 25.1448L32.4598 30.649C32.0186 31.0932 31.5362 31.5299 31.1499 32.0229C32.1365 33.1624 33.3784 34.1575 34.4837 35.1842L39.6563 39.9303C39.9312 40.1426 40.2427 40.3543 40.4798 40.6071C40.8873 41.0414 40.9003 41.7605 40.1664 41.83C39.2129 41.9205 38.863 41.359 38.1978 40.8212C37.3753 40.2339 36.4416 39.7598 35.5818 39.2235C33.5857 37.9786 31.6714 36.581 29.9041 35.0274C27.462 32.8804 27.0083 31.6478 29.4931 29.3456L30.9605 28.0677C32.4412 26.8747 35.8891 24.2819 37.7007 24.5747C37.7847 24.5883 37.732 24.8883 37.8076 24.9829C38.1221 24.9063 38.4504 24.7071 38.5047 24.358L38.5153 24.2798Z" fill="#141414"/>
<path d="M48.5548 20.4388C49.2657 20.3793 49.6192 20.6188 50.0651 21.1885L49.2636 24.3896L43.6245 42.7735C43.2991 43.8238 43.0785 45.4062 41.8475 45.7472C40.9456 45.7845 40.2673 45.0154 40.4163 44.1446C40.7503 42.1919 41.515 40.2903 42.0806 38.3938L46.5367 24.3457C46.8733 23.3731 47.574 20.915 48.5548 20.4388Z" fill="#141414"/>
<path d="M57.6115 79.9173C58.1567 80.253 60.1119 80.7661 59.104 81.7206C58.3448 82.4397 56.8725 82.4253 55.8921 82.4946L51.6947 82.735L38.612 82.7424C38.1862 82.7333 37.7664 82.6635 37.3421 82.6477L33.2211 82.5269C32.0957 82.4649 29.3687 82.3786 28.5986 81.5197C27.7988 80.6278 29.4334 80.1038 29.9983 79.8201C33.5438 78.0399 35.874 73.0542 34.5816 69.2586C34.5085 69.0438 34.4758 68.8664 34.3282 68.6855L12.1038 68.2524C7.05908 67.8063 1.75141 65.4953 1.04251 59.9404C0.877813 58.65 1.08773 57.3081 1.10941 56.0152L1.10418 48.564L0.728122 41.9947L0.715149 34.52L1.10889 24.9946L0.994718 17.483C0.997614 16.7043 0.921898 15.8896 1.01197 15.1173C1.37183 12.0316 3.55604 9.4477 6.39117 8.2856C8.42963 7.45005 10.6686 7.14189 12.8458 6.90754L19.3811 6.58447C20.9871 6.58628 22.5473 6.6493 24.1387 6.82772L25.1475 6.98801C26.0028 7.10842 29.1497 7.74807 29.6963 8.43381C29.5264 8.43635 29.0616 8.12333 28.8944 8.03887C26.267 6.71116 23.3647 7.10605 20.5659 7.41321L17.688 7.69036L10.7447 8.86951C9.42698 9.13699 8.02971 9.47168 6.8155 10.0574C2.39049 12.192 2.53539 15.1466 2.59781 19.3262L2.76308 39.7804C3.06665 44.1236 4.01209 48.078 4.01907 52.5031L4.0132 56.3786C4.00548 58.0682 3.95741 59.5999 4.73863 61.1656C6.3404 64.3757 10.5124 65.1634 13.7532 65.3056C13.9507 65.3519 14.1608 65.341 14.3615 65.361L25.9717 65.9529L36.6687 66.255C36.9717 66.2721 37.2723 66.3313 37.5733 66.3441L40.6134 66.3677C41.0414 66.3828 41.4582 66.4682 41.8832 66.4892L44.7659 66.5115C45.1639 66.5222 45.5523 66.6053 45.9448 66.6178L56.7383 66.7412L61.0719 67.0121L64.2799 67.0344L72.688 67.4382L79.3436 67.5481C80.3127 67.5479 81.3003 67.5913 82.2665 67.537C84.8477 67.3923 87.3195 65.2981 87.8258 62.7608L87.8752 62.8213C87.4408 66.1325 83.9809 67.6611 81.009 67.7866L78.3545 67.816C76.8808 67.8835 75.4198 68.0944 73.9333 67.9455L73.8686 67.9334L69.5206 68.151L56.6461 68.1468L54.1067 68.1383C53.5929 71.3031 53.2182 75.1323 55.2145 77.8967C55.78 78.6794 56.6947 79.5629 57.6115 79.9173Z" fill="#141414"/>
<path d="M50.2861 68.3342L52.7783 68.3064C52.7579 68.4398 52.6524 68.6054 52.6009 68.7362C51.0349 72.7106 51.9968 77.2874 55.01 80.3406C55.1939 80.5271 55.2595 80.716 55.5117 80.8331L55.5507 80.8503C55.0615 80.9206 54.5403 80.8858 54.0457 80.9002L51.0934 80.9887C50.7176 80.9953 50.3487 81.0634 49.9725 81.0704L42.2589 81.069C41.879 81.0627 41.5106 81.0133 41.1328 80.9922L37.4305 80.8855L31.6513 80.5935C31.7758 80.5075 31.9131 80.4241 32.0217 80.3186L33.4531 78.9681C35.9075 76.4236 36.7864 72.7197 35.9153 69.3236C35.8624 69.1169 35.839 68.8285 35.7128 68.6555L50.2861 68.3342Z" fill="#C692ED"/>
<path d="M85.1843 33.4059C85.5141 34.766 85.2868 36.0819 85.2444 37.4415L84.5754 49.1663L84.1041 52.4819C83.9477 53.5475 84.0727 54.4888 82.9688 55.0095L82.9151 55.0369C82.8557 55.0645 80.0163 54.7721 79.572 54.7709L74.3375 54.7794L65.6452 55.0787C65.1519 55.0877 64.6708 55.1845 64.1751 55.1923L47.4866 55.2102C47.0507 55.2343 46.6279 55.3071 46.1865 55.3109L37.0032 55.3222C36.4927 55.3287 35.9991 55.4433 35.4858 55.4503L28.3825 55.6192L21.326 55.7975L16.6113 55.8196C16.2363 55.8354 15.8573 55.9182 15.4771 55.9388L12.0863 55.9755C8.82136 55.9817 6.39495 56.0599 5.42453 52.4779C5.05029 51.0964 4.9248 49.6059 4.76634 48.1862L4.34379 43.3961L4.24402 28.0117C4.81981 14.3827 8.58597 11.0866 21.7243 10.2917L30.657 10.0084C31.7612 9.91589 32.8616 9.89564 33.9697 9.81915L48.5596 8.40682L60.0119 7.35286L69.152 6.82398L73.6481 6.79004C77.9755 6.79027 83.4671 6.7807 86.7124 10.1294C88.8805 12.3667 89.0235 13.8556 89.0111 16.6767L88.9636 19.3501C88.942 19.8019 88.8534 20.2383 88.849 20.7003L88.8323 32.0582C88.8253 32.3363 88.7593 32.6086 88.746 32.8863L88.6671 51.3265L88.7252 57.5034C88.6533 58.5827 88.6864 59.6443 88.2338 60.6506C87.7841 59.4196 87.8143 58.0805 87.7521 56.7901L87.5995 53.1193C87.5886 52.7754 87.5261 52.4387 87.5148 52.0973L87.4071 46.0293C87.3979 45.6352 87.3193 45.2568 87.2991 44.8683L87.251 42.2641C87.2397 41.9412 87.1749 41.6267 87.1622 41.3068L86.3246 24.5353C86.2661 23.199 86.1597 21.8641 86.1567 20.5284L86.1502 17.6598C86.1453 15.8621 86.1246 14.4651 84.9887 12.9641C83.4337 10.9094 81.222 10.3448 78.7899 10.0269L73.4507 9.57665L62.4352 9.56961C62.0722 9.57877 61.7284 9.64634 61.3696 9.67058L53.3936 10.0796L33.7555 11.8861L28.7037 12.0852C28.3546 12.0954 28.0134 12.1637 27.6645 12.1682L22.2727 12.1894C18.4106 12.2984 13.1002 12.6274 9.95406 15.0773C7.0125 17.3679 6.62796 22.7624 6.38043 26.2355L6.20459 28.8736C6.09206 29.8794 6.15576 30.9666 6.15267 31.9812L6.29605 37.9975C6.45385 40.5587 7.24169 50.3289 8.88208 52.3485C9.43407 53.028 10.042 52.8711 10.8458 52.867L23.3432 52.5745C23.6334 52.5592 23.9251 52.5014 24.2139 52.4935L26.6699 52.4761C27.036 52.4663 27.3969 52.4016 27.7622 52.3924L32.4097 52.3759C32.828 52.3696 33.2309 52.2674 33.6401 52.2548L41.3172 52.2412C41.8389 52.2351 42.3499 52.1447 42.8666 52.1377L62.1527 52.144C62.5542 52.1549 62.9497 52.2305 63.3472 52.2418L67.2838 52.2604C67.6382 52.272 67.9839 52.3443 68.3357 52.359L81.276 53.2131C81.5356 52.0335 81.6673 50.8136 81.8242 49.6168L82.5007 41.3087L82.5068 36.5016C82.5082 35.1425 82.1797 32.5727 83.5181 31.6819C84.2481 31.196 84.7593 32.2266 84.9751 32.7933L85.1843 33.4059Z" fill="#141414"/>
</svg>
